<svg xmlns="http://www.w3.org/2000/svg" xmlns:xlink="http://www.w3.org/1999/xlink" width="576" zoomAndPan="magnify" viewBox="0 0 432 287.999989" height="384" preserveAspectRatio="xMidYMid meet" version="1.0"><defs><clipPath id="c9a2d91e7c"><path d="M 176 54.125 L 256 54.125 L 256 134 L 176 134 Z M 176 54.125 " clip-rule="nonzero"/></clipPath><clipPath id="21e94ea612"><path d="M 144.101562 154 L 288 154 L 288 234 L 144.101562 234 Z M 144.101562 154 " clip-rule="nonzero"/></clipPath></defs><rect x="-43.2" width="518.4" fill="#ffffff" y="-28.799999" height="345.599986" fill-opacity="1"/><rect x="-43.2" width="518.4" fill="#053b60" y="-28.799999" height="345.599986" fill-opacity="1"/><g clip-path="url(#c9a2d91e7c)"><path fill="#1a4d80" d="M 215.996094 54.128906 C 217.289062 54.128906 218.582031 54.191406 219.871094 54.320312 C 221.160156 54.445312 222.441406 54.636719 223.710938 54.890625 C 224.980469 55.140625 226.234375 55.457031 227.472656 55.832031 C 228.714844 56.207031 229.929688 56.644531 231.128906 57.140625 C 232.324219 57.636719 233.492188 58.1875 234.636719 58.796875 C 235.777344 59.410156 236.886719 60.074219 237.964844 60.792969 C 239.039062 61.511719 240.078125 62.285156 241.082031 63.105469 C 242.082031 63.925781 243.039062 64.796875 243.957031 65.710938 C 244.871094 66.625 245.742188 67.585938 246.5625 68.585938 C 247.382812 69.585938 248.152344 70.625 248.875 71.703125 C 249.59375 72.78125 250.257812 73.890625 250.867188 75.03125 C 251.480469 76.171875 252.03125 77.34375 252.527344 78.539062 C 253.023438 79.734375 253.457031 80.953125 253.835938 82.191406 C 254.210938 83.433594 254.523438 84.6875 254.777344 85.957031 C 255.03125 87.226562 255.21875 88.507812 255.347656 89.796875 C 255.472656 91.085938 255.539062 92.375 255.539062 93.671875 C 255.539062 94.964844 255.472656 96.257812 255.347656 97.546875 C 255.21875 98.835938 255.03125 100.117188 254.777344 101.386719 C 254.523438 102.65625 254.210938 103.910156 253.835938 105.148438 C 253.457031 106.390625 253.023438 107.605469 252.527344 108.804688 C 252.03125 110 251.480469 111.167969 250.867188 112.3125 C 250.257812 113.453125 249.59375 114.5625 248.875 115.640625 C 248.152344 116.714844 247.382812 117.753906 246.5625 118.757812 C 245.742188 119.757812 244.871094 120.714844 243.957031 121.632812 C 243.039062 122.546875 242.082031 123.417969 241.082031 124.238281 C 240.078125 125.058594 239.039062 125.828125 237.964844 126.550781 C 236.886719 127.269531 235.777344 127.933594 234.636719 128.542969 C 233.492188 129.15625 232.324219 129.707031 231.128906 130.203125 C 229.929688 130.699219 228.714844 131.132812 227.472656 131.511719 C 226.234375 131.886719 224.980469 132.199219 223.710938 132.453125 C 222.441406 132.707031 221.160156 132.894531 219.871094 133.023438 C 218.582031 133.148438 217.289062 133.214844 215.996094 133.214844 C 214.699219 133.214844 213.410156 133.148438 212.121094 133.023438 C 210.832031 132.894531 209.550781 132.707031 208.28125 132.453125 C 207.011719 132.199219 205.757812 131.886719 204.515625 131.511719 C 203.277344 131.132812 202.058594 130.699219 200.863281 130.203125 C 199.667969 129.707031 198.496094 129.15625 197.355469 128.542969 C 196.214844 127.933594 195.105469 127.269531 194.027344 126.550781 C 192.949219 125.828125 191.910156 125.058594 190.910156 124.238281 C 189.910156 123.417969 188.949219 122.546875 188.035156 121.632812 C 187.121094 120.714844 186.25 119.757812 185.429688 118.757812 C 184.609375 117.753906 183.835938 116.714844 183.117188 115.640625 C 182.398438 114.5625 181.734375 113.453125 181.121094 112.3125 C 180.511719 111.167969 179.960938 110 179.464844 108.804688 C 178.96875 107.605469 178.53125 106.390625 178.15625 105.148438 C 177.78125 103.910156 177.464844 102.65625 177.214844 101.386719 C 176.960938 100.117188 176.769531 98.835938 176.644531 97.546875 C 176.515625 96.257812 176.453125 94.964844 176.453125 93.671875 C 176.453125 92.375 176.519531 91.085938 176.648438 89.796875 C 176.777344 88.507812 176.96875 87.230469 177.222656 85.960938 C 177.472656 84.691406 177.789062 83.4375 178.167969 82.199219 C 178.542969 80.960938 178.980469 79.742188 179.476562 78.546875 C 179.972656 77.351562 180.523438 76.183594 181.136719 75.039062 C 181.746094 73.898438 182.410156 72.789062 183.132812 71.714844 C 183.851562 70.636719 184.621094 69.597656 185.441406 68.597656 C 186.265625 67.597656 187.132812 66.640625 188.046875 65.722656 C 188.964844 64.808594 189.921875 63.941406 190.921875 63.117188 C 191.921875 62.296875 192.960938 61.527344 194.039062 60.808594 C 195.113281 60.085938 196.222656 59.421875 197.363281 58.8125 C 198.507812 58.199219 199.675781 57.648438 200.871094 57.152344 C 202.066406 56.65625 203.285156 56.21875 204.523438 55.84375 C 205.761719 55.464844 207.015625 55.148438 208.285156 54.894531 C 209.554688 54.644531 210.832031 54.453125 212.121094 54.324219 C 213.410156 54.195312 214.699219 54.128906 215.996094 54.128906 Z M 215.996094 54.128906 " fill-opacity="1" fill-rule="nonzero"/></g><g clip-path="url(#21e94ea612)"><path fill="#1a4d80" d="M 215.996094 218 L 205.777344 207.78125 L 215.996094 179.675781 L 226.214844 207.78125 Z M 215.996094 164.078125 L 206.699219 154.78125 L 225.292969 154.78125 Z M 287.890625 233.867188 L 144.101562 233.867188 L 144.101562 187.132812 C 144.101562 186.074219 144.15625 185.019531 144.261719 183.964844 C 144.363281 182.910156 144.519531 181.863281 144.730469 180.824219 C 144.9375 179.785156 145.195312 178.761719 145.503906 177.746094 C 145.808594 176.734375 146.167969 175.738281 146.574219 174.757812 C 146.980469 173.78125 147.433594 172.824219 147.933594 171.890625 C 148.429688 170.957031 148.976562 170.050781 149.566406 169.167969 C 150.152344 168.289062 150.785156 167.4375 151.457031 166.621094 C 152.128906 165.800781 152.839844 165.015625 153.585938 164.269531 C 154.335938 163.519531 155.121094 162.808594 155.9375 162.136719 C 156.757812 161.464844 157.605469 160.832031 158.488281 160.246094 C 159.367188 159.65625 160.277344 159.113281 161.210938 158.613281 C 162.144531 158.113281 163.101562 157.660156 164.078125 157.253906 C 165.058594 156.847656 166.050781 156.492188 167.066406 156.183594 C 168.078125 155.875 169.105469 155.617188 170.144531 155.410156 C 171.183594 155.203125 172.230469 155.046875 173.285156 154.941406 C 174.335938 154.835938 175.394531 154.78125 176.453125 154.78125 L 196.535156 154.78125 L 211.835938 170.082031 L 198.238281 207.472656 C 198 208.128906 197.953125 208.800781 198.105469 209.480469 C 198.257812 210.164062 198.582031 210.75 199.074219 211.242188 L 213.453125 225.621094 C 213.789062 225.960938 214.179688 226.21875 214.621094 226.402344 C 215.058594 226.585938 215.519531 226.675781 215.996094 226.675781 C 216.472656 226.675781 216.929688 226.585938 217.371094 226.402344 C 217.8125 226.21875 218.199219 225.960938 218.535156 225.621094 L 232.914062 211.242188 C 233.410156 210.75 233.734375 210.164062 233.882812 209.480469 C 234.035156 208.800781 233.992188 208.128906 233.753906 207.472656 L 220.15625 170.082031 L 235.457031 154.78125 L 255.539062 154.78125 C 256.597656 154.78125 257.652344 154.835938 258.707031 154.941406 C 259.761719 155.046875 260.808594 155.203125 261.847656 155.410156 C 262.886719 155.617188 263.910156 155.875 264.925781 156.183594 C 265.9375 156.492188 266.933594 156.847656 267.914062 157.253906 C 268.890625 157.660156 269.847656 158.113281 270.78125 158.613281 C 271.714844 159.113281 272.621094 159.65625 273.503906 160.246094 C 274.382812 160.832031 275.234375 161.464844 276.050781 162.136719 C 276.871094 162.808594 277.65625 163.519531 278.402344 164.269531 C 279.152344 165.015625 279.863281 165.800781 280.535156 166.621094 C 281.207031 167.4375 281.839844 168.289062 282.425781 169.167969 C 283.015625 170.050781 283.558594 170.957031 284.058594 171.890625 C 284.558594 172.824219 285.011719 173.78125 285.417969 174.757812 C 285.824219 175.738281 286.179688 176.734375 286.488281 177.746094 C 286.796875 178.761719 287.054688 179.785156 287.261719 180.824219 C 287.46875 181.863281 287.625 182.910156 287.730469 183.964844 C 287.835938 185.019531 287.890625 186.074219 287.890625 187.132812 Z M 287.890625 233.867188 " fill-opacity="1" fill-rule="nonzero"/></g></svg>