<svg xmlns="http://www.w3.org/2000/svg" xmlns:xlink="http://www.w3.org/1999/xlink" width="576" zoomAndPan="magnify" viewBox="0 0 432 287.999989" height="384" preserveAspectRatio="xMidYMid meet" version="1.0"><defs><clipPath id="a3f1d49ddf"><path d="M 111.625 72.113281 L 245 72.113281 L 245 216 L 111.625 216 Z M 111.625 72.113281 " clip-rule="nonzero"/></clipPath><clipPath id="c84b57b2bb"><path d="M 226 107 L 320.125 107 L 320.125 216 L 226 216 Z M 226 107 " clip-rule="nonzero"/></clipPath></defs><rect x="-43.2" width="518.4" fill="#ffffff" y="-28.799999" height="345.599986" fill-opacity="1"/><rect x="-43.2" width="518.4" fill="#2266aa" y="-28.799999" height="345.599986" fill-opacity="1"/><g clip-path="url(#a3f1d49ddf)"><path fill="#053b60" d="M 231.6875 158.035156 C 229.140625 152.945312 227.671875 147.285156 227.671875 141.253906 C 227.671875 128.328125 234.230469 116.917969 244.125 110.140625 L 198.269531 74.421875 C 195.351562 72.160156 191.292969 72.160156 188.375 74.421875 L 158.050781 98.027344 L 158.050781 88.332031 C 158.050781 85.917969 156.078125 83.941406 153.664062 83.941406 L 145.503906 83.941406 C 143.089844 83.941406 141.113281 85.917969 141.113281 88.332031 L 141.113281 111.238281 L 115.222656 131.421875 C 112.941406 133.199219 111.625 135.941406 111.625 138.859375 L 111.625 142.394531 C 111.625 145.597656 114.171875 148.140625 117.375 148.140625 L 131.085938 148.140625 L 131.085938 210.125 C 131.085938 213.285156 133.632812 215.828125 136.792969 215.828125 L 212.96875 215.828125 C 212.554688 214.273438 212.3125 212.625 212.3125 210.9375 L 212.3125 193.734375 C 212.3125 178.464844 219.15625 166 231.6875 158.035156 Z M 231.6875 158.035156 " fill-opacity="1" fill-rule="nonzero"/></g><path fill="#053b60" d="M 265.253906 164.683594 C 278.199219 164.683594 288.6875 154.195312 288.6875 141.253906 C 288.6875 128.308594 278.199219 117.820312 265.253906 117.820312 C 252.308594 117.820312 241.824219 128.308594 241.824219 141.253906 C 241.824219 154.195312 252.308594 164.683594 265.253906 164.683594 Z M 265.253906 164.683594 " fill-opacity="1" fill-rule="nonzero"/><g clip-path="url(#c84b57b2bb)"><path fill="#053b60" d="M 310.847656 107.703125 C 305.230469 107.417969 300.601562 111.875 300.601562 117.425781 L 300.601562 123.390625 C 300.953125 144.28125 296.433594 159.222656 287.527344 166.617188 C 286.363281 167.582031 285.199219 168.480469 284.035156 169.335938 C 278.660156 172.957031 272.210938 175.0625 265.253906 175.0625 C 257.160156 175.0625 249.722656 172.1875 243.886719 167.425781 C 234.164062 171.859375 226.441406 180.042969 226.441406 193.734375 L 226.441406 210.9375 C 226.441406 213.636719 228.636719 215.828125 231.335938 215.828125 L 299.15625 215.828125 C 301.851562 215.828125 304.046875 213.636719 304.046875 210.9375 L 304.046875 193.734375 C 304.046875 192.878906 304.023438 192.046875 303.960938 191.234375 C 303.453125 184.300781 304.96875 177.410156 308.832031 171.617188 C 316.621094 159.96875 320.371094 143.753906 320.019531 123.238281 L 320.019531 117.972656 C 320.042969 112.707031 316.09375 107.988281 310.847656 107.703125 Z M 310.847656 107.703125 " fill-opacity="1" fill-rule="nonzero"/></g></svg>