<svg xmlns="http://www.w3.org/2000/svg" xmlns:xlink="http://www.w3.org/1999/xlink" width="576" zoomAndPan="magnify" viewBox="0 0 432 287.999989" height="384" preserveAspectRatio="xMidYMid meet" version="1.0"><defs><clipPath id="d255dc3dd5"><path d="M 108.6875 70.203125 L 242 70.203125 L 242 214 L 108.6875 214 Z M 108.6875 70.203125 " clip-rule="nonzero"/></clipPath><clipPath id="4e656ef7ad"><path d="M 223 105 L 317.1875 105 L 317.1875 214 L 223 214 Z M 223 105 " clip-rule="nonzero"/></clipPath><clipPath id="918decd33b"><path d="M 114.5625 74.019531 L 248 74.019531 L 248 218 L 114.5625 218 Z M 114.5625 74.019531 " clip-rule="nonzero"/></clipPath></defs><rect x="-43.2" width="518.4" fill="#ffffff" y="-28.799999" height="345.599986" fill-opacity="1"/><rect x="-43.2" width="518.4" fill="#2266aa" y="-28.799999" height="345.599986" fill-opacity="1"/><g clip-path="url(#d255dc3dd5)"><path fill="#053b60" d="M 228.75 156.128906 C 226.203125 151.039062 224.734375 145.375 224.734375 139.34375 C 224.734375 126.417969 231.292969 115.011719 241.191406 108.230469 L 195.332031 72.511719 C 192.414062 70.25 188.355469 70.25 185.4375 72.511719 L 155.113281 96.121094 L 155.113281 86.421875 C 155.113281 84.007812 153.140625 82.03125 150.726562 82.03125 L 142.566406 82.03125 C 140.152344 82.03125 138.175781 84.007812 138.175781 86.421875 L 138.175781 109.328125 L 112.285156 129.511719 C 110.003906 131.289062 108.6875 134.03125 108.6875 136.953125 L 108.6875 140.484375 C 108.6875 143.6875 111.234375 146.230469 114.4375 146.230469 L 128.148438 146.230469 L 128.148438 208.214844 C 128.148438 211.375 130.695312 213.921875 133.855469 213.921875 L 210.035156 213.921875 C 209.617188 212.363281 209.375 210.714844 209.375 209.027344 L 209.375 191.824219 C 209.375 176.554688 216.222656 164.09375 228.75 156.128906 Z M 228.75 156.128906 " fill-opacity="1" fill-rule="nonzero"/></g><path fill="#053b60" d="M 262.320312 162.777344 C 275.265625 162.777344 285.75 152.289062 285.75 139.34375 C 285.75 126.398438 275.265625 115.910156 262.320312 115.910156 C 249.375 115.910156 238.886719 126.398438 238.886719 139.34375 C 238.886719 152.289062 249.375 162.777344 262.320312 162.777344 Z M 262.320312 162.777344 " fill-opacity="1" fill-rule="nonzero"/><g clip-path="url(#4e656ef7ad)"><path fill="#053b60" d="M 307.910156 105.796875 C 302.296875 105.511719 297.664062 109.964844 297.664062 115.515625 L 297.664062 121.484375 C 298.015625 142.371094 293.496094 157.3125 284.589844 164.707031 C 283.425781 165.671875 282.261719 166.570312 281.101562 167.425781 C 275.722656 171.046875 269.273438 173.152344 262.320312 173.152344 C 254.222656 173.152344 246.785156 170.28125 240.949219 165.519531 C 231.226562 169.949219 223.503906 178.132812 223.503906 191.824219 L 223.503906 209.027344 C 223.503906 211.726562 225.699219 213.921875 228.398438 213.921875 L 296.21875 213.921875 C 298.917969 213.921875 301.109375 211.726562 301.109375 209.027344 L 301.109375 191.824219 C 301.109375 190.96875 301.089844 190.136719 301.023438 189.324219 C 300.519531 182.390625 302.03125 175.5 305.894531 169.710938 C 313.683594 158.058594 317.433594 141.84375 317.082031 121.328125 L 317.082031 116.0625 C 317.105469 110.796875 313.15625 106.082031 307.910156 105.796875 Z M 307.910156 105.796875 " fill-opacity="1" fill-rule="nonzero"/></g><g clip-path="url(#918decd33b)"><path fill="#ccaa55" d="M 234.621094 159.945312 C 232.078125 154.855469 230.609375 149.195312 230.609375 143.160156 C 230.609375 130.238281 237.167969 118.828125 247.0625 112.050781 L 201.207031 76.328125 C 198.289062 74.070312 194.230469 74.070312 191.3125 76.328125 L 160.988281 99.9375 L 160.988281 90.238281 C 160.988281 87.828125 159.015625 85.851562 156.601562 85.851562 L 148.4375 85.851562 C 146.027344 85.851562 144.050781 87.828125 144.050781 90.238281 L 144.050781 113.144531 L 118.160156 133.332031 C 115.878906 135.109375 114.5625 137.851562 114.5625 140.769531 L 114.5625 144.300781 C 114.5625 147.503906 117.105469 150.050781 120.3125 150.050781 L 134.023438 150.050781 L 134.023438 212.035156 C 134.023438 215.195312 136.570312 217.738281 139.726562 217.738281 L 215.90625 217.738281 C 215.492188 216.179688 215.25 214.535156 215.25 212.847656 L 215.25 195.644531 C 215.25 180.375 222.09375 167.910156 234.621094 159.945312 Z M 234.621094 159.945312 " fill-opacity="1" fill-rule="nonzero"/></g><path fill="#ccaa55" d="M 268.191406 166.59375 C 281.136719 166.59375 291.625 156.105469 291.625 143.160156 C 291.625 130.214844 281.136719 119.726562 268.191406 119.726562 C 255.246094 119.726562 244.757812 130.214844 244.757812 143.160156 C 244.757812 156.105469 255.246094 166.59375 268.191406 166.59375 Z M 268.191406 166.59375 " fill-opacity="1" fill-rule="nonzero"/><path fill="#ccaa55" d="M 313.785156 109.613281 C 308.167969 109.328125 303.539062 113.78125 303.539062 119.332031 L 303.539062 125.300781 C 303.890625 146.1875 299.371094 161.132812 290.460938 168.523438 C 289.300781 169.492188 288.136719 170.390625 286.972656 171.246094 C 281.597656 174.867188 275.148438 176.972656 268.191406 176.972656 C 260.097656 176.972656 252.660156 174.097656 246.820312 169.335938 C 237.101562 173.769531 229.378906 181.953125 229.378906 195.644531 L 229.378906 212.847656 C 229.378906 215.542969 231.574219 217.738281 234.273438 217.738281 L 302.089844 217.738281 C 304.789062 217.738281 306.984375 215.542969 306.984375 212.847656 L 306.984375 195.644531 C 306.984375 194.789062 306.960938 193.953125 306.894531 193.144531 C 306.390625 186.210938 307.90625 179.320312 311.765625 173.527344 C 319.554688 161.875 323.308594 145.664062 322.957031 125.148438 L 322.957031 119.882812 C 322.980469 114.617188 319.03125 109.898438 313.785156 109.613281 Z M 313.785156 109.613281 " fill-opacity="1" fill-rule="nonzero"/></svg>