<svg xmlns="http://www.w3.org/2000/svg" xmlns:xlink="http://www.w3.org/1999/xlink" width="576" zoomAndPan="magnify" viewBox="0 0 432 287.999989" height="384" preserveAspectRatio="xMidYMid meet" version="1.0"><defs><clipPath id="e5ee0efb4f"><path d="M 158.398438 86.398438 L 273.898438 86.398438 L 273.898438 201.898438 L 158.398438 201.898438 Z M 158.398438 86.398438 " clip-rule="nonzero"/></clipPath></defs><rect x="-43.2" width="518.4" fill="#ffffff" y="-28.799999" height="345.599986" fill-opacity="1"/><rect x="-43.2" width="518.4" fill="#053b60" y="-28.799999" height="345.599986" fill-opacity="1"/><g clip-path="url(#e5ee0efb4f)"><path fill="#1a4d80" d="M 158.386719 201.582031 L 158.386719 115.1875 L 194.386719 115.1875 L 194.386719 201.582031 Z M 165.585938 122.386719 L 165.585938 129.585938 L 172.785156 129.585938 L 172.785156 122.386719 Z M 179.984375 122.386719 L 179.984375 129.585938 L 187.1875 129.585938 L 187.1875 122.386719 Z M 179.984375 136.785156 L 179.984375 143.984375 L 187.1875 143.984375 L 187.1875 136.785156 Z M 165.585938 136.785156 L 165.585938 143.984375 L 172.785156 143.984375 L 172.785156 136.785156 Z M 179.984375 158.382812 L 187.1875 158.382812 L 187.1875 151.183594 L 179.984375 151.183594 Z M 165.585938 151.183594 L 165.585938 158.382812 L 172.785156 158.382812 L 172.785156 151.183594 Z M 165.585938 165.582031 L 165.585938 172.785156 L 172.785156 172.785156 L 172.785156 165.582031 Z M 179.984375 172.785156 L 187.1875 172.785156 L 187.1875 165.582031 L 179.984375 165.582031 Z M 179.984375 179.984375 L 179.984375 187.183594 L 187.1875 187.183594 L 187.1875 179.984375 Z M 165.585938 179.984375 L 165.585938 187.183594 L 172.785156 187.183594 L 172.785156 179.984375 Z M 254.863281 86.386719 L 256.304688 86.386719 L 256.304688 96.464844 L 257.742188 97.90625 L 266.382812 103.667969 L 273.582031 113.746094 L 273.582031 201.582031 L 237.582031 201.582031 L 237.582031 113.746094 L 244.785156 103.667969 L 253.421875 97.90625 L 254.863281 96.464844 Z M 244.785156 115.1875 L 251.984375 115.1875 L 251.984375 107.984375 Z M 259.183594 107.984375 L 259.183594 115.1875 L 266.382812 115.1875 Z M 244.785156 122.386719 L 244.785156 129.585938 L 251.984375 129.585938 L 251.984375 122.386719 Z M 259.183594 122.386719 L 259.183594 129.585938 L 266.382812 129.585938 L 266.382812 122.386719 Z M 259.183594 136.785156 L 259.183594 143.984375 L 266.382812 143.984375 L 266.382812 136.785156 Z M 244.785156 136.785156 L 244.785156 143.984375 L 251.984375 143.984375 L 251.984375 136.785156 Z M 259.183594 158.382812 L 266.382812 158.382812 L 266.382812 151.183594 L 259.183594 151.183594 Z M 244.589844 151.183594 L 244.589844 158.382812 L 251.789062 158.382812 L 251.789062 151.183594 Z M 244.785156 165.582031 L 244.785156 172.785156 L 251.984375 172.785156 L 251.984375 165.582031 Z M 259.183594 172.785156 L 266.382812 172.785156 L 266.382812 165.582031 L 259.183594 165.582031 Z M 259.183594 179.984375 L 259.183594 187.183594 L 266.382812 187.183594 L 266.382812 179.984375 Z M 244.785156 179.984375 L 244.785156 187.183594 L 251.984375 187.183594 L 251.984375 179.984375 Z M 197.265625 201.582031 L 197.265625 86.386719 L 234.703125 100.785156 L 234.703125 201.582031 Z M 201.585938 107.984375 L 201.585938 115.1875 L 208.785156 115.1875 L 208.785156 107.984375 Z M 223.183594 107.984375 L 223.183594 115.1875 L 230.382812 115.1875 L 230.382812 107.984375 Z M 201.585938 122.386719 L 201.585938 129.585938 L 208.785156 129.585938 L 208.785156 122.386719 Z M 223.183594 122.386719 L 223.183594 129.585938 L 230.382812 129.585938 L 230.382812 122.386719 Z M 223.183594 136.785156 L 223.183594 143.984375 L 230.382812 143.984375 L 230.382812 136.785156 Z M 201.585938 136.785156 L 201.585938 143.984375 L 208.785156 143.984375 L 208.785156 136.785156 Z M 223.183594 158.382812 L 230.382812 158.382812 L 230.382812 151.183594 L 223.183594 151.183594 Z M 201.585938 151.183594 L 201.585938 158.382812 L 208.785156 158.382812 L 208.785156 151.183594 Z M 201.585938 165.582031 L 201.585938 172.785156 L 208.785156 172.785156 L 208.785156 165.582031 Z M 223.183594 172.785156 L 230.382812 172.785156 L 230.382812 165.582031 L 223.183594 165.582031 Z M 223.183594 179.984375 L 223.183594 187.183594 L 230.382812 187.183594 L 230.382812 179.984375 Z M 201.585938 179.984375 L 201.585938 187.183594 L 208.785156 187.183594 L 208.785156 179.984375 Z M 218.863281 107.984375 L 213.105469 107.984375 L 213.105469 115.1875 L 218.863281 115.1875 Z M 213.105469 122.386719 L 213.105469 129.585938 L 218.863281 129.585938 L 218.863281 122.386719 Z M 213.105469 136.785156 L 213.105469 143.984375 L 218.863281 143.984375 L 218.863281 136.785156 Z M 213.105469 151.183594 L 213.105469 158.382812 L 218.863281 158.382812 L 218.863281 151.183594 Z M 213.105469 172.785156 L 218.863281 172.785156 L 218.863281 165.582031 L 213.105469 165.582031 Z M 213.105469 187.183594 L 218.863281 187.183594 L 218.863281 179.984375 L 213.105469 179.984375 Z M 213.105469 187.183594 " fill-opacity="1" fill-rule="nonzero"/></g></svg>