<svg xmlns="http://www.w3.org/2000/svg" xmlns:xlink="http://www.w3.org/1999/xlink" width="576" zoomAndPan="magnify" viewBox="0 0 432 287.999989" height="384" preserveAspectRatio="xMidYMid meet" version="1.0"><defs><g/><clipPath id="9ae0bf7e31"><path d="M 0 0 L 69.054688 0 L 69.054688 288 L 0 288 Z M 0 0 " clip-rule="nonzero"/></clipPath><clipPath id="eb9b65852c"><path d="M 236 132 L 324.964844 132 L 324.964844 214.582031 L 236 214.582031 Z M 236 132 " clip-rule="nonzero"/></clipPath><clipPath id="60e2449a79"><path d="M 178.714844 73.582031 L 314 73.582031 L 314 214.582031 L 178.714844 214.582031 Z M 178.714844 73.582031 " clip-rule="nonzero"/></clipPath></defs><rect x="-43.2" width="518.4" fill="#ffffff" y="-28.799999" height="345.599986" fill-opacity="1"/><rect x="-43.2" width="518.4" fill="#053b60" y="-28.799999" height="345.599986" fill-opacity="1"/><g clip-path="url(#9ae0bf7e31)"><path fill="#ccaa55" d="M 0 0 L 69.054688 0 L 69.054688 288.089844 L 0 288.089844 Z M 0 0 " fill-opacity="1" fill-rule="nonzero"/></g><path fill="#ffffff" d="M 189.484375 189.007812 L 228.128906 189.007812 L 228.128906 192.691406 L 189.484375 192.691406 Z M 189.484375 189.007812 " fill-opacity="1" fill-rule="nonzero"/><path fill="#ffffff" d="M 189.484375 180.558594 L 228.128906 180.558594 L 228.128906 184.242188 L 189.484375 184.242188 Z M 189.484375 180.558594 " fill-opacity="1" fill-rule="nonzero"/><path fill="#ffffff" d="M 189.484375 197.457031 L 228.128906 197.457031 L 228.128906 201.140625 L 189.484375 201.140625 Z M 189.484375 197.457031 " fill-opacity="1" fill-rule="nonzero"/><path fill="#ffffff" d="M 188.886719 105.363281 L 192.570312 105.363281 L 192.570312 109.96875 L 188.886719 109.96875 Z M 188.886719 105.363281 " fill-opacity="1" fill-rule="nonzero"/><path fill="#ffffff" d="M 188.886719 114.574219 L 192.570312 114.574219 L 192.570312 119.179688 L 188.886719 119.179688 Z M 188.886719 114.574219 " fill-opacity="1" fill-rule="nonzero"/><path fill="#ffffff" d="M 192.683594 100.757812 L 192.683594 96.269531 L 188.886719 96.269531 L 188.886719 100.757812 Z M 192.683594 100.757812 " fill-opacity="1" fill-rule="nonzero"/><path fill="#ffffff" d="M 197.289062 96.269531 L 201.898438 96.269531 L 201.898438 99.953125 L 197.289062 99.953125 Z M 197.289062 96.269531 " fill-opacity="1" fill-rule="nonzero"/><path fill="#ffffff" d="M 206.503906 96.269531 L 211.109375 96.269531 L 211.109375 99.953125 L 206.503906 99.953125 Z M 206.503906 96.269531 " fill-opacity="1" fill-rule="nonzero"/><path fill="#ffffff" d="M 215.714844 96.269531 L 220.320312 96.269531 L 220.320312 99.953125 L 215.714844 99.953125 Z M 215.714844 96.269531 " fill-opacity="1" fill-rule="nonzero"/><path fill="#ffffff" d="M 224.925781 96.269531 L 229.53125 96.269531 L 229.53125 99.953125 L 224.925781 99.953125 Z M 224.925781 96.269531 " fill-opacity="1" fill-rule="nonzero"/><path fill="#ffffff" d="M 226.441406 144.445312 L 230.125 144.445312 L 230.125 149.050781 L 226.441406 149.050781 Z M 226.441406 144.445312 " fill-opacity="1" fill-rule="nonzero"/><path fill="#ffffff" d="M 189.480469 163.671875 L 194.085938 163.671875 L 194.085938 167.355469 L 189.480469 167.355469 Z M 189.480469 163.671875 " fill-opacity="1" fill-rule="nonzero"/><path fill="#ffffff" d="M 198.691406 163.671875 L 203.296875 163.671875 L 203.296875 167.355469 L 198.691406 167.355469 Z M 198.691406 163.671875 " fill-opacity="1" fill-rule="nonzero"/><path fill="#ffffff" d="M 226.441406 153.65625 L 230.125 153.65625 L 230.125 158.261719 L 226.441406 158.261719 Z M 226.441406 153.65625 " fill-opacity="1" fill-rule="nonzero"/><path fill="#ffffff" d="M 230.125 162.867188 L 226.324219 162.867188 L 226.324219 167.355469 L 230.125 167.355469 Z M 230.125 162.867188 " fill-opacity="1" fill-rule="nonzero"/><path fill="#ffffff" d="M 217.113281 163.671875 L 221.71875 163.671875 L 221.71875 167.355469 L 217.113281 167.355469 Z M 217.113281 163.671875 " fill-opacity="1" fill-rule="nonzero"/><path fill="#ffffff" d="M 207.902344 163.671875 L 212.507812 163.671875 L 212.507812 167.355469 L 207.902344 167.355469 Z M 207.902344 163.671875 " fill-opacity="1" fill-rule="nonzero"/><g clip-path="url(#eb9b65852c)"><path fill="#ffffff" d="M 255.609375 184.78125 L 255.609375 186.625 C 255.609375 190.792969 252.265625 194.191406 248.121094 194.28125 C 243.988281 194.195312 240.628906 190.765625 240.628906 186.625 L 240.628906 132.238281 L 236.945312 132.238281 L 236.945312 186.628906 C 236.945312 192.730469 241.871094 197.785156 247.949219 197.960938 L 247.949219 197.972656 C 248 197.972656 248.050781 197.96875 248.101562 197.96875 C 248.164062 197.96875 248.226562 197.972656 248.289062 197.972656 L 284.667969 197.972656 L 284.667969 210.753906 L 256.785156 210.753906 L 256.785156 214.4375 L 288.351562 214.4375 L 288.351562 197.972656 L 313.445312 197.972656 C 319.699219 197.972656 324.789062 192.882812 324.789062 186.625 L 324.789062 184.785156 L 255.609375 184.785156 Z M 313.445312 194.285156 L 256.308594 194.285156 C 257.765625 192.695312 258.78125 190.691406 259.144531 188.46875 L 320.878906 188.46875 C 320.054688 191.804688 317.035156 194.285156 313.445312 194.285156 Z M 313.445312 194.285156 " fill-opacity="1" fill-rule="nonzero"/></g><g clip-path="url(#60e2449a79)"><path fill="#ffffff" d="M 182.433594 90.304688 L 284.667969 90.304688 L 284.667969 100.53125 L 236.945312 100.53125 L 236.945312 117.355469 L 240.628906 117.355469 L 240.628906 104.214844 L 309.792969 104.214844 L 309.792969 176.171875 L 313.476562 176.171875 L 313.476562 100.53125 L 288.351562 100.53125 L 288.351562 73.59375 L 178.746094 73.59375 L 178.746094 214.4375 L 250.558594 214.4375 L 250.558594 210.753906 L 182.433594 210.753906 Z M 276.984375 77.277344 L 284.667969 77.277344 L 284.667969 86.621094 L 276.984375 86.621094 Z M 265.863281 77.277344 L 273.300781 77.277344 L 273.300781 86.621094 L 265.863281 86.621094 Z M 182.433594 77.277344 L 262.175781 77.277344 L 262.175781 86.621094 L 182.433594 86.621094 Z M 182.433594 77.277344 " fill-opacity="1" fill-rule="nonzero"/></g><path fill="#ffffff" d="M 273.898438 170.402344 C 287.601562 170.402344 298.753906 159.253906 298.753906 145.546875 L 298.753906 143.707031 L 275.738281 143.707031 L 275.738281 120.691406 L 273.898438 120.691406 C 260.191406 120.691406 249.039062 131.84375 249.039062 145.546875 C 249.039062 159.253906 260.191406 170.402344 273.898438 170.402344 Z M 294.988281 147.390625 C 294.378906 154.449219 290.289062 160.527344 284.445312 163.898438 L 276.78125 147.390625 Z M 281.105469 165.449219 C 278.855469 166.269531 276.429688 166.71875 273.898438 166.71875 C 269.097656 166.71875 264.667969 165.113281 261.113281 162.410156 L 273.398438 148.84375 Z M 272.054688 124.457031 L 272.054688 144.835938 L 258.382812 159.933594 C 254.875 156.15625 252.726562 151.097656 252.726562 145.546875 C 252.726562 134.496094 261.238281 125.390625 272.054688 124.457031 Z M 272.054688 124.457031 " fill-opacity="1" fill-rule="nonzero"/><path fill="#ffffff" d="M 305.152344 139.273438 C 305.152344 125.566406 294 114.417969 280.292969 114.417969 L 278.453125 114.417969 L 278.453125 141.117188 L 305.152344 141.117188 Z M 282.136719 137.429688 L 282.136719 118.179688 C 292.34375 119.066406 300.503906 127.222656 301.386719 137.429688 Z M 282.136719 137.429688 " fill-opacity="1" fill-rule="nonzero"/><path fill="#ffffff" d="M 250.074219 119.996094 C 253.398438 119.996094 256.105469 117.289062 256.105469 113.964844 C 256.105469 110.640625 253.398438 107.933594 250.074219 107.933594 C 246.75 107.933594 244.042969 110.640625 244.042969 113.964844 C 244.042969 114.816406 244.222656 115.625 244.542969 116.359375 L 231.699219 128.769531 C 230.707031 128.054688 229.492188 127.625 228.175781 127.625 C 226.605469 127.625 225.175781 128.234375 224.101562 129.222656 L 214.625 124.9375 C 214.761719 124.4375 214.839844 123.914062 214.839844 123.371094 C 214.839844 120.042969 212.132812 117.339844 208.808594 117.339844 C 205.480469 117.339844 202.777344 120.042969 202.777344 123.371094 C 202.777344 124.296875 202.992188 125.171875 203.367188 125.957031 L 192.992188 135.980469 C 192.292969 135.695312 191.527344 135.535156 190.726562 135.535156 C 187.402344 135.535156 184.695312 138.242188 184.695312 141.566406 C 184.695312 144.890625 187.402344 147.597656 190.726562 147.597656 C 194.054688 147.597656 196.757812 144.890625 196.757812 141.566406 C 196.757812 140.390625 196.414062 139.292969 195.828125 138.363281 L 205.890625 128.644531 C 206.753906 129.125 207.75 129.402344 208.808594 129.402344 C 210.238281 129.402344 211.554688 128.898438 212.589844 128.058594 L 222.269531 132.441406 C 222.1875 132.832031 222.144531 133.242188 222.144531 133.65625 C 222.144531 136.984375 224.851562 139.6875 228.175781 139.6875 C 231.503906 139.6875 234.207031 136.984375 234.207031 133.65625 C 234.207031 132.996094 234.097656 132.363281 233.898438 131.765625 L 246.976562 119.132812 C 247.882812 119.675781 248.941406 119.996094 250.074219 119.996094 Z M 250.074219 111.617188 C 251.367188 111.617188 252.421875 112.671875 252.421875 113.964844 C 252.421875 115.257812 251.367188 116.3125 250.074219 116.3125 C 248.78125 116.3125 247.726562 115.257812 247.726562 113.964844 C 247.726562 112.671875 248.78125 111.617188 250.074219 111.617188 Z M 190.726562 143.914062 C 189.433594 143.914062 188.378906 142.859375 188.378906 141.566406 C 188.378906 140.273438 189.433594 139.21875 190.726562 139.21875 C 192.019531 139.21875 193.074219 140.273438 193.074219 141.566406 C 193.074219 142.859375 192.019531 143.914062 190.726562 143.914062 Z M 208.808594 125.714844 C 207.511719 125.714844 206.460938 124.664062 206.460938 123.371094 C 206.460938 122.074219 207.511719 121.023438 208.808594 121.023438 C 210.101562 121.023438 211.152344 122.074219 211.152344 123.371094 C 211.152344 124.664062 210.101562 125.714844 208.808594 125.714844 Z M 228.175781 136.003906 C 226.882812 136.003906 225.828125 134.953125 225.828125 133.65625 C 225.828125 132.363281 226.882812 131.308594 228.175781 131.308594 C 229.472656 131.308594 230.523438 132.363281 230.523438 133.65625 C 230.523438 134.953125 229.472656 136.003906 228.175781 136.003906 Z M 228.175781 136.003906 " fill-opacity="1" fill-rule="nonzero"/><g fill="#053b60" fill-opacity="1"><g transform="translate(42.775761, 222.718693)"><g><path d="M -17.546875 -8.125 C -17.546875 -9.976562 -17.175781 -11.59375 -16.4375 -12.96875 C -15.707031 -14.351562 -14.679688 -15.425781 -13.359375 -16.1875 C -12.035156 -16.945312 -10.507812 -17.328125 -8.78125 -17.328125 C -7.0625 -17.328125 -5.535156 -16.945312 -4.203125 -16.1875 C -2.867188 -15.425781 -1.832031 -14.347656 -1.09375 -12.953125 C -0.363281 -11.566406 0 -9.957031 0 -8.125 L 0 -1.546875 L -17.546875 -1.546875 Z M -3.703125 -7.84375 C -3.703125 -9.46875 -4.140625 -10.726562 -5.015625 -11.625 C -5.898438 -12.519531 -7.15625 -12.96875 -8.78125 -12.96875 C -10.394531 -12.96875 -11.648438 -12.519531 -12.546875 -11.625 C -13.453125 -10.726562 -13.90625 -9.46875 -13.90625 -7.84375 L -13.90625 -5.828125 L -3.703125 -5.828125 Z M -3.703125 -7.84375 "/></g></g></g><g fill="#053b60" fill-opacity="1"><g transform="translate(42.775761, 204.546576)"><g><path d="M -7 -0.703125 C -8.4375 -0.703125 -9.695312 -0.972656 -10.78125 -1.515625 C -11.863281 -2.054688 -12.695312 -2.789062 -13.28125 -3.71875 C -13.863281 -4.65625 -14.15625 -5.695312 -14.15625 -6.84375 C -14.15625 -7.832031 -13.953125 -8.695312 -13.546875 -9.4375 C -13.148438 -10.175781 -12.625 -10.75 -11.96875 -11.15625 L -13.953125 -11.15625 L -13.953125 -15.421875 L 0 -15.421875 L 0 -11.15625 L -1.96875 -11.15625 C -1.320312 -10.738281 -0.796875 -10.15625 -0.390625 -9.40625 C 0.00390625 -8.664062 0.203125 -7.804688 0.203125 -6.828125 C 0.203125 -5.691406 -0.09375 -4.65625 -0.6875 -3.71875 C -1.28125 -2.789062 -2.117188 -2.054688 -3.203125 -1.515625 C -4.296875 -0.972656 -5.5625 -0.703125 -7 -0.703125 Z M -6.96875 -11.15625 C -8.039062 -11.15625 -8.882812 -10.859375 -9.5 -10.265625 C -10.113281 -9.671875 -10.421875 -8.945312 -10.421875 -8.09375 C -10.421875 -7.25 -10.113281 -6.53125 -9.5 -5.9375 C -8.894531 -5.34375 -8.0625 -5.046875 -7 -5.046875 C -5.9375 -5.046875 -5.09375 -5.34375 -4.46875 -5.9375 C -3.84375 -6.53125 -3.53125 -7.25 -3.53125 -8.09375 C -3.53125 -8.945312 -3.835938 -9.671875 -4.453125 -10.265625 C -5.066406 -10.859375 -5.90625 -11.15625 -6.96875 -11.15625 Z M -6.96875 -11.15625 "/></g></g></g><g fill="#053b60" fill-opacity="1"><g transform="translate(42.775761, 187.574269)"><g><path d="M 0.203125 -7.21875 C 0.203125 -6.007812 -0.00390625 -4.925781 -0.421875 -3.96875 C -0.835938 -3.019531 -1.40625 -2.269531 -2.125 -1.71875 C -2.851562 -1.175781 -3.671875 -0.867188 -4.578125 -0.796875 L -4.578125 -5.03125 C -4.085938 -5.070312 -3.691406 -5.289062 -3.390625 -5.6875 C -3.097656 -6.09375 -2.953125 -6.585938 -2.953125 -7.171875 C -2.953125 -7.703125 -3.054688 -8.113281 -3.265625 -8.40625 C -3.472656 -8.695312 -3.742188 -8.84375 -4.078125 -8.84375 C -4.472656 -8.84375 -4.765625 -8.632812 -4.953125 -8.21875 C -5.148438 -7.800781 -5.363281 -7.128906 -5.59375 -6.203125 C -5.832031 -5.203125 -6.078125 -4.367188 -6.328125 -3.703125 C -6.585938 -3.035156 -7 -2.457031 -7.5625 -1.96875 C -8.125 -1.488281 -8.878906 -1.25 -9.828125 -1.25 C -10.628906 -1.25 -11.359375 -1.46875 -12.015625 -1.90625 C -12.671875 -2.351562 -13.191406 -3.003906 -13.578125 -3.859375 C -13.960938 -4.722656 -14.15625 -5.742188 -14.15625 -6.921875 C -14.15625 -8.671875 -13.71875 -10.050781 -12.84375 -11.0625 C -11.976562 -12.070312 -10.832031 -12.648438 -9.40625 -12.796875 L -9.40625 -8.84375 C -9.882812 -8.78125 -10.265625 -8.566406 -10.546875 -8.203125 C -10.828125 -7.847656 -10.96875 -7.378906 -10.96875 -6.796875 C -10.96875 -6.296875 -10.875 -5.910156 -10.6875 -5.640625 C -10.5 -5.378906 -10.238281 -5.25 -9.90625 -5.25 C -9.5 -5.25 -9.195312 -5.460938 -9 -5.890625 C -8.800781 -6.316406 -8.601562 -6.976562 -8.40625 -7.875 C -8.132812 -8.90625 -7.867188 -9.742188 -7.609375 -10.390625 C -7.347656 -11.046875 -6.929688 -11.617188 -6.359375 -12.109375 C -5.785156 -12.597656 -5.015625 -12.851562 -4.046875 -12.875 C -3.234375 -12.875 -2.503906 -12.644531 -1.859375 -12.1875 C -1.222656 -11.726562 -0.71875 -11.066406 -0.34375 -10.203125 C 0.0195312 -9.347656 0.203125 -8.351562 0.203125 -7.21875 Z M 0.203125 -7.21875 "/></g></g></g><g fill="#053b60" fill-opacity="1"><g transform="translate(42.775761, 173.626474)"><g><path d="M -14.09375 -10.125 C -14.09375 -11.726562 -13.5625 -13.007812 -12.5 -13.96875 C -11.445312 -14.9375 -10 -15.421875 -8.15625 -15.421875 L 0 -15.421875 L 0 -11.171875 L -7.578125 -11.171875 C -8.503906 -11.171875 -9.226562 -10.925781 -9.75 -10.4375 C -10.269531 -9.957031 -10.53125 -9.3125 -10.53125 -8.5 C -10.53125 -7.6875 -10.269531 -7.035156 -9.75 -6.546875 C -9.226562 -6.066406 -8.503906 -5.828125 -7.578125 -5.828125 L 0 -5.828125 L 0 -1.546875 L -18.5 -1.546875 L -18.5 -5.828125 L -12.078125 -5.828125 C -12.691406 -6.253906 -13.179688 -6.84375 -13.546875 -7.59375 C -13.910156 -8.34375 -14.09375 -9.1875 -14.09375 -10.125 Z M -14.09375 -10.125 "/></g></g></g><g fill="#053b60" fill-opacity="1"><g transform="translate(42.775761, 156.779147)"><g><path d="M -11.96875 -5.828125 C -12.625 -6.222656 -13.148438 -6.796875 -13.546875 -7.546875 C -13.953125 -8.296875 -14.15625 -9.15625 -14.15625 -10.125 C -14.15625 -11.269531 -13.863281 -12.3125 -13.28125 -13.25 C -12.695312 -14.1875 -11.863281 -14.925781 -10.78125 -15.46875 C -9.695312 -16.007812 -8.4375 -16.28125 -7 -16.28125 C -5.5625 -16.28125 -4.296875 -16.007812 -3.203125 -15.46875 C -2.117188 -14.925781 -1.28125 -14.1875 -0.6875 -13.25 C -0.09375 -12.3125 0.203125 -11.269531 0.203125 -10.125 C 0.203125 -9.144531 0.0078125 -8.285156 -0.375 -7.546875 C -0.769531 -6.816406 -1.296875 -6.242188 -1.953125 -5.828125 L 0 -5.828125 L 0 -1.546875 L -18.5 -1.546875 L -18.5 -5.828125 Z M -7 -11.921875 C -8.0625 -11.921875 -8.894531 -11.625 -9.5 -11.03125 C -10.113281 -10.445312 -10.421875 -9.71875 -10.421875 -8.84375 C -10.421875 -8 -10.113281 -7.28125 -9.5 -6.6875 C -8.882812 -6.09375 -8.039062 -5.796875 -6.96875 -5.796875 C -5.90625 -5.796875 -5.066406 -6.09375 -4.453125 -6.6875 C -3.835938 -7.28125 -3.53125 -8 -3.53125 -8.84375 C -3.53125 -9.695312 -3.84375 -10.421875 -4.46875 -11.015625 C -5.09375 -11.617188 -5.9375 -11.921875 -7 -11.921875 Z M -7 -11.921875 "/></g></g></g><g fill="#053b60" fill-opacity="1"><g transform="translate(42.775761, 139.80684)"><g><path d="M 0.203125 -7.90625 C 0.203125 -6.53125 -0.0859375 -5.296875 -0.671875 -4.203125 C -1.253906 -3.117188 -2.085938 -2.265625 -3.171875 -1.640625 C -4.253906 -1.015625 -5.519531 -0.703125 -6.96875 -0.703125 C -8.40625 -0.703125 -9.671875 -1.015625 -10.765625 -1.640625 C -11.859375 -2.273438 -12.695312 -3.144531 -13.28125 -4.25 C -13.863281 -5.351562 -14.15625 -6.585938 -14.15625 -7.953125 C -14.15625 -9.316406 -13.863281 -10.546875 -13.28125 -11.640625 C -12.695312 -12.742188 -11.859375 -13.613281 -10.765625 -14.25 C -9.671875 -14.882812 -8.40625 -15.203125 -6.96875 -15.203125 C -5.539062 -15.203125 -4.28125 -14.878906 -3.1875 -14.234375 C -2.09375 -13.597656 -1.253906 -12.722656 -0.671875 -11.609375 C -0.0859375 -10.503906 0.203125 -9.269531 0.203125 -7.90625 Z M -3.5 -7.90625 C -3.5 -8.71875 -3.796875 -9.410156 -4.390625 -9.984375 C -4.992188 -10.554688 -5.851562 -10.84375 -6.96875 -10.84375 C -8.09375 -10.84375 -8.953125 -10.5625 -9.546875 -10 C -10.148438 -9.445312 -10.453125 -8.765625 -10.453125 -7.953125 C -10.453125 -7.117188 -10.15625 -6.425781 -9.5625 -5.875 C -8.96875 -5.320312 -8.101562 -5.046875 -6.96875 -5.046875 C -5.851562 -5.046875 -4.992188 -5.316406 -4.390625 -5.859375 C -3.796875 -6.398438 -3.5 -7.082031 -3.5 -7.90625 Z M -3.5 -7.90625 "/></g></g></g><g fill="#053b60" fill-opacity="1"><g transform="translate(42.775761, 123.884368)"><g><path d="M -7 -0.703125 C -8.4375 -0.703125 -9.695312 -0.972656 -10.78125 -1.515625 C -11.863281 -2.054688 -12.695312 -2.789062 -13.28125 -3.71875 C -13.863281 -4.65625 -14.15625 -5.695312 -14.15625 -6.84375 C -14.15625 -7.832031 -13.953125 -8.695312 -13.546875 -9.4375 C -13.148438 -10.175781 -12.625 -10.75 -11.96875 -11.15625 L -13.953125 -11.15625 L -13.953125 -15.421875 L 0 -15.421875 L 0 -11.15625 L -1.96875 -11.15625 C -1.320312 -10.738281 -0.796875 -10.15625 -0.390625 -9.40625 C 0.00390625 -8.664062 0.203125 -7.804688 0.203125 -6.828125 C 0.203125 -5.691406 -0.09375 -4.65625 -0.6875 -3.71875 C -1.28125 -2.789062 -2.117188 -2.054688 -3.203125 -1.515625 C -4.296875 -0.972656 -5.5625 -0.703125 -7 -0.703125 Z M -6.96875 -11.15625 C -8.039062 -11.15625 -8.882812 -10.859375 -9.5 -10.265625 C -10.113281 -9.671875 -10.421875 -8.945312 -10.421875 -8.09375 C -10.421875 -7.25 -10.113281 -6.53125 -9.5 -5.9375 C -8.894531 -5.34375 -8.0625 -5.046875 -7 -5.046875 C -5.9375 -5.046875 -5.09375 -5.34375 -4.46875 -5.9375 C -3.84375 -6.53125 -3.53125 -7.25 -3.53125 -8.09375 C -3.53125 -8.945312 -3.835938 -9.671875 -4.453125 -10.265625 C -5.066406 -10.859375 -5.90625 -11.15625 -6.96875 -11.15625 Z M -6.96875 -11.15625 "/></g></g></g><g fill="#053b60" fill-opacity="1"><g transform="translate(42.775761, 106.91206)"><g><path d="M -11.625 -5.828125 C -12.394531 -6.328125 -13 -6.953125 -13.4375 -7.703125 C -13.875 -8.453125 -14.09375 -9.285156 -14.09375 -10.203125 L -9.578125 -10.203125 L -9.578125 -9.03125 C -9.578125 -7.957031 -9.347656 -7.15625 -8.890625 -6.625 C -8.429688 -6.09375 -7.625 -5.828125 -6.46875 -5.828125 L 0 -5.828125 L 0 -1.546875 L -13.953125 -1.546875 L -13.953125 -5.828125 Z M -11.625 -5.828125 "/></g></g></g><g fill="#053b60" fill-opacity="1"><g transform="translate(42.775761, 96.213758)"><g><path d="M -7 -0.703125 C -8.4375 -0.703125 -9.695312 -0.972656 -10.78125 -1.515625 C -11.863281 -2.054688 -12.695312 -2.789062 -13.28125 -3.71875 C -13.863281 -4.65625 -14.15625 -5.695312 -14.15625 -6.84375 C -14.15625 -7.757812 -13.960938 -8.597656 -13.578125 -9.359375 C -13.191406 -10.117188 -12.675781 -10.71875 -12.03125 -11.15625 L -18.5 -11.15625 L -18.5 -15.421875 L 0 -15.421875 L 0 -11.15625 L -2 -11.15625 C -1.332031 -10.75 -0.796875 -10.175781 -0.390625 -9.4375 C 0.00390625 -8.695312 0.203125 -7.832031 0.203125 -6.84375 C 0.203125 -5.695312 -0.09375 -4.65625 -0.6875 -3.71875 C -1.28125 -2.789062 -2.117188 -2.054688 -3.203125 -1.515625 C -4.296875 -0.972656 -5.5625 -0.703125 -7 -0.703125 Z M -6.96875 -11.15625 C -8.039062 -11.15625 -8.882812 -10.859375 -9.5 -10.265625 C -10.113281 -9.671875 -10.421875 -8.945312 -10.421875 -8.09375 C -10.421875 -7.25 -10.113281 -6.53125 -9.5 -5.9375 C -8.894531 -5.34375 -8.0625 -5.046875 -7 -5.046875 C -5.9375 -5.046875 -5.09375 -5.34375 -4.46875 -5.9375 C -3.84375 -6.53125 -3.53125 -7.25 -3.53125 -8.09375 C -3.53125 -8.945312 -3.835938 -9.671875 -4.453125 -10.265625 C -5.066406 -10.859375 -5.90625 -11.15625 -6.96875 -11.15625 Z M -6.96875 -11.15625 "/></g></g></g><g fill="#053b60" fill-opacity="1"><g transform="translate(42.775761, 79.24145)"><g><path d="M 0.203125 -7.21875 C 0.203125 -6.007812 -0.00390625 -4.925781 -0.421875 -3.96875 C -0.835938 -3.019531 -1.40625 -2.269531 -2.125 -1.71875 C -2.851562 -1.175781 -3.671875 -0.867188 -4.578125 -0.796875 L -4.578125 -5.03125 C -4.085938 -5.070312 -3.691406 -5.289062 -3.390625 -5.6875 C -3.097656 -6.09375 -2.953125 -6.585938 -2.953125 -7.171875 C -2.953125 -7.703125 -3.054688 -8.113281 -3.265625 -8.40625 C -3.472656 -8.695312 -3.742188 -8.84375 -4.078125 -8.84375 C -4.472656 -8.84375 -4.765625 -8.632812 -4.953125 -8.21875 C -5.148438 -7.800781 -5.363281 -7.128906 -5.59375 -6.203125 C -5.832031 -5.203125 -6.078125 -4.367188 -6.328125 -3.703125 C -6.585938 -3.035156 -7 -2.457031 -7.5625 -1.96875 C -8.125 -1.488281 -8.878906 -1.25 -9.828125 -1.25 C -10.628906 -1.25 -11.359375 -1.46875 -12.015625 -1.90625 C -12.671875 -2.351562 -13.191406 -3.003906 -13.578125 -3.859375 C -13.960938 -4.722656 -14.15625 -5.742188 -14.15625 -6.921875 C -14.15625 -8.671875 -13.71875 -10.050781 -12.84375 -11.0625 C -11.976562 -12.070312 -10.832031 -12.648438 -9.40625 -12.796875 L -9.40625 -8.84375 C -9.882812 -8.78125 -10.265625 -8.566406 -10.546875 -8.203125 C -10.828125 -7.847656 -10.96875 -7.378906 -10.96875 -6.796875 C -10.96875 -6.296875 -10.875 -5.910156 -10.6875 -5.640625 C -10.5 -5.378906 -10.238281 -5.25 -9.90625 -5.25 C -9.5 -5.25 -9.195312 -5.460938 -9 -5.890625 C -8.800781 -6.316406 -8.601562 -6.976562 -8.40625 -7.875 C -8.132812 -8.90625 -7.867188 -9.742188 -7.609375 -10.390625 C -7.347656 -11.046875 -6.929688 -11.617188 -6.359375 -12.109375 C -5.785156 -12.597656 -5.015625 -12.851562 -4.046875 -12.875 C -3.234375 -12.875 -2.503906 -12.644531 -1.859375 -12.1875 C -1.222656 -11.726562 -0.71875 -11.066406 -0.34375 -10.203125 C 0.0195312 -9.347656 0.203125 -8.351562 0.203125 -7.21875 Z M 0.203125 -7.21875 "/></g></g></g></svg>