<svg xmlns="http://www.w3.org/2000/svg" xmlns:xlink="http://www.w3.org/1999/xlink" width="576" zoomAndPan="magnify" viewBox="0 0 432 287.999989" height="384" preserveAspectRatio="xMidYMid meet" version="1.0"><defs><clipPath id="fad457aeae"><path d="M 175 69.472656 L 257 69.472656 L 257 124 L 175 124 Z M 175 69.472656 " clip-rule="nonzero"/></clipPath><clipPath id="bc1785465a"><path d="M 146 159 L 286 159 L 286 218.722656 L 146 218.722656 Z M 146 159 " clip-rule="nonzero"/></clipPath></defs><rect x="-43.2" width="518.4" fill="#ffffff" y="-28.799999" height="345.599986" fill-opacity="1"/><rect x="-43.2" width="518.4" fill="#053b60" y="-28.799999" height="345.599986" fill-opacity="1"/><path fill="#1a4d80" d="M 183.214844 127.726562 C 186.25 143.320312 199.730469 155.035156 216.078125 155.035156 C 232.433594 155.035156 245.925781 143.320312 248.957031 127.726562 C 246.945312 128.019531 244.441406 128.3125 241.226562 128.636719 C 234.910156 129.261719 226.394531 129.808594 216.070312 129.808594 C 205.746094 129.808594 197.21875 129.261719 190.914062 128.636719 C 187.714844 128.3125 185.222656 128.019531 183.214844 127.726562 Z M 183.214844 127.726562 " fill-opacity="1" fill-rule="evenodd"/><g clip-path="url(#fad457aeae)"><path fill="#1a4d80" d="M 216.089844 69.511719 C 209.242188 69.511719 203.75 73.933594 203.75 79.417969 L 203.75 89.066406 C 203.75 92.390625 200.238281 92.546875 199.320312 89.234375 L 197.453125 82.515625 C 189.183594 88.167969 183.921875 97.269531 183.152344 107.269531 C 178.78125 107.144531 175.699219 110.222656 175.699219 114.066406 C 175.699219 117.554688 177.351562 120.078125 180.285156 120.863281 C 182.824219 121.546875 195.867188 123.636719 216.089844 123.636719 C 236.308594 123.636719 249.351562 121.546875 251.890625 120.863281 C 254.816406 120.078125 256.476562 117.554688 256.476562 114.066406 C 256.476562 110.226562 253.394531 107.144531 249.027344 107.269531 C 248.253906 97.269531 242.992188 88.167969 234.710938 82.515625 L 232.855469 89.234375 C 231.925781 92.546875 228.414062 92.390625 228.414062 89.066406 L 228.414062 79.417969 C 228.414062 73.933594 222.921875 69.511719 216.089844 69.511719 Z M 216.089844 69.511719 " fill-opacity="1" fill-rule="evenodd"/></g><g clip-path="url(#bc1785465a)"><path fill="#1a4d80" d="M 175.394531 194.914062 L 256.769531 194.914062 L 256.769531 209.34375 C 244.96875 210.832031 226.648438 212.023438 216.089844 212.023438 C 205.519531 212.023438 187.207031 210.832031 175.394531 209.34375 Z M 236.855469 159.070312 L 218.140625 173.363281 C 216.898438 174.324219 215.238281 174.324219 213.984375 173.363281 L 195.292969 159.089844 L 187.257812 162.316406 L 187.257812 187.40625 L 175.398438 187.40625 L 175.398438 167.078125 L 162.34375 172.308594 C 156.773438 174.535156 154.726562 177.511719 153.183594 182.144531 L 146.582031 201.921875 C 145.203125 207.851562 148.109375 210.078125 150.765625 210.890625 C 162.078125 213.429688 194.136719 218.503906 216.089844 218.503906 C 238.027344 218.503906 270.085938 213.429688 281.40625 210.890625 C 284.058594 210.078125 286.960938 207.847656 285.585938 201.921875 L 278.984375 182.144531 C 277.4375 177.511719 275.394531 174.535156 269.820312 172.308594 L 256.769531 167.078125 L 256.769531 187.40625 L 244.921875 187.40625 L 244.921875 162.316406 Z M 236.855469 159.070312 " fill-opacity="1" fill-rule="nonzero"/></g></svg>