<svg xmlns="http://www.w3.org/2000/svg" xmlns:xlink="http://www.w3.org/1999/xlink" width="576" zoomAndPan="magnify" viewBox="0 0 432 287.999989" height="384" preserveAspectRatio="xMidYMid meet" version="1.0"><defs><clipPath id="caa17688a9"><path d="M 146 76.601562 L 198 76.601562 L 198 137 L 146 137 Z M 146 76.601562 " clip-rule="nonzero"/></clipPath><clipPath id="c4a5ab7cbb"><path d="M 234 76.601562 L 286 76.601562 L 286 137 L 234 137 Z M 234 76.601562 " clip-rule="nonzero"/></clipPath><clipPath id="9a2b8abed4"><path d="M 145.242188 140 L 286.992188 140 L 286.992188 211.601562 L 145.242188 211.601562 Z M 145.242188 140 " clip-rule="nonzero"/></clipPath></defs><rect x="-43.2" width="518.4" fill="#ffffff" y="-28.799999" height="345.599986" fill-opacity="1"/><rect x="-43.2" width="518.4" fill="#053b60" y="-28.799999" height="345.599986" fill-opacity="1"/><g clip-path="url(#caa17688a9)"><path fill="#1a4d80" d="M 166.25 118.738281 C 160.621094 121.277344 151.136719 125.355469 150.476562 125.578125 C 149.8125 125.796875 149.371094 126.351562 149.152344 127.011719 L 146.503906 136.386719 C 147.386719 136.054688 148.378906 135.945312 149.371094 135.945312 L 151.246094 135.945312 L 153.121094 129.105469 C 154.886719 128.335938 158.859375 126.679688 168.011719 122.710938 C 171.542969 121.164062 171.652344 121.164062 171.875 120.945312 C 172.203125 120.722656 172.535156 120.28125 172.644531 119.84375 L 173.96875 115.539062 C 176.285156 116.863281 178.824219 117.636719 181.46875 117.636719 C 184.117188 117.636719 186.652344 116.863281 188.96875 115.539062 L 190.292969 119.84375 C 190.40625 120.28125 190.734375 120.613281 191.066406 120.945312 C 191.175781 121.054688 191.285156 121.054688 191.507812 121.164062 C 193.382812 120.394531 195.257812 119.511719 196.914062 118.847656 C 196.800781 118.847656 196.800781 118.738281 196.691406 118.738281 C 195.699219 118.296875 194.816406 117.964844 194.265625 117.636719 L 192.832031 112.78125 C 193.714844 112.011719 194.484375 111.019531 195.257812 110.136719 C 194.484375 108.480469 193.824219 106.714844 193.382812 104.839844 C 190.734375 109.582031 186.433594 113.335938 181.46875 113.335938 C 173.527344 113.335938 167.019531 103.40625 167.019531 95.464844 C 167.019531 87.523438 173.527344 81.125 181.46875 81.125 C 187.316406 81.125 192.28125 84.546875 194.597656 89.507812 C 195.257812 87.964844 196.140625 86.53125 197.132812 85.097656 C 193.824219 80.132812 188.089844 76.824219 181.582031 76.824219 C 171.210938 76.824219 162.71875 85.207031 162.71875 95.464844 C 162.71875 101.640625 165.695312 108.371094 170.328125 112.78125 L 168.785156 117.746094 C 168.125 117.964844 167.242188 118.296875 166.25 118.738281 Z M 166.25 118.738281 " fill-opacity="1" fill-rule="nonzero"/></g><path fill="#1a4d80" d="M 187.757812 132.527344 C 189.523438 131.753906 193.492188 129.988281 202.648438 125.910156 C 206.175781 124.363281 206.175781 124.253906 206.507812 124.144531 C 206.839844 123.8125 207.171875 123.480469 207.28125 123.039062 L 208.605469 118.628906 C 210.921875 119.953125 213.457031 120.722656 216.105469 120.722656 C 218.753906 120.722656 221.289062 119.953125 223.605469 118.628906 L 224.929688 123.039062 C 225.039062 123.480469 225.371094 123.921875 225.699219 124.144531 C 225.921875 124.363281 226.03125 124.363281 229.5625 125.910156 C 238.714844 129.988281 242.6875 131.753906 244.453125 132.527344 L 245.445312 136.167969 L 249.96875 136.167969 L 248.421875 130.320312 C 248.203125 129.660156 247.761719 129.105469 247.101562 128.886719 C 246.4375 128.554688 237.0625 124.472656 231.4375 121.9375 C 230.445312 121.496094 229.5625 121.054688 229.011719 120.835938 L 227.464844 115.761719 C 232.097656 111.238281 234.964844 104.289062 234.964844 98.003906 C 234.964844 87.414062 226.582031 78.808594 216.214844 78.808594 C 205.847656 78.808594 197.464844 87.414062 197.464844 98.003906 C 197.464844 104.289062 200.441406 111.238281 204.964844 115.761719 L 203.421875 120.835938 C 202.867188 121.054688 201.984375 121.496094 200.992188 121.9375 C 195.367188 124.472656 185.992188 128.667969 185.332031 128.886719 C 184.667969 129.105469 184.226562 129.660156 184.007812 130.320312 L 182.460938 136.167969 L 186.984375 136.167969 Z M 201.65625 97.890625 C 201.65625 89.730469 208.050781 83.109375 215.996094 83.109375 C 223.9375 83.109375 230.332031 89.730469 230.332031 97.890625 C 230.332031 106.054688 223.9375 116.203125 215.996094 116.203125 C 208.050781 116.203125 201.65625 106.054688 201.65625 97.890625 Z M 201.65625 97.890625 " fill-opacity="1" fill-rule="nonzero"/><g clip-path="url(#c4a5ab7cbb)"><path fill="#1a4d80" d="M 257.910156 115.539062 L 259.234375 119.84375 C 259.34375 120.28125 259.675781 120.613281 260.003906 120.945312 C 260.226562 121.164062 260.335938 121.164062 263.867188 122.710938 C 273.132812 126.679688 277.101562 128.445312 278.867188 129.105469 L 280.742188 135.835938 L 282.617188 135.835938 C 283.609375 135.835938 284.601562 135.945312 285.484375 136.277344 L 282.835938 126.902344 C 282.617188 126.238281 282.175781 125.6875 281.515625 125.46875 C 280.851562 125.136719 271.367188 121.164062 265.742188 118.628906 C 264.746094 118.1875 263.867188 117.855469 263.3125 117.527344 L 261.769531 112.5625 C 266.402344 108.148438 269.378906 101.421875 269.378906 95.246094 C 269.378906 84.988281 260.886719 76.601562 250.519531 76.601562 C 243.902344 76.824219 238.164062 80.132812 234.746094 85.097656 C 235.738281 86.421875 236.621094 87.855469 237.28125 89.507812 C 239.597656 84.546875 244.671875 81.125 250.410156 81.125 C 258.351562 81.125 264.859375 87.523438 264.859375 95.464844 C 264.859375 103.40625 258.351562 113.335938 250.410156 113.335938 C 245.445312 113.335938 241.144531 109.582031 238.496094 104.839844 C 238.054688 106.605469 237.394531 108.371094 236.621094 110.136719 C 237.394531 111.128906 238.164062 112.011719 239.046875 112.78125 L 237.503906 117.746094 C 236.953125 117.964844 236.070312 118.40625 235.078125 118.847656 C 234.964844 118.847656 234.964844 118.960938 234.855469 118.960938 C 236.511719 119.730469 238.496094 120.503906 240.261719 121.277344 C 240.59375 121.164062 240.59375 121.054688 240.703125 121.054688 C 241.03125 120.835938 241.363281 120.394531 241.472656 119.953125 L 242.796875 115.652344 C 245.113281 116.972656 247.652344 117.746094 250.296875 117.746094 C 253.167969 117.636719 255.703125 116.863281 257.910156 115.539062 Z M 257.910156 115.539062 " fill-opacity="1" fill-rule="nonzero"/></g><path fill="#1a4d80" d="M 252.394531 163.960938 C 251.179688 163.960938 250.1875 164.957031 250.1875 166.167969 L 250.1875 182.714844 L 181.800781 182.714844 L 181.800781 166.167969 C 181.800781 164.957031 180.808594 163.960938 179.59375 163.960938 C 178.382812 163.960938 177.390625 164.957031 177.390625 166.167969 L 177.390625 184.921875 C 177.390625 186.132812 178.382812 187.125 179.59375 187.125 L 252.394531 187.125 C 253.609375 187.125 254.601562 186.132812 254.601562 184.921875 L 254.601562 166.167969 C 254.601562 164.957031 253.609375 163.960938 252.394531 163.960938 Z M 252.394531 163.960938 " fill-opacity="1" fill-rule="nonzero"/><g clip-path="url(#9a2b8abed4)"><path fill="#1a4d80" d="M 282.175781 140.578125 L 149.8125 140.578125 C 147.386719 140.578125 145.402344 142.5625 145.402344 144.992188 L 145.402344 149.402344 C 145.402344 151.828125 147.386719 153.816406 149.8125 153.816406 L 153.121094 153.816406 L 153.121094 198.15625 L 147.605469 198.15625 C 146.394531 198.15625 145.402344 199.148438 145.402344 200.363281 L 145.402344 209.1875 C 145.402344 210.398438 146.394531 211.390625 147.605469 211.390625 L 284.382812 211.390625 C 285.59375 211.390625 286.585938 210.398438 286.585938 209.1875 L 286.585938 200.363281 C 286.585938 199.148438 285.59375 198.15625 284.382812 198.15625 L 278.867188 198.15625 L 278.867188 153.816406 L 282.175781 153.816406 C 284.601562 153.816406 286.585938 151.828125 286.585938 149.402344 L 286.585938 144.992188 C 286.585938 142.453125 284.601562 140.578125 282.175781 140.578125 Z M 282.175781 202.570312 L 282.175781 206.980469 L 149.8125 206.980469 L 149.8125 202.570312 Z M 157.535156 198.15625 L 157.535156 153.816406 L 274.453125 153.816406 L 274.453125 198.15625 Z M 282.175781 149.402344 L 149.8125 149.402344 L 149.8125 144.992188 L 282.175781 144.992188 Z M 282.175781 149.402344 " fill-opacity="1" fill-rule="nonzero"/></g></svg>