<svg xmlns="http://www.w3.org/2000/svg" xmlns:xlink="http://www.w3.org/1999/xlink" width="150" zoomAndPan="magnify" viewBox="0 0 112.5 112.499997" height="150" preserveAspectRatio="xMidYMid meet" version="1.0"><defs><clipPath id="64131f6595"><path d="M 3.730469 67 L 22 67 L 22 85 L 3.730469 85 Z M 3.730469 67 " clip-rule="nonzero"/></clipPath><clipPath id="7c03aada8d"><path d="M 94 67 L 109.761719 67 L 109.761719 85 L 94 85 Z M 94 67 " clip-rule="nonzero"/></clipPath></defs><g clip-path="url(#64131f6595)"><path fill="#9a7e17" d="M 19.082031 67.839844 L 19.082031 68.242188 C 18.53125 68.214844 18 68.308594 17.492188 68.523438 C 16.980469 68.734375 16.542969 69.046875 16.175781 69.460938 L 10.765625 74.996094 L 18.40625 82.488281 C 19.691406 83.773438 20.703125 84.042969 21.652344 84.042969 L 21.652344 84.582031 L 14.015625 84.582031 L 14.015625 84.042969 C 15.027344 84.042969 15.636719 83.773438 15.636719 83.300781 C 15.636719 82.964844 14.960938 81.953125 13.675781 80.671875 L 9.28125 76.347656 L 8.066406 77.429688 L 8.066406 81.613281 C 8.066406 83.640625 8.402344 83.976562 10.09375 83.976562 L 10.09375 84.519531 L 3.734375 84.519531 L 3.734375 83.976562 C 5.492188 83.976562 5.761719 83.640625 5.761719 81.613281 L 5.761719 70.742188 C 5.761719 68.714844 5.425781 68.378906 3.734375 68.378906 L 3.734375 67.839844 L 10.160156 67.839844 L 10.160156 68.378906 C 8.402344 68.378906 8.128906 68.714844 8.128906 70.742188 L 8.128906 76.683594 L 12.1875 72.835938 C 13.742188 71.347656 14.691406 70.203125 14.691406 69.457031 C 14.691406 68.851562 13.945312 68.511719 13 68.578125 L 13 68.042969 " fill-opacity="1" fill-rule="nonzero"/></g><path fill="#9a7e17" d="M 23.34375 82.558594 C 23.34375 83.976562 23.546875 84.179688 24.765625 84.179688 L 24.765625 84.515625 L 20.367188 84.515625 L 20.367188 84.179688 C 21.585938 84.179688 21.789062 83.910156 21.789062 82.558594 L 21.789062 74.996094 C 21.789062 73.578125 21.585938 73.375 20.367188 73.375 L 20.367188 73.039062 L 25.035156 73.039062 L 25.035156 73.375 C 23.613281 73.375 23.410156 73.644531 23.410156 74.996094 " fill-opacity="1" fill-rule="nonzero"/><path fill="#9a7e17" d="M 36.867188 72.566406 L 36.867188 75.671875 L 36.597656 75.671875 C 36.125 73.984375 35.382812 73.714844 33.421875 73.714844 C 31.863281 73.714844 31.730469 73.777344 31.730469 75.335938 C 31.730469 77.089844 31.59375 81.546875 31.59375 82.558594 C 31.59375 83.84375 31.933594 84.113281 33.488281 84.179688 L 33.488281 84.515625 L 28.210938 84.515625 L 28.210938 84.179688 C 29.902344 84.179688 30.105469 83.910156 30.105469 82.558594 C 30.105469 81.546875 30.242188 77.023438 30.242188 75.335938 C 30.242188 73.847656 30.175781 73.78125 28.753906 73.78125 C 26.859375 73.78125 25.980469 74.457031 25.441406 75.671875 L 25.101562 75.671875 L 25.914062 72.566406 L 26.320312 72.566406 C 26.757812 73.042969 27.296875 73.246094 27.941406 73.171875 L 34.839844 73.171875 C 35.988281 73.171875 36.125 73.039062 36.664062 72.566406 " fill-opacity="1" fill-rule="nonzero"/><path fill="#9a7e17" d="M 46.671875 76.480469 C 46.265625 75.195312 45.183594 73.171875 42.546875 73.171875 C 40.449219 73.171875 38.417969 74.996094 38.417969 78.910156 C 38.417969 82.152344 40.3125 84.378906 43.015625 84.378906 C 44.910156 84.378906 46.332031 83.097656 47.007812 81.339844 L 47.34375 81.339844 L 47.074219 83.164062 C 46.535156 83.835938 44.84375 84.714844 42.679688 84.714844 C 38.691406 84.714844 36.527344 81.949219 36.527344 79.046875 C 36.527344 75.535156 38.890625 72.765625 42.679688 72.765625 C 43.964844 72.765625 46.128906 73.304688 47.074219 74.183594 L 47.011719 76.480469 " fill-opacity="1" fill-rule="nonzero"/><path fill="#9a7e17" d="M 57.492188 78.167969 L 57.492188 74.925781 C 57.492188 73.507812 57.289062 73.308594 55.800781 73.308594 L 55.800781 72.972656 L 60.535156 72.972656 L 60.535156 73.308594 C 59.320312 73.308594 59.117188 73.578125 59.117188 74.929688 L 59.117188 82.492188 C 59.117188 83.910156 59.320312 84.113281 60.535156 84.113281 L 60.535156 84.449219 L 55.734375 84.449219 L 55.734375 84.113281 C 57.289062 84.113281 57.492188 83.84375 57.492188 82.492188 L 57.492188 78.777344 L 50.121094 78.777344 L 50.121094 82.492188 C 50.121094 83.910156 50.328125 84.113281 51.8125 84.113281 L 51.8125 84.449219 L 47.011719 84.449219 L 47.011719 84.113281 C 48.296875 84.113281 48.566406 83.84375 48.566406 82.492188 L 48.566406 74.996094 C 48.566406 73.578125 48.363281 73.375 47.148438 73.375 L 47.148438 73.039062 L 51.8125 73.039062 L 51.8125 73.375 C 50.390625 73.375 50.1875 73.644531 50.1875 74.996094 L 50.1875 78.238281 " fill-opacity="1" fill-rule="nonzero"/><path fill="#9a7e17" d="M 60.128906 84.179688 C 61.617188 84.179688 61.820312 83.910156 61.820312 82.558594 C 61.882812 80.195312 61.882812 77.628906 61.882812 74.996094 C 61.882812 73.578125 61.679688 73.375 60.261719 73.375 L 60.261719 73.039062 L 69.117188 73.039062 L 69.523438 75.132812 L 69.253906 75.132812 C 68.441406 74.117188 67.90625 73.511719 66.144531 73.511719 L 64.589844 73.511719 C 63.640625 73.511719 63.507812 73.574219 63.507812 74.253906 L 63.507812 78.234375 L 65.398438 78.234375 C 66.953125 78.234375 67.089844 77.964844 67.425781 76.613281 L 67.832031 76.613281 L 67.832031 80.597656 L 67.425781 80.597656 C 67.222656 79.179688 66.886719 78.84375 65.601562 78.84375 L 63.574219 78.84375 L 63.574219 83.433594 C 63.574219 84.042969 63.84375 84.175781 64.722656 84.175781 L 67.15625 84.175781 C 68.914062 84.175781 69.253906 83.839844 70.402344 81.882812 L 70.742188 81.882812 C 70.484375 82.769531 70.28125 83.671875 70.132812 84.582031 L 60.199219 84.582031 " fill-opacity="1" fill-rule="nonzero"/><path fill="#9a7e17" d="M 70.8125 84.179688 C 71.964844 84.042969 72.371094 83.839844 72.371094 81.816406 L 72.371094 74.996094 C 72.371094 73.648438 71.761719 73.441406 70.476562 73.308594 L 70.476562 72.972656 L 73.382812 72.972656 C 74.804688 74.726562 80.820312 81.074219 81.699219 82.085938 C 81.765625 79.921875 81.765625 76.75 81.765625 75.0625 C 81.765625 73.984375 81.425781 73.578125 80.074219 73.375 L 80.074219 73.039062 L 83.996094 73.039062 L 83.996094 73.375 C 82.644531 73.511719 82.304688 73.984375 82.304688 75.0625 C 82.304688 75.738281 82.167969 81.480469 82.035156 84.652344 L 81.695312 84.652344 C 80.75 83.164062 75.746094 78.371094 72.90625 74.792969 L 72.839844 74.792969 L 72.839844 81.949219 C 72.839844 83.976562 73.109375 84.179688 74.464844 84.3125 L 74.464844 84.652344 L 70.746094 84.652344 " fill-opacity="1" fill-rule="nonzero"/><path fill="#9a7e17" d="M 83.730469 84.179688 C 85.21875 84.179688 85.417969 83.910156 85.488281 82.558594 C 85.554688 80.195312 85.554688 77.628906 85.554688 74.996094 C 85.554688 73.578125 85.351562 73.375 83.929688 73.375 L 83.929688 73.039062 L 92.722656 73.039062 L 93.128906 75.132812 L 92.855469 75.132812 C 92.042969 74.117188 91.503906 73.511719 89.742188 73.511719 L 88.1875 73.511719 C 87.242188 73.511719 87.105469 73.574219 87.105469 74.253906 L 87.105469 78.234375 L 89 78.234375 C 90.554688 78.234375 90.757812 77.964844 91.027344 76.613281 L 91.433594 76.613281 L 91.433594 80.597656 L 91.027344 80.597656 C 90.824219 79.179688 90.488281 78.84375 89.203125 78.84375 L 87.175781 78.84375 L 87.175781 83.433594 C 87.175781 84.042969 87.445312 84.175781 88.324219 84.175781 L 90.757812 84.175781 C 92.515625 84.175781 92.855469 83.839844 94.003906 81.882812 L 94.34375 81.882812 C 94.085938 82.769531 93.882812 83.671875 93.734375 84.582031 L 83.796875 84.582031 " fill-opacity="1" fill-rule="nonzero"/><g clip-path="url(#7c03aada8d)"><path fill="#9a7e17" d="M 99.148438 75.941406 C 103.136719 75.941406 104.828125 75.132812 104.828125 72.160156 C 104.828125 69.730469 102.863281 68.515625 100.835938 68.515625 C 99.347656 68.515625 99.082031 68.851562 99.082031 69.863281 M 94.683594 84.042969 C 96.578125 84.042969 96.914062 83.703125 96.914062 81.679688 C 96.914062 77.765625 97.050781 74.453125 96.980469 70.742188 C 96.980469 68.714844 96.640625 68.378906 95.019531 68.378906 L 95.019531 67.839844 L 100.160156 67.839844 C 104.417969 67.839844 107.261719 69.121094 107.261719 72.160156 C 107.261719 75.132812 104.148438 75.941406 103.339844 76.144531 L 107.667969 82.558594 C 108.34375 83.574219 109.015625 83.976562 109.96875 83.976562 L 109.96875 84.519531 L 107.058594 84.519531 C 106.789062 84.519531 106.585938 84.453125 105.976562 83.574219 L 101.445312 76.550781 L 99.148438 76.550781 L 99.148438 81.683594 C 99.148438 83.710938 99.484375 84.046875 101.445312 84.046875 L 101.445312 84.589844 L 94.683594 84.589844 Z M 94.683594 84.042969 " fill-opacity="1" fill-rule="nonzero"/></g><path fill="#144c3d" d="M 57.289062 50.285156 C 60.804688 50.285156 60.875 47.515625 60.875 47.515625 C 60.914062 46.945312 60.871094 46.382812 60.738281 45.828125 C 60.660156 45.640625 60.570312 45.460938 60.46875 45.289062 C 60.402344 45.894531 60.261719 46.503906 60.261719 46.773438 C 60.269531 47.554688 60.066406 48.273438 59.65625 48.9375 C 59.390625 49.277344 59.058594 49.53125 58.664062 49.699219 C 58.265625 49.867188 57.851562 49.929688 57.421875 49.882812 C 56.542969 49.816406 55.53125 48.867188 55.800781 47.921875 C 55.960938 48.339844 56.226562 48.671875 56.601562 48.917969 C 56.972656 49.164062 57.382812 49.28125 57.828125 49.269531 C 59.996094 49.269531 59.925781 46.503906 58.84375 45.355469 C 57.894531 44.34375 54.921875 44.34375 54.785156 46.167969 C 54.515625 43.601562 59.25 43.128906 59.789062 45.558594 C 60.058594 45.355469 59.992188 44.882812 59.925781 44.546875 C 59.449219 44.007812 58.640625 43.535156 57.015625 43.535156 C 56.828125 43.515625 56.640625 43.515625 56.453125 43.539062 C 56.265625 43.558594 56.082031 43.601562 55.902344 43.664062 C 55.722656 43.726562 55.554688 43.808594 55.390625 43.90625 C 55.230469 44.007812 55.082031 44.121094 54.945312 44.253906 C 54.8125 44.386719 54.691406 44.53125 54.589844 44.6875 C 54.484375 44.847656 54.398438 45.015625 54.332031 45.191406 C 54.265625 45.371094 54.21875 45.550781 54.195312 45.738281 C 54.167969 45.925781 54.160156 46.113281 54.175781 46.300781 L 54.113281 46.773438 C 54.246094 46.640625 53.773438 50.285156 57.289062 50.285156 M 42.953125 51.164062 C 42.722656 50.941406 42.632812 50.671875 42.683594 50.351562 L 43.089844 47.988281 C 43.128906 47.832031 43.128906 47.675781 43.089844 47.515625 C 42.976562 47.210938 42.933594 46.898438 42.953125 46.570312 C 42.976562 46.019531 43.160156 45.523438 43.496094 45.085938 C 44.035156 44.34375 44.105469 44.546875 44.105469 44.546875 C 44.183594 44.855469 44.226562 45.171875 44.238281 45.492188 L 44.375 47.382812 C 45.082031 47.632812 45.804688 47.675781 46.539062 47.515625 C 46.808594 47.453125 46.945312 47.3125 46.878906 47.246094 C 46.777344 47.054688 46.707031 46.851562 46.671875 46.640625 L 46.335938 44.207031 C 49.785156 39.480469 53.636719 39.414062 53.636719 39.414062 C 53.769531 39.417969 53.882812 39.371094 53.976562 39.28125 C 54.070312 39.1875 54.113281 39.074219 54.109375 38.941406 L 54.109375 28.542969 C 54.339844 28.710938 54.476562 28.9375 54.515625 29.21875 L 54.921875 39.277344 C 56.746094 39.277344 60.871094 41.03125 60.871094 41.03125 C 57.355469 39.882812 55.53125 40.289062 55.53125 40.289062 C 55.261719 40.355469 55.058594 40.492188 55.058594 40.628906 C 55.058594 40.761719 54.921875 40.832031 54.789062 40.898438 C 54.703125 40.886719 54.636719 40.847656 54.582031 40.785156 C 54.53125 40.71875 54.507812 40.644531 54.515625 40.558594 C 52.488281 40.832031 52.828125 41.503906 52.828125 41.503906 C 52.960938 41.773438 52.960938 41.976562 52.890625 42.046875 C 52.699219 42.148438 52.496094 42.191406 52.28125 42.179688 L 50.726562 42.246094 C 50.417969 42.265625 50.171875 42.402344 49.984375 42.648438 C 49.847656 42.851562 49.917969 42.988281 50.1875 42.988281 L 53.5 42.851562 C 56.476562 40.355469 60.128906 42.515625 60.128906 42.515625 C 60.332031 42.648438 60.332031 42.648438 60.128906 42.578125 C 60.128906 42.578125 57.355469 41.296875 54.855469 42.375 C 54.164062 42.644531 53.582031 43.058594 53.101562 43.621094 C 52.621094 44.183594 52.304688 44.824219 52.148438 45.546875 C 52.148438 45.816406 52.015625 46.019531 51.878906 46.019531 L 51.203125 46.019531 C 51.136719 46.289062 51.335938 46.425781 51.609375 46.425781 L 51.8125 46.425781 C 52.117188 46.359375 52.320312 46.179688 52.421875 45.886719 C 52.558594 45.378906 52.777344 44.910156 53.074219 44.476562 C 53.375 44.042969 53.734375 43.667969 54.15625 43.355469 C 54.582031 43.042969 55.042969 42.808594 55.546875 42.652344 C 56.046875 42.496094 56.5625 42.425781 57.085938 42.441406 C 60.875 42.441406 61.550781 44.667969 62.023438 45.546875 C 62.496094 46.359375 62.902344 46.695312 63.371094 46.761719 C 63.671875 46.808594 63.964844 46.875 64.253906 46.96875 C 64.53125 47.109375 64.800781 47.269531 65.0625 47.441406 C 65.421875 47.648438 65.804688 47.78125 66.214844 47.84375 C 66.910156 47.949219 67.605469 47.992188 68.308594 47.980469 C 68.714844 47.980469 68.308594 48.453125 68.308594 48.453125 C 68.027344 48.429688 67.757812 48.476562 67.496094 48.585938 L 67.566406 48.925781 C 67.648438 48.96875 67.695312 49.035156 67.699219 49.128906 C 67.699219 49.128906 67.566406 49.191406 67.429688 49.667969 L 67.363281 50.140625 C 67.429688 50.277344 67.226562 50.414062 66.957031 50.414062 L 66.011719 50.414062 C 65.726562 50.539062 65.457031 50.515625 65.199219 50.347656 L 64.121094 49.609375 C 63.902344 49.484375 63.675781 49.371094 63.445312 49.269531 C 63.3125 49.269531 63.109375 49.066406 63.039062 48.867188 C 62.960938 48.644531 62.804688 48.53125 62.566406 48.527344 C 62.363281 48.527344 62.230469 48.324219 62.160156 48.058594 L 62.09375 47.652344 C 62.027344 47.382812 61.890625 47.179688 61.753906 47.179688 C 61.621094 47.179688 61.550781 47.382812 61.550781 47.652344 C 61.550781 47.652344 61.820312 51.027344 57.425781 51.027344 C 53.027344 51.027344 53.773438 45.894531 53.773438 45.894531 C 53.300781 45.960938 53.230469 46.164062 53.230469 46.164062 C 53.152344 46.476562 53.109375 46.789062 53.097656 47.109375 L 53.097656 47.246094 C 52.792969 47.234375 52.546875 47.347656 52.355469 47.582031 C 52.160156 47.816406 52.066406 48.085938 52.082031 48.394531 L 52.289062 50.824219 C 52.289062 51.09375 52.082031 51.296875 51.882812 51.226562 C 51.683594 51.191406 51.5 51.238281 51.339844 51.363281 C 51.160156 51.503906 50.957031 51.59375 50.730469 51.632812 C 50.671875 51.648438 50.613281 51.648438 50.550781 51.636719 C 50.492188 51.621094 50.4375 51.59375 50.390625 51.554688 C 50.34375 51.511719 50.308594 51.464844 50.285156 51.40625 C 50.261719 51.347656 50.253906 51.289062 50.257812 51.226562 L 50.257812 50.488281 C 50.257812 50.21875 50.054688 50.082031 49.855469 50.21875 L 47.148438 51.636719 C 47.101562 51.671875 47.050781 51.691406 46.992188 51.703125 C 46.933594 51.710938 46.878906 51.703125 46.820312 51.683594 C 46.765625 51.664062 46.71875 51.628906 46.683594 51.585938 C 46.644531 51.539062 46.621094 51.488281 46.609375 51.429688 L 46.269531 50.148438 C 46.234375 50.015625 46.15625 49.917969 46.039062 49.851562 C 45.917969 49.785156 45.792969 49.769531 45.660156 49.808594 L 45.457031 49.875 C 45.324219 49.898438 45.214844 49.960938 45.125 50.0625 C 45.035156 50.164062 44.988281 50.28125 44.984375 50.414062 L 45.046875 54.0625 C 44.792969 54.054688 44.542969 54.097656 44.304688 54.195312 C 44.035156 54.332031 43.898438 54.195312 43.898438 53.925781 L 43.964844 52.371094 C 43.953125 52.058594 43.839844 51.789062 43.625 51.5625 Z M 62.15625 70.675781 L 62.023438 66.289062 C 62.035156 65.96875 62.011719 65.65625 61.953125 65.34375 C 61.953125 65.34375 61.820312 62.238281 60.605469 62.238281 C 59.386719 62.171875 59.386719 63.183594 59.386719 63.183594 L 59.386719 64.128906 C 59.386719 64.128906 59.386719 67.976562 59.320312 70.675781 C 60.269531 70.742188 61.214844 70.742188 62.164062 70.675781 Z M 55.9375 70.746094 L 55.9375 69.460938 C 55.9375 69.460938 56.207031 62.035156 54.652344 62.035156 C 53.300781 62.035156 53.164062 67.503906 53.097656 70.613281 C 54.039062 70.722656 54.988281 70.769531 55.9375 70.742188 Z M 47.621094 70.476562 C 48.5 70.539062 49.375 70.609375 50.324219 70.609375 C 50.054688 66.289062 49.714844 64.261719 49.445312 63.65625 C 49.105469 62.84375 48.835938 63.789062 48.835938 63.789062 L 48.429688 63.789062 C 48.429688 63.789062 47.957031 63.316406 47.890625 63.382812 C 47.753906 63.449219 47.6875 63.722656 47.6875 63.992188 Z M 91.777344 64.128906 C 91.777344 66.355469 86.097656 68.382812 77.441406 69.597656 C 84.539062 68.382812 89.070312 66.558594 89.070312 64.601562 C 89.070312 61.898438 80.753906 59.535156 68.785156 58.523438 C 68.71875 58.585938 68.652344 58.726562 68.582031 58.792969 C 68.359375 59.242188 68.269531 59.714844 68.3125 60.210938 C 68.3125 60.480469 68.378906 60.886719 68.378906 61.15625 C 68.378906 61.15625 68.378906 62.441406 68.3125 62.910156 C 68.253906 63.5 68.277344 64.082031 68.378906 64.664062 C 68.429688 64.980469 68.339844 65.25 68.109375 65.476562 C 67.902344 65.609375 67.769531 66.015625 67.636719 66.21875 L 66.890625 68.511719 C 66.824219 68.785156 66.757812 68.785156 66.757812 68.511719 L 66.550781 65.136719 C 66.550781 64.867188 66.484375 64.460938 66.484375 64.191406 C 66.484375 64.191406 66.414062 62.84375 65.808594 62.976562 C 65.265625 63.039062 65.199219 64.058594 65.199219 64.058594 C 65.199219 64.328125 65.0625 64.460938 64.929688 64.394531 C 64.792969 64.328125 64.589844 64.457031 64.457031 64.664062 L 64.320312 64.800781 C 64.179688 65.074219 64.109375 65.367188 64.113281 65.675781 C 64.113281 65.675781 64.113281 68.105469 64.183594 70.605469 C 69.050781 70.398438 73.515625 70.0625 77.4375 69.523438 C 70.066406 70.664062 62.648438 71.207031 55.1875 71.144531 C 36.457031 71.144531 21.3125 68.175781 21.3125 64.460938 C 21.3125 62.230469 26.921875 60.207031 35.578125 59.058594 C 28.410156 60.273438 23.945312 62.097656 23.945312 64.121094 C 23.945312 66.753906 31.789062 69.050781 43.148438 70.128906 C 43.214844 67.226562 43.351562 64.257812 43.351562 64.257812 C 43.351562 63.984375 42.746094 63.3125 42.746094 63.109375 C 42.78125 62.828125 42.847656 62.558594 42.949219 62.296875 L 43.421875 60.609375 C 43.484375 60.320312 43.441406 60.050781 43.289062 59.800781 L 42.40625 58.71875 C 42.300781 58.621094 42.210938 58.507812 42.136719 58.382812 C 39.839844 58.585938 37.605469 58.785156 35.648438 59.125 C 37.609375 58.785156 39.703125 58.515625 42.003906 58.246094 L 41.800781 58.042969 L 41.460938 57.773438 C 41.234375 57.550781 41.121094 57.28125 41.125 56.960938 C 41.125 56.960938 41.1875 53.585938 53.902344 53.585938 C 68.238281 53.585938 69.183594 55.679688 69.660156 56.015625 C 69.796875 56.132812 69.882812 56.277344 69.921875 56.453125 C 69.960938 56.628906 69.941406 56.796875 69.863281 56.960938 C 69.730469 57.230469 69.59375 57.433594 69.457031 57.433594 C 69.390625 57.433594 69.253906 57.566406 69.1875 57.769531 C 82.308594 58.71875 91.777344 61.21875 91.777344 64.125 Z M 55.53125 10.175781 C 55.316406 10.402344 55.203125 10.671875 55.191406 10.984375 L 55.257812 17.601562 C 55.234375 17.910156 55.097656 18.15625 54.851562 18.34375 C 54.347656 18.695312 53.917969 19.125 53.566406 19.628906 C 53.160156 20.300781 52.957031 20.371094 52.957031 20.371094 C 52.648438 20.464844 52.445312 20.667969 52.351562 20.976562 L 52.011719 21.988281 C 51.875 22.394531 52.28125 23.335938 51.066406 24.824219 C 50.28125 25.804688 49.265625 26.390625 48.023438 26.582031 C 47.292969 26.40625 46.726562 26.003906 46.332031 25.363281 C 46.332031 25.363281 47.617188 25.09375 48.226562 22.527344 C 48.902344 19.960938 51.132812 17.464844 51.132812 17.464844 C 51.355469 17.234375 51.558594 16.988281 51.742188 16.722656 C 51.742188 16.722656 54.515625 12.808594 54.785156 10.578125 C 54.445312 10.320312 54.242188 9.984375 54.175781 9.566406 C 54.164062 9.367188 54.222656 9.195312 54.355469 9.050781 C 54.492188 8.90625 54.65625 8.828125 54.855469 8.828125 C 55.058594 8.828125 55.734375 9.03125 55.734375 9.5 C 55.730469 9.746094 55.664062 9.96875 55.53125 10.175781 Z M 55.53125 10.175781 " fill-opacity="1" fill-rule="nonzero"/><path stroke-linecap="butt" transform="matrix(0.642599, 0, 0, 0.641631, -25.849291, 8.762686)" fill="none" stroke-linejoin="miter" d="M 129.378376 64.71397 C 134.849327 64.71397 134.958746 60.397576 134.958746 60.397576 C 135.019534 59.508727 134.952667 58.632055 134.745987 57.767558 C 134.630489 57.475334 134.490676 57.195286 134.326547 56.927414 C 134.223207 57.871054 134.010448 58.820783 134.010448 59.240855 C 134.016526 60.458456 133.706506 61.578648 133.062149 62.613609 C 132.648789 63.143265 132.132088 63.538985 131.518126 63.80077 C 130.898084 64.062554 130.253728 64.159962 129.585056 64.086906 C 128.217318 63.98341 126.6429 62.504025 127.06234 61.030728 C 127.311572 61.682144 127.731012 62.199625 128.308501 62.583169 C 128.88599 62.966713 129.524268 63.149353 130.217255 63.131089 C 133.591008 63.131089 133.481589 58.820783 131.797752 57.03091 C 130.326674 55.454117 125.694602 55.454117 125.481843 58.297214 C 125.062403 54.297396 132.429951 53.560748 133.26883 57.347486 C 133.688269 57.03091 133.584929 56.294261 133.481589 55.770693 C 132.74605 54.930548 131.481653 54.1939 128.952857 54.1939 C 128.661073 54.16346 128.369289 54.16346 128.077505 54.199988 C 127.785721 54.230428 127.500016 54.297396 127.22039 54.394804 C 126.940763 54.492212 126.679373 54.62006 126.424062 54.77226 C 126.17483 54.930548 125.943834 55.107101 125.737154 55.314093 C 125.524395 55.521085 125.335951 55.746341 125.177901 55.989861 C 125.013773 56.239469 124.886117 56.501253 124.776698 56.775214 C 124.673358 57.055262 124.606491 57.33531 124.563939 57.627534 C 124.521387 57.919758 124.50923 58.211982 124.533545 58.504207 L 124.436283 59.240855 C 124.642964 59.027775 123.907425 64.71397 129.378376 64.71397 Z M 107.069054 66.077683 C 106.710402 65.730667 106.570589 65.310595 106.649614 64.817466 L 107.281813 61.134224 C 107.336522 60.890704 107.336522 60.641096 107.281813 60.397576 C 107.105527 59.922711 107.038659 59.429583 107.069054 58.924279 C 107.105527 58.06587 107.385153 57.292694 107.914012 56.610837 C 108.752891 55.454117 108.856231 55.764605 108.856231 55.764605 C 108.977808 56.251645 109.050754 56.738686 109.06899 57.237902 L 109.281749 60.184496 C 110.382018 60.574128 111.506603 60.647184 112.649424 60.397576 C 113.068863 60.29408 113.281622 60.080999 113.172203 59.977503 C 113.020233 59.679191 112.910813 59.362615 112.856104 59.027775 L 112.333324 55.241037 C 117.700935 47.874552 123.700745 47.771056 123.700745 47.771056 C 123.907425 47.777144 124.083711 47.704088 124.223524 47.557976 C 124.369416 47.411864 124.442362 47.2414 124.436283 47.034408 L 124.436283 30.828142 C 124.788856 31.089927 125.001615 31.443031 125.068482 31.881367 L 125.700681 47.557976 C 128.539497 47.557976 134.958746 50.29149 134.958746 50.29149 C 129.487795 48.501617 126.6429 49.134769 126.6429 49.134769 C 126.223461 49.238265 125.907361 49.451345 125.907361 49.664425 C 125.907361 49.871418 125.700681 49.981002 125.487922 50.084498 C 125.360266 50.066234 125.250847 50.005354 125.171822 49.907946 C 125.086719 49.80445 125.056325 49.688777 125.068482 49.554841 C 121.907488 49.981002 122.436347 51.028138 122.436347 51.028138 C 122.649106 51.44821 122.649106 51.764787 122.539687 51.874371 C 122.241824 52.032659 121.925725 52.099627 121.591389 52.081363 L 119.172013 52.184859 C 118.691785 52.215299 118.30274 52.428379 118.010956 52.811923 C 117.804275 53.128499 117.913694 53.34158 118.333134 53.34158 L 123.487985 53.128499 C 128.113978 49.238265 133.797688 52.604931 133.797688 52.604931 C 134.119867 52.811923 134.119867 52.811923 133.797688 52.702339 C 133.797688 52.702339 129.487795 50.705474 125.591262 52.385763 C 124.521387 52.805835 123.609562 53.451164 122.867944 54.327836 C 122.120248 55.204509 121.627862 56.202941 121.384709 57.329222 C 121.384709 57.749294 121.171949 58.06587 120.95919 58.06587 L 119.907552 58.06587 C 119.810291 58.485943 120.120311 58.699023 120.539751 58.699023 L 120.861929 58.699023 C 121.336078 58.595527 121.652177 58.315478 121.804148 57.858878 C 122.022986 57.067438 122.363401 56.336877 122.825392 55.661109 C 123.287384 54.985341 123.846637 54.400892 124.50923 53.913852 C 125.165744 53.426812 125.883046 53.061531 126.667216 52.818011 C 127.451385 52.574491 128.247713 52.464907 129.068355 52.489259 C 134.958746 52.489259 136.010384 55.959421 136.752002 57.329222 C 137.487541 58.595527 138.11974 59.119095 138.8492 59.222591 C 139.311191 59.295647 139.767104 59.399143 140.216938 59.545255 C 140.648535 59.764423 141.074053 60.014031 141.481335 60.281904 C 142.034509 60.604568 142.630235 60.81156 143.268512 60.908968 C 144.350545 61.073344 145.438656 61.140312 146.532847 61.122048 C 147.158966 61.122048 146.532847 61.858697 146.532847 61.858697 C 146.09517 61.822168 145.669652 61.895225 145.268449 62.065689 L 145.371789 62.595345 C 145.505524 62.662313 145.572391 62.765809 145.584548 62.911921 C 145.584548 62.911921 145.371789 63.009329 145.165109 63.752066 L 145.05569 64.488714 C 145.165109 64.701794 144.849009 64.914874 144.423491 64.914874 L 142.952413 64.914874 C 142.514737 65.10969 142.089219 65.073162 141.688016 64.811378 L 140.004178 63.654658 C 139.663764 63.459841 139.31727 63.283289 138.95254 63.131089 C 138.74586 63.131089 138.42976 62.808425 138.320341 62.497937 C 138.198765 62.150921 137.955611 61.974369 137.584802 61.974369 C 137.268703 61.974369 137.062023 61.651704 136.952604 61.23772 L 136.849263 60.604568 C 136.745923 60.184496 136.533164 59.867919 136.320405 59.867919 C 136.113724 59.867919 136.004305 60.184496 136.004305 60.604568 C 136.004305 60.604568 136.423745 65.864603 129.585056 65.864603 C 122.740289 65.864603 123.901346 57.864966 123.901346 57.864966 C 123.165807 57.968462 123.056388 58.285038 123.056388 58.285038 C 122.934811 58.772079 122.867944 59.265207 122.849708 59.758335 L 122.849708 59.971415 C 122.375559 59.959239 121.992592 60.129704 121.68865 60.494984 C 121.384709 60.866352 121.244895 61.286424 121.269211 61.761288 L 121.58531 65.548027 C 121.58531 65.968099 121.269211 66.284675 120.95919 66.181179 C 120.643091 66.126387 120.363464 66.193355 120.114232 66.388171 C 119.834606 66.613427 119.518506 66.753451 119.165934 66.808243 C 119.074752 66.832595 118.983569 66.832595 118.886308 66.814331 C 118.795125 66.789979 118.710021 66.747363 118.637075 66.686483 C 118.564129 66.625603 118.50942 66.546459 118.472947 66.455139 C 118.436474 66.369907 118.424316 66.272499 118.430395 66.181179 L 118.430395 65.030546 C 118.430395 64.610474 118.114296 64.397394 117.798196 64.610474 L 113.591643 66.820419 C 113.518697 66.875211 113.439672 66.905651 113.34849 66.923915 C 113.257307 66.936091 113.166125 66.923915 113.081021 66.893475 C 112.995917 66.863035 112.922971 66.808243 112.868262 66.741275 C 112.807473 66.668219 112.764921 66.589075 112.752764 66.497755 L 112.223905 64.50089 C 112.169196 64.293898 112.047619 64.141698 111.859175 64.038202 C 111.67681 63.934706 111.482287 63.910354 111.275607 63.971234 L 110.959508 64.07473 C 110.752827 64.111258 110.58262 64.208666 110.442807 64.366954 C 110.302994 64.525242 110.230048 64.707882 110.223969 64.914874 L 110.32123 70.60107 C 109.920027 70.588894 109.53706 70.655862 109.166251 70.808062 C 108.746812 71.021142 108.534053 70.808062 108.534053 70.387989 L 108.637393 67.964964 C 108.619156 67.477924 108.44287 67.057852 108.108534 66.704747 Z M 136.952604 96.493349 L 136.745923 89.650433 C 136.76416 89.157304 136.727687 88.664176 136.636504 88.177136 C 136.636504 88.177136 136.429824 83.337173 134.539306 83.337173 C 132.64271 83.239765 132.64271 84.81047 132.64271 84.81047 L 132.64271 86.283767 C 132.64271 86.283767 132.64271 92.286538 132.53937 96.493349 C 134.010448 96.596845 135.487604 96.596845 136.958682 96.493349 Z M 127.275099 96.596845 L 127.275099 94.59998 C 127.275099 94.59998 127.694539 83.026685 125.275163 83.026685 C 123.171886 83.026685 122.959127 91.54989 122.849708 96.389853 C 124.320786 96.566405 125.791864 96.633373 127.275099 96.596845 Z M 114.327182 96.176773 C 115.700998 96.274181 117.062657 96.389853 118.539814 96.389853 C 118.120375 89.650433 117.591516 86.496847 117.172076 85.547118 C 116.643218 84.286902 116.223778 85.760198 116.223778 85.760198 L 115.591579 85.760198 C 115.591579 85.760198 114.85604 85.02355 114.7527 85.127046 C 114.539941 85.224454 114.430522 85.650614 114.430522 86.076775 Z M 183.048405 86.283767 C 183.048405 89.760017 174.20978 92.913603 160.739082 94.806972 C 171.784325 92.913603 178.835772 90.070505 178.835772 87.020415 C 178.835772 82.813605 165.893934 79.130363 147.268385 77.547482 C 147.158966 77.650978 147.055626 77.870146 146.952286 77.973642 C 146.605793 78.667674 146.465979 79.404323 146.526768 80.183587 C 146.526768 80.603659 146.636187 81.230724 146.636187 81.656884 C 146.636187 81.656884 146.636187 83.653749 146.526768 84.390398 C 146.441664 85.303598 146.478137 86.216799 146.636187 87.123911 C 146.715212 87.61704 146.575398 88.037112 146.216747 88.384128 C 145.894569 88.597208 145.687889 89.224272 145.475129 89.540849 L 144.320151 93.120595 C 144.216811 93.540667 144.107392 93.540667 144.107392 93.120595 L 143.791292 87.86056 C 143.791292 87.434399 143.687952 86.807335 143.687952 86.387263 C 143.687952 86.387263 143.578533 84.286902 142.636314 84.493894 C 141.791356 84.591302 141.688016 86.174183 141.688016 86.174183 C 141.688016 86.594255 141.475256 86.807335 141.268576 86.703839 C 141.055817 86.594255 140.739717 86.801247 140.526958 87.123911 L 140.320278 87.330903 C 140.10144 87.763152 139.992021 88.219752 139.9981 88.700704 C 139.9981 88.700704 139.9981 92.487442 140.107519 96.383765 C 147.681746 96.0611 154.629854 95.537532 160.733004 94.697388 C 149.256164 96.475085 137.718537 97.321317 126.107963 97.223909 C 96.959952 97.223909 73.386232 92.597026 73.386232 86.807335 C 73.386232 83.331085 82.121517 80.177499 95.586135 78.387626 C 84.431474 80.280995 77.489445 83.124093 77.489445 86.277679 C 77.489445 90.380993 89.695745 93.960739 107.372995 95.641028 C 107.470257 91.117642 107.689095 86.490759 107.689095 86.490759 C 107.689095 86.064599 106.746875 85.017462 106.746875 84.700886 C 106.801585 84.26255 106.904925 83.842477 107.062975 83.434581 L 107.798514 80.804564 C 107.895775 80.354051 107.828908 79.933979 107.585755 79.544347 L 106.218017 77.85797 C 106.053888 77.70577 105.914075 77.529218 105.798577 77.334402 C 102.218144 77.650978 98.747129 77.961466 95.701633 78.491122 C 98.753208 77.961466 102.011463 77.541394 105.591897 77.121321 L 105.275797 76.804745 L 104.746939 76.384673 C 104.394366 76.037657 104.21808 75.617585 104.21808 75.118368 C 104.21808 75.118368 104.32142 69.858333 124.108026 69.858333 C 146.417349 69.858333 147.888427 73.121503 148.630044 73.645071 C 148.842804 73.827711 148.976538 74.052968 149.037326 74.326928 C 149.092036 74.600888 149.06772 74.862672 148.946144 75.118368 C 148.733385 75.53844 148.526704 75.855017 148.313945 75.855017 C 148.210605 75.855017 147.997846 76.062009 147.894505 76.378585 C 168.31331 77.85797 183.048405 81.754292 183.048405 86.283767 Z M 126.6429 2.20235 C 126.308564 2.555454 126.132278 2.975526 126.120121 3.462567 L 126.217382 13.775645 C 126.180909 14.256597 125.974229 14.640141 125.585183 14.932365 C 124.801014 15.480286 124.138421 16.149966 123.585247 16.935318 C 122.953048 17.982455 122.643027 18.092039 122.643027 18.092039 C 122.156721 18.238151 121.840621 18.554727 121.694729 19.03568 L 121.165871 20.612473 C 120.95919 21.245625 121.58531 22.712834 119.694793 25.032363 C 118.472947 26.560452 116.89245 27.473652 114.959381 27.771965 C 113.822639 27.498005 112.941208 26.87094 112.327245 25.872508 C 112.327245 25.872508 114.327182 25.452435 115.27548 21.452617 C 116.327118 17.452799 119.798133 13.562564 119.798133 13.562564 C 120.144626 13.203372 120.460726 12.819828 120.746431 12.405844 C 120.746431 12.405844 125.062403 6.305664 125.481843 2.829414 C 124.959063 2.427606 124.642964 1.904038 124.533545 1.252621 C 124.515308 0.942133 124.606491 0.674261 124.813171 0.449005 C 125.02593 0.223749 125.281241 0.108077 125.591262 0.101989 C 125.907361 0.101989 126.959 0.418565 126.959 1.149125 C 126.952921 1.532669 126.849581 1.879686 126.6429 2.20235 Z M 126.6429 2.20235 " stroke="#144c3d" stroke-width="0.184" stroke-opacity="1" stroke-miterlimit="4"/></svg>