<svg xmlns="http://www.w3.org/2000/svg" xmlns:xlink="http://www.w3.org/1999/xlink" width="576" zoomAndPan="magnify" viewBox="0 0 432 287.999989" height="384" preserveAspectRatio="xMidYMid meet" version="1.0"><defs><clipPath id="a6b06eca26"><path d="M 210 58.566406 L 216 58.566406 L 216 83 L 210 83 Z M 210 58.566406 " clip-rule="nonzero"/></clipPath><clipPath id="0fbdf93331"><path d="M 214 223 L 222 223 L 222 229.566406 L 214 229.566406 Z M 214 223 " clip-rule="nonzero"/></clipPath><clipPath id="1d94911190"><path d="M 227 141 L 286.945312 141 L 286.945312 229.566406 L 227 229.566406 Z M 227 141 " clip-rule="nonzero"/></clipPath><clipPath id="f42caf76a0"><path d="M 269 114 L 286.945312 114 L 286.945312 136 L 269 136 Z M 269 114 " clip-rule="nonzero"/></clipPath><clipPath id="c81e3af5c3"><path d="M 180 222 L 211 222 L 211 229.566406 L 180 229.566406 Z M 180 222 " clip-rule="nonzero"/></clipPath><clipPath id="3dca753470"><path d="M 145.195312 126 L 169 126 L 169 139 L 145.195312 139 Z M 145.195312 126 " clip-rule="nonzero"/></clipPath></defs><rect x="-43.2" width="518.4" fill="#ffffff" y="-28.799999" height="345.599986" fill-opacity="1"/><rect x="-43.2" width="518.4" fill="#053b60" y="-28.799999" height="345.599986" fill-opacity="1"/><path fill="#1a4d80" d="M 186.539062 149.886719 L 204.210938 149.886719 C 204.351562 149.886719 204.464844 149.921875 204.59375 149.921875 L 200.140625 144.351562 C 195.316406 145.480469 190.703125 147.367188 186.457031 149.898438 C 186.480469 149.898438 186.515625 149.886719 186.539062 149.886719 " fill-opacity="1" fill-rule="nonzero"/><path fill="#1a4d80" d="M 221.886719 196.355469 L 221.886719 149.449219 L 215.269531 157.722656 C 215.707031 158.96875 215.996094 160.277344 215.996094 161.671875 L 215.996094 194.074219 C 218.261719 194.074219 220.324219 194.949219 221.886719 196.355469 " fill-opacity="1" fill-rule="nonzero"/><path fill="#1a4d80" d="M 204.210938 155.78125 C 200.96875 155.78125 198.320312 158.425781 198.320312 161.671875 L 198.320312 164.617188 L 192.429688 164.617188 L 192.429688 161.671875 C 192.429688 159.53125 193.003906 157.515625 194.015625 155.78125 L 186.539062 155.78125 C 183.292969 155.78125 180.644531 158.425781 180.644531 161.671875 C 180.644531 164.917969 183.292969 167.5625 186.539062 167.5625 L 204.210938 167.5625 C 207.457031 167.5625 210.105469 164.917969 210.105469 161.671875 C 210.105469 158.425781 207.457031 155.78125 204.210938 155.78125 " fill-opacity="1" fill-rule="nonzero"/><path fill="#1a4d80" d="M 186.539062 173.453125 C 184.386719 173.453125 182.382812 172.832031 180.644531 171.820312 L 180.644531 197.183594 C 184.269531 198.988281 188.308594 199.96875 192.429688 199.96875 L 202.992188 199.96875 L 206.296875 196.664062 C 207.367188 195.59375 208.6875 194.871094 210.105469 194.457031 L 210.105469 171.820312 C 208.367188 172.832031 206.363281 173.453125 204.210938 173.453125 L 186.539062 173.453125 " fill-opacity="1" fill-rule="nonzero"/><path fill="#1a4d80" d="M 183.589844 104.386719 C 185.328125 103.375 187.332031 102.753906 189.484375 102.753906 L 189.484375 99.808594 L 183.589844 99.808594 L 183.589844 104.386719 " fill-opacity="1" fill-rule="nonzero"/><path fill="#1a4d80" d="M 236.617188 120.429688 C 239.863281 120.429688 242.507812 117.78125 242.507812 114.539062 C 242.507812 111.292969 239.863281 108.644531 236.617188 108.644531 L 236.617188 120.429688 " fill-opacity="1" fill-rule="nonzero"/><g clip-path="url(#a6b06eca26)"><path fill="#1a4d80" d="M 215.996094 58.714844 C 215.027344 58.625 214.050781 58.566406 213.050781 58.566406 C 212.058594 58.566406 211.070312 58.625 210.105469 58.714844 L 210.105469 82.132812 L 215.996094 82.132812 L 215.996094 58.714844 " fill-opacity="1" fill-rule="nonzero"/></g><path fill="#1a4d80" d="M 221.886719 59.914062 L 221.886719 82.132812 L 241.910156 82.132812 C 239.769531 71.441406 232.015625 63.054688 221.886719 59.914062 " fill-opacity="1" fill-rule="nonzero"/><path fill="#1a4d80" d="M 204.210938 59.914062 C 194.097656 63.054688 186.332031 71.441406 184.191406 82.132812 L 204.210938 82.132812 L 204.210938 59.914062 " fill-opacity="1" fill-rule="nonzero"/><path fill="#1a4d80" d="M 248.398438 93.917969 L 248.398438 88.023438 L 177.699219 88.023438 L 177.699219 93.917969 L 248.398438 93.917969 " fill-opacity="1" fill-rule="nonzero"/><path fill="#1a4d80" d="M 242.507812 99.808594 L 236.617188 99.808594 L 236.617188 102.753906 C 238.769531 102.753906 240.769531 103.375 242.507812 104.386719 L 242.507812 99.808594 " fill-opacity="1" fill-rule="nonzero"/><g clip-path="url(#0fbdf93331)"><path fill="#1a4d80" d="M 214.363281 229.425781 L 221.886719 229.425781 L 221.886719 223.535156 L 215.996094 223.535156 C 215.996094 225.6875 215.375 227.6875 214.363281 229.425781 " fill-opacity="1" fill-rule="nonzero"/></g><path fill="#1a4d80" d="M 227.777344 208.804688 C 227.777344 207.183594 226.457031 205.859375 224.832031 205.859375 L 218.941406 205.859375 L 218.941406 202.914062 C 218.941406 201.289062 217.617188 199.96875 215.996094 199.96875 L 212.542969 199.96875 C 211.773438 199.96875 211.011719 200.277344 210.460938 200.832031 L 207.160156 204.132812 L 207.160156 217.640625 L 224.832031 217.640625 C 226.457031 217.640625 227.777344 216.320312 227.777344 214.695312 L 227.777344 208.804688 " fill-opacity="1" fill-rule="nonzero"/><path fill="#1a4d80" d="M 189.484375 120.429688 L 189.484375 108.644531 C 186.238281 108.644531 183.589844 111.292969 183.589844 114.539062 C 183.589844 117.78125 186.238281 120.429688 189.484375 120.429688 " fill-opacity="1" fill-rule="nonzero"/><g clip-path="url(#1d94911190)"><path fill="#1a4d80" d="M 269 188.527344 L 263.152344 187.839844 L 264.488281 176.492188 L 264.039062 175.515625 C 257.144531 160.347656 243.75 149.070312 227.777344 144.777344 L 227.777344 200.507812 C 231.195312 201.726562 233.671875 204.972656 233.671875 208.804688 L 233.671875 214.695312 C 233.671875 218.527344 231.195312 221.773438 227.777344 222.992188 L 227.777344 229.425781 L 245.453125 229.425781 L 245.453125 173.453125 L 251.347656 173.453125 L 251.347656 184.546875 L 254.339844 190.519531 C 257.25 196.355469 263.105469 199.96875 269.621094 199.96875 C 279.03125 199.96875 286.695312 192.304688 286.695312 182.890625 L 286.695312 141.050781 L 274.589844 141.050781 L 269 188.527344 " fill-opacity="1" fill-rule="nonzero"/></g><g clip-path="url(#f42caf76a0)"><path fill="#1a4d80" d="M 283.75 114.539062 L 277.859375 114.539062 C 276.234375 114.539062 274.914062 115.859375 274.914062 117.484375 L 274.914062 123.375 L 271.96875 123.375 C 270.34375 123.375 269.019531 124.699219 269.019531 126.320312 L 269.019531 129.773438 C 269.019531 130.554688 269.332031 131.304688 269.882812 131.855469 L 273.1875 135.160156 L 286.695312 135.160156 L 286.695312 117.484375 C 286.695312 115.859375 285.371094 114.539062 283.75 114.539062 " fill-opacity="1" fill-rule="nonzero"/></g><g clip-path="url(#c81e3af5c3)"><path fill="#1a4d80" d="M 180.644531 222.28125 L 180.644531 223.535156 C 180.644531 226.777344 183.292969 229.425781 186.539062 229.425781 L 204.210938 229.425781 C 207.457031 229.425781 210.105469 226.777344 210.105469 223.535156 L 189.484375 223.535156 C 186.421875 223.535156 183.464844 223.074219 180.644531 222.28125 " fill-opacity="1" fill-rule="nonzero"/></g><path fill="#1a4d80" d="M 201.265625 217.640625 L 201.265625 205.859375 L 192.429688 205.859375 C 182.292969 205.859375 172.589844 201.015625 166.503906 192.902344 L 171.222656 189.359375 C 172.269531 190.761719 173.464844 192.003906 174.753906 193.15625 L 174.753906 189.359375 L 165.546875 175.570312 C 163.84375 180.554688 162.96875 185.765625 162.96875 191.128906 C 162.96875 205.742188 174.867188 217.640625 189.484375 217.640625 L 201.265625 217.640625 " fill-opacity="1" fill-rule="nonzero"/><path fill="#1a4d80" d="M 230.726562 120.429688 L 230.726562 99.808594 L 195.375 99.808594 L 195.375 120.429688 C 195.375 125.308594 199.34375 129.265625 204.210938 129.265625 L 221.886719 129.265625 C 226.765625 129.265625 230.726562 125.308594 230.726562 120.429688 " fill-opacity="1" fill-rule="nonzero"/><path fill="#1a4d80" d="M 221.53125 140.464844 L 219.769531 135.160156 L 206.339844 135.160156 L 204.570312 140.464844 L 213.050781 151.0625 L 221.53125 140.464844 " fill-opacity="1" fill-rule="nonzero"/><path fill="#1a4d80" d="M 174.753906 161.671875 C 174.753906 159.1875 175.535156 156.894531 176.847656 154.996094 L 171.246094 137.585938 C 168.503906 140.28125 164.398438 142.363281 159.65625 143.363281 C 157.664062 143.789062 155.710938 143.996094 153.855469 143.996094 C 153.039062 143.996094 152.246094 143.9375 151.476562 143.871094 L 174.753906 178.738281 L 174.753906 161.671875 " fill-opacity="1" fill-rule="nonzero"/><g clip-path="url(#3dca753470)"><path fill="#1a4d80" d="M 158.4375 137.609375 C 162.855469 136.667969 166.699219 134.480469 168.253906 132.039062 C 168.722656 131.292969 168.875 130.636719 168.804688 130.027344 L 168.515625 129.128906 C 167.550781 127.632812 164.582031 126.308594 160.414062 126.308594 C 158.988281 126.308594 157.414062 126.460938 155.734375 126.816406 C 151.3125 127.757812 147.457031 129.945312 145.90625 132.386719 C 145.386719 133.226562 145.191406 133.972656 145.351562 134.628906 C 145.363281 134.710938 145.445312 134.800781 145.480469 134.882812 L 146.054688 135.757812 C 147.757812 137.550781 152.347656 138.898438 158.4375 137.609375 " fill-opacity="1" fill-rule="nonzero"/></g></svg>