<svg xmlns="http://www.w3.org/2000/svg" xmlns:xlink="http://www.w3.org/1999/xlink" width="150" zoomAndPan="magnify" viewBox="0 0 112.5 112.499997" height="150" preserveAspectRatio="xMidYMid meet" version="1.0"><defs><clipPath id="93d60be552"><path d="M 2.515625 75 L 12 75 L 12 85 L 2.515625 85 Z M 2.515625 75 " clip-rule="nonzero"/></clipPath><clipPath id="526544d3e5"><path d="M 16 77 L 24 77 L 24 87.226562 L 16 87.226562 Z M 16 77 " clip-rule="nonzero"/></clipPath><clipPath id="718b4d73cb"><path d="M 2.515625 0 L 109.289062 0 L 109.289062 66 L 2.515625 66 Z M 2.515625 0 " clip-rule="nonzero"/></clipPath><clipPath id="1a7f932259"><path d="M 41 9 L 71 9 L 71 46 L 41 46 Z M 41 9 " clip-rule="nonzero"/></clipPath><clipPath id="97bdd4b687"><path d="M 56.003906 45.714844 C 61.929688 36.953125 69.875 27.179688 70.011719 26.976562 C 68.867188 26.777344 67.519531 25.496094 66.84375 24.214844 C 66.238281 23 66.238281 21.183594 66.171875 19.699219 C 66.105469 18.890625 66.171875 14.847656 66.171875 14.847656 C 60.246094 16.398438 57.28125 11.410156 56.003906 9.117188 C 54.722656 11.410156 51.761719 16.398438 45.832031 14.847656 C 45.832031 14.847656 45.902344 18.890625 45.832031 19.699219 C 45.765625 21.25 45.765625 23 45.160156 24.214844 C 44.554688 25.5625 43.207031 26.777344 41.996094 26.976562 C 41.996094 26.976562 49.941406 36.882812 56.003906 45.714844 Z M 46.238281 28.125 C 46.238281 28.125 46.84375 27.246094 47.113281 26.84375 C 49.671875 30.011719 52.027344 33.3125 54.117188 36.75 L 53.710938 35.941406 C 52.230469 32.101562 50.546875 28.324219 48.660156 24.6875 L 49.808594 23.070312 C 51.691406 26.84375 53.242188 30.75 54.589844 34.726562 L 54.859375 35.402344 L 54.65625 34.59375 C 52.230469 24.078125 51.152344 21.113281 51.152344 21.113281 L 51.222656 21.046875 L 52.5 19.160156 L 55.394531 32.03125 C 55.394531 32.03125 55.464844 27.921875 55.058594 15.722656 C 55.328125 15.320312 55.867188 14.511719 56.070312 14.171875 C 56.203125 14.511719 56.8125 15.320312 57.078125 15.722656 C 56.675781 27.921875 56.742188 32.03125 56.742188 32.03125 L 59.640625 19.09375 L 60.917969 20.980469 L 60.984375 21.046875 C 60.984375 21.046875 59.910156 24.078125 57.484375 34.527344 L 57.28125 35.335938 L 57.550781 34.660156 C 58.898438 30.683594 60.445312 26.777344 62.332031 23 L 63.476562 24.617188 C 61.59375 28.324219 59.839844 32.101562 58.359375 35.941406 L 58.023438 36.75 C 60.179688 33.3125 62.46875 30.011719 65.027344 26.84375 L 65.902344 28.054688 C 65.363281 28.730469 60.3125 34.996094 56.136719 41.128906 C 51.761719 34.996094 46.777344 28.796875 46.238281 28.125 Z M 46.238281 28.125 " clip-rule="nonzero"/></clipPath><linearGradient x1="-594.359777" gradientTransform="matrix(0, 23.547419, -29.698703, 0, 9015.970779, 14004.757259)" y1="301.69601" x2="-592.805685" gradientUnits="userSpaceOnUse" y2="301.69601" id="93b95fe89f"><stop stop-opacity="1" stop-color="rgb(93.699646%, 88.198853%, 16.899109%)" offset="0"/><stop stop-opacity="1" stop-color="rgb(93.699646%, 88.198853%, 16.899109%)" offset="0.125"/><stop stop-opacity="1" stop-color="rgb(93.699646%, 88.198853%, 16.899109%)" offset="0.1875"/><stop stop-opacity="1" stop-color="rgb(93.699646%, 88.198853%, 16.899109%)" offset="0.203125"/><stop stop-opacity="1" stop-color="rgb(93.440247%, 88.140869%, 17.024231%)" offset="0.207031"/><stop stop-opacity="1" stop-color="rgb(93.180847%, 88.082886%, 17.149353%)" offset="0.210938"/><stop stop-opacity="1" stop-color="rgb(92.866516%, 88.011169%, 17.300415%)" offset="0.214844"/><stop stop-opacity="1" stop-color="rgb(92.553711%, 87.940979%, 17.453003%)" offset="0.21875"/><stop stop-opacity="1" stop-color="rgb(92.23938%, 87.869263%, 17.604065%)" offset="0.222656"/><stop stop-opacity="1" stop-color="rgb(91.926575%, 87.799072%, 17.756653%)" offset="0.226562"/><stop stop-opacity="1" stop-color="rgb(91.612244%, 87.727356%, 17.907715%)" offset="0.230469"/><stop stop-opacity="1" stop-color="rgb(91.299438%, 87.657166%, 18.060303%)" offset="0.234375"/><stop stop-opacity="1" stop-color="rgb(90.985107%, 87.585449%, 18.211365%)" offset="0.238281"/><stop stop-opacity="1" stop-color="rgb(90.672302%, 87.515259%, 18.363953%)" offset="0.242188"/><stop stop-opacity="1" stop-color="rgb(90.151978%, 87.356567%, 18.595886%)" offset="0.246094"/><stop stop-opacity="1" stop-color="rgb(89.633179%, 87.197876%, 18.829346%)" offset="0.25"/><stop stop-opacity="1" stop-color="rgb(89.086914%, 87.028503%, 19.07196%)" offset="0.253906"/><stop stop-opacity="1" stop-color="rgb(88.540649%, 86.859131%, 19.314575%)" offset="0.257812"/><stop stop-opacity="1" stop-color="rgb(87.994385%, 86.688232%, 19.55719%)" offset="0.261719"/><stop stop-opacity="1" stop-color="rgb(87.44812%, 86.51886%, 19.799805%)" offset="0.265625"/><stop stop-opacity="1" stop-color="rgb(86.901855%, 86.347961%, 20.042419%)" offset="0.269531"/><stop stop-opacity="1" stop-color="rgb(86.355591%, 86.178589%, 20.285034%)" offset="0.273438"/><stop stop-opacity="1" stop-color="rgb(85.8078%, 86.00769%, 20.527649%)" offset="0.277344"/><stop stop-opacity="1" stop-color="rgb(85.261536%, 85.838318%, 20.77179%)" offset="0.28125"/><stop stop-opacity="1" stop-color="rgb(84.715271%, 85.668945%, 21.014404%)" offset="0.285156"/><stop stop-opacity="1" stop-color="rgb(84.169006%, 85.499573%, 21.257019%)" offset="0.289062"/><stop stop-opacity="1" stop-color="rgb(83.622742%, 85.328674%, 21.499634%)" offset="0.292969"/><stop stop-opacity="1" stop-color="rgb(83.076477%, 85.159302%, 21.742249%)" offset="0.296875"/><stop stop-opacity="1" stop-color="rgb(82.530212%, 84.988403%, 21.984863%)" offset="0.300781"/><stop stop-opacity="1" stop-color="rgb(81.983948%, 84.819031%, 22.229004%)" offset="0.304688"/><stop stop-opacity="1" stop-color="rgb(81.364441%, 84.631348%, 22.491455%)" offset="0.308594"/><stop stop-opacity="1" stop-color="rgb(80.74646%, 84.443665%, 22.753906%)" offset="0.3125"/><stop stop-opacity="1" stop-color="rgb(80.088806%, 84.2453%, 23.027039%)" offset="0.316406"/><stop stop-opacity="1" stop-color="rgb(79.431152%, 84.048462%, 23.300171%)" offset="0.320312"/><stop stop-opacity="1" stop-color="rgb(78.773499%, 83.851624%, 23.573303%)" offset="0.324219"/><stop stop-opacity="1" stop-color="rgb(78.115845%, 83.654785%, 23.846436%)" offset="0.328125"/><stop stop-opacity="1" stop-color="rgb(77.458191%, 83.456421%, 24.119568%)" offset="0.332031"/><stop stop-opacity="1" stop-color="rgb(76.800537%, 83.259583%, 24.3927%)" offset="0.335938"/><stop stop-opacity="1" stop-color="rgb(76.142883%, 83.062744%, 24.665833%)" offset="0.339844"/><stop stop-opacity="1" stop-color="rgb(75.485229%, 82.865906%, 24.938965%)" offset="0.34375"/><stop stop-opacity="1" stop-color="rgb(74.827576%, 82.667542%, 25.212097%)" offset="0.347656"/><stop stop-opacity="1" stop-color="rgb(74.169922%, 82.470703%, 25.485229%)" offset="0.351562"/><stop stop-opacity="1" stop-color="rgb(73.512268%, 82.272339%, 25.758362%)" offset="0.355469"/><stop stop-opacity="1" stop-color="rgb(72.854614%, 82.0755%, 26.031494%)" offset="0.359375"/><stop stop-opacity="1" stop-color="rgb(72.19696%, 81.878662%, 26.304626%)" offset="0.363281"/><stop stop-opacity="1" stop-color="rgb(71.539307%, 81.681824%, 26.577759%)" offset="0.367188"/><stop stop-opacity="1" stop-color="rgb(70.881653%, 81.483459%, 26.850891%)" offset="0.371094"/><stop stop-opacity="1" stop-color="rgb(70.223999%, 81.286621%, 27.124023%)" offset="0.375"/><stop stop-opacity="1" stop-color="rgb(69.566345%, 81.089783%, 27.397156%)" offset="0.378906"/><stop stop-opacity="1" stop-color="rgb(68.908691%, 80.892944%, 27.670288%)" offset="0.382812"/><stop stop-opacity="1" stop-color="rgb(68.374634%, 80.752563%, 27.812195%)" offset="0.386719"/><stop stop-opacity="1" stop-color="rgb(67.842102%, 80.613708%, 27.954102%)" offset="0.390625"/><stop stop-opacity="1" stop-color="rgb(67.346191%, 80.491638%, 28.05481%)" offset="0.394531"/><stop stop-opacity="1" stop-color="rgb(66.850281%, 80.371094%, 28.155518%)" offset="0.398438"/><stop stop-opacity="1" stop-color="rgb(66.35437%, 80.249023%, 28.256226%)" offset="0.402344"/><stop stop-opacity="1" stop-color="rgb(65.858459%, 80.128479%, 28.358459%)" offset="0.40625"/><stop stop-opacity="1" stop-color="rgb(65.362549%, 80.006409%, 28.459167%)" offset="0.410156"/><stop stop-opacity="1" stop-color="rgb(64.866638%, 79.885864%, 28.561401%)" offset="0.414062"/><stop stop-opacity="1" stop-color="rgb(64.370728%, 79.763794%, 28.662109%)" offset="0.417969"/><stop stop-opacity="1" stop-color="rgb(63.874817%, 79.641724%, 28.762817%)" offset="0.421875"/><stop stop-opacity="1" stop-color="rgb(63.378906%, 79.519653%, 28.863525%)" offset="0.425781"/><stop stop-opacity="1" stop-color="rgb(62.882996%, 79.399109%, 28.965759%)" offset="0.429688"/><stop stop-opacity="1" stop-color="rgb(62.387085%, 79.277039%, 29.066467%)" offset="0.433594"/><stop stop-opacity="1" stop-color="rgb(61.8927%, 79.156494%, 29.168701%)" offset="0.4375"/><stop stop-opacity="1" stop-color="rgb(61.39679%, 79.034424%, 29.269409%)" offset="0.441406"/><stop stop-opacity="1" stop-color="rgb(60.900879%, 78.913879%, 29.370117%)" offset="0.445312"/><stop stop-opacity="1" stop-color="rgb(60.404968%, 78.791809%, 29.470825%)" offset="0.449219"/><stop stop-opacity="1" stop-color="rgb(59.909058%, 78.671265%, 29.573059%)" offset="0.453125"/><stop stop-opacity="1" stop-color="rgb(59.413147%, 78.549194%, 29.673767%)" offset="0.457031"/><stop stop-opacity="1" stop-color="rgb(58.917236%, 78.42865%, 29.774475%)" offset="0.460938"/><stop stop-opacity="1" stop-color="rgb(58.349609%, 78.28064%, 29.904175%)" offset="0.464844"/><stop stop-opacity="1" stop-color="rgb(57.783508%, 78.132629%, 30.0354%)" offset="0.46875"/><stop stop-opacity="1" stop-color="rgb(57.206726%, 77.980042%, 30.169678%)" offset="0.472656"/><stop stop-opacity="1" stop-color="rgb(56.629944%, 77.828979%, 30.305481%)" offset="0.476562"/><stop stop-opacity="1" stop-color="rgb(56.053162%, 77.676392%, 30.439758%)" offset="0.480469"/><stop stop-opacity="1" stop-color="rgb(55.476379%, 77.52533%, 30.574036%)" offset="0.484375"/><stop stop-opacity="1" stop-color="rgb(54.899597%, 77.372742%, 30.708313%)" offset="0.488281"/><stop stop-opacity="1" stop-color="rgb(54.322815%, 77.22168%, 30.84259%)" offset="0.492188"/><stop stop-opacity="1" stop-color="rgb(53.746033%, 77.069092%, 30.976868%)" offset="0.496094"/><stop stop-opacity="1" stop-color="rgb(53.16925%, 76.91803%, 31.111145%)" offset="0.5"/><stop stop-opacity="1" stop-color="rgb(52.592468%, 76.765442%, 31.245422%)" offset="0.503906"/><stop stop-opacity="1" stop-color="rgb(52.015686%, 76.61438%, 31.3797%)" offset="0.507812"/><stop stop-opacity="1" stop-color="rgb(51.438904%, 76.461792%, 31.513977%)" offset="0.511719"/><stop stop-opacity="1" stop-color="rgb(50.862122%, 76.31073%, 31.64978%)" offset="0.515625"/><stop stop-opacity="1" stop-color="rgb(50.285339%, 76.158142%, 31.784058%)" offset="0.519531"/><stop stop-opacity="1" stop-color="rgb(49.710083%, 76.00708%, 31.918335%)" offset="0.523438"/><stop stop-opacity="1" stop-color="rgb(49.133301%, 75.854492%, 32.052612%)" offset="0.527344"/><stop stop-opacity="1" stop-color="rgb(48.556519%, 75.70343%, 32.18689%)" offset="0.53125"/><stop stop-opacity="1" stop-color="rgb(47.979736%, 75.550842%, 32.321167%)" offset="0.535156"/><stop stop-opacity="1" stop-color="rgb(47.402954%, 75.39978%, 32.455444%)" offset="0.539062"/><stop stop-opacity="1" stop-color="rgb(46.826172%, 75.247192%, 32.589722%)" offset="0.542969"/><stop stop-opacity="1" stop-color="rgb(46.24939%, 75.09613%, 32.723999%)" offset="0.546875"/><stop stop-opacity="1" stop-color="rgb(45.597839%, 74.913025%, 32.810974%)" offset="0.550781"/><stop stop-opacity="1" stop-color="rgb(44.946289%, 74.729919%, 32.899475%)" offset="0.554688"/><stop stop-opacity="1" stop-color="rgb(44.15741%, 74.485779%, 32.899475%)" offset="0.558594"/><stop stop-opacity="1" stop-color="rgb(43.36853%, 74.243164%, 32.899475%)" offset="0.5625"/><stop stop-opacity="1" stop-color="rgb(42.579651%, 74.000549%, 32.899475%)" offset="0.566406"/><stop stop-opacity="1" stop-color="rgb(41.790771%, 73.757935%, 32.899475%)" offset="0.570312"/><stop stop-opacity="1" stop-color="rgb(41.160583%, 73.597717%, 32.879639%)" offset="0.574219"/><stop stop-opacity="1" stop-color="rgb(40.531921%, 73.4375%, 32.859802%)" offset="0.578125"/><stop stop-opacity="1" stop-color="rgb(39.924622%, 73.287964%, 32.836914%)" offset="0.582031"/><stop stop-opacity="1" stop-color="rgb(39.317322%, 73.139954%, 32.815552%)" offset="0.585938"/><stop stop-opacity="1" stop-color="rgb(38.710022%, 72.990417%, 32.794189%)" offset="0.589844"/><stop stop-opacity="1" stop-color="rgb(38.104248%, 72.840881%, 32.772827%)" offset="0.59375"/><stop stop-opacity="1" stop-color="rgb(37.496948%, 72.691345%, 32.749939%)" offset="0.597656"/><stop stop-opacity="1" stop-color="rgb(36.889648%, 72.543335%, 32.728577%)" offset="0.601562"/><stop stop-opacity="1" stop-color="rgb(36.282349%, 72.393799%, 32.705688%)" offset="0.605469"/><stop stop-opacity="1" stop-color="rgb(35.675049%, 72.245789%, 32.684326%)" offset="0.609375"/><stop stop-opacity="1" stop-color="rgb(35.067749%, 72.096252%, 32.661438%)" offset="0.613281"/><stop stop-opacity="1" stop-color="rgb(34.461975%, 71.946716%, 32.640076%)" offset="0.617188"/><stop stop-opacity="1" stop-color="rgb(33.854675%, 71.79718%, 32.617188%)" offset="0.621094"/><stop stop-opacity="1" stop-color="rgb(33.247375%, 71.64917%, 32.595825%)" offset="0.625"/><stop stop-opacity="1" stop-color="rgb(32.640076%, 71.499634%, 32.572937%)" offset="0.628906"/><stop stop-opacity="1" stop-color="rgb(32.032776%, 71.351624%, 32.551575%)" offset="0.632812"/><stop stop-opacity="1" stop-color="rgb(31.425476%, 71.202087%, 32.528687%)" offset="0.636719"/><stop stop-opacity="1" stop-color="rgb(30.818176%, 71.052551%, 32.507324%)" offset="0.640625"/><stop stop-opacity="1" stop-color="rgb(30.337524%, 70.916748%, 32.489014%)" offset="0.644531"/><stop stop-opacity="1" stop-color="rgb(29.858398%, 70.782471%, 32.472229%)" offset="0.648438"/><stop stop-opacity="1" stop-color="rgb(29.405212%, 70.649719%, 32.455444%)" offset="0.652344"/><stop stop-opacity="1" stop-color="rgb(28.953552%, 70.516968%, 32.43866%)" offset="0.65625"/><stop stop-opacity="1" stop-color="rgb(28.500366%, 70.384216%, 32.421875%)" offset="0.660156"/><stop stop-opacity="1" stop-color="rgb(28.04718%, 70.252991%, 32.406616%)" offset="0.664062"/><stop stop-opacity="1" stop-color="rgb(27.593994%, 70.120239%, 32.389832%)" offset="0.667969"/><stop stop-opacity="1" stop-color="rgb(27.142334%, 69.987488%, 32.373047%)" offset="0.671875"/><stop stop-opacity="1" stop-color="rgb(26.689148%, 69.854736%, 32.356262%)" offset="0.675781"/><stop stop-opacity="1" stop-color="rgb(26.237488%, 69.721985%, 32.339478%)" offset="0.679688"/><stop stop-opacity="1" stop-color="rgb(25.784302%, 69.589233%, 32.322693%)" offset="0.683594"/><stop stop-opacity="1" stop-color="rgb(25.332642%, 69.458008%, 32.305908%)" offset="0.6875"/><stop stop-opacity="1" stop-color="rgb(24.879456%, 69.325256%, 32.289124%)" offset="0.691406"/><stop stop-opacity="1" stop-color="rgb(24.427795%, 69.192505%, 32.273865%)" offset="0.695312"/><stop stop-opacity="1" stop-color="rgb(23.974609%, 69.059753%, 32.25708%)" offset="0.699219"/><stop stop-opacity="1" stop-color="rgb(23.522949%, 68.928528%, 32.240295%)" offset="0.703125"/><stop stop-opacity="1" stop-color="rgb(23.069763%, 68.795776%, 32.223511%)" offset="0.707031"/><stop stop-opacity="1" stop-color="rgb(22.616577%, 68.663025%, 32.206726%)" offset="0.710938"/><stop stop-opacity="1" stop-color="rgb(22.306824%, 68.585205%, 32.202148%)" offset="0.714844"/><stop stop-opacity="1" stop-color="rgb(21.99707%, 68.507385%, 32.199097%)" offset="0.71875"/><stop stop-opacity="1" stop-color="rgb(21.731567%, 68.44635%, 32.199097%)" offset="0.722656"/><stop stop-opacity="1" stop-color="rgb(21.46759%, 68.385315%, 32.199097%)" offset="0.726562"/><stop stop-opacity="1" stop-color="rgb(21.202087%, 68.32428%, 32.199097%)" offset="0.730469"/><stop stop-opacity="1" stop-color="rgb(20.93811%, 68.264771%, 32.199097%)" offset="0.734375"/><stop stop-opacity="1" stop-color="rgb(20.672607%, 68.203735%, 32.199097%)" offset="0.738281"/><stop stop-opacity="1" stop-color="rgb(20.407104%, 68.1427%, 32.199097%)" offset="0.742188"/><stop stop-opacity="1" stop-color="rgb(20.141602%, 68.081665%, 32.199097%)" offset="0.746094"/><stop stop-opacity="1" stop-color="rgb(19.877625%, 68.022156%, 32.199097%)" offset="0.75"/><stop stop-opacity="1" stop-color="rgb(19.612122%, 67.961121%, 32.199097%)" offset="0.753906"/><stop stop-opacity="1" stop-color="rgb(19.348145%, 67.900085%, 32.199097%)" offset="0.757812"/><stop stop-opacity="1" stop-color="rgb(19.082642%, 67.83905%, 32.199097%)" offset="0.761719"/><stop stop-opacity="1" stop-color="rgb(18.818665%, 67.778015%, 32.199097%)" offset="0.765625"/><stop stop-opacity="1" stop-color="rgb(18.553162%, 67.71698%, 32.199097%)" offset="0.769531"/><stop stop-opacity="1" stop-color="rgb(18.289185%, 67.657471%, 32.199097%)" offset="0.773438"/><stop stop-opacity="1" stop-color="rgb(18.023682%, 67.596436%, 32.199097%)" offset="0.777344"/><stop stop-opacity="1" stop-color="rgb(17.758179%, 67.5354%, 32.199097%)" offset="0.78125"/><stop stop-opacity="1" stop-color="rgb(17.614746%, 67.500305%, 32.199097%)" offset="0.789062"/><stop stop-opacity="1" stop-color="rgb(17.379761%, 67.440796%, 32.199097%)" offset="0.796875"/><stop stop-opacity="1" stop-color="rgb(17.106628%, 67.367554%, 32.199097%)" offset="0.8125"/><stop stop-opacity="1" stop-color="rgb(16.743469%, 67.271423%, 32.199097%)" offset="0.828125"/><stop stop-opacity="1" stop-color="rgb(16.378784%, 67.173767%, 32.199097%)" offset="0.84375"/><stop stop-opacity="1" stop-color="rgb(16.148376%, 67.111206%, 32.199097%)" offset="0.875"/><stop stop-opacity="1" stop-color="rgb(16.099548%, 67.098999%, 32.199097%)" offset="1"/></linearGradient></defs><g clip-path="url(#93d60be552)"><path fill="#000000" d="M 8.726562 82.105469 L 6.773438 79.613281 C 7.917969 79.410156 8.863281 78.398438 8.929688 77.253906 C 8.929688 76.039062 7.917969 75.097656 6.101562 75.097656 L 2.867188 75.097656 L 2.867188 75.164062 C 3.542969 75.433594 3.472656 76.445312 3.472656 77.050781 L 3.472656 82.171875 C 3.472656 82.78125 3.542969 83.789062 2.867188 84.058594 L 2.867188 84.128906 L 5.425781 84.128906 L 5.425781 84.058594 C 4.753906 83.789062 4.820312 82.847656 4.820312 82.171875 L 4.820312 76.109375 C 5.15625 76.039062 5.425781 76.039062 5.765625 75.972656 L 5.964844 75.972656 C 6.839844 75.972656 7.515625 76.648438 7.582031 77.523438 C 7.582031 78.804688 6.300781 79.277344 5.226562 79.476562 L 6.503906 81.363281 L 8.1875 83.386719 C 8.59375 83.859375 9.132812 84.128906 9.738281 84.058594 L 11.015625 84.058594 C 10.074219 83.519531 9.332031 82.847656 8.726562 82.105469 Z M 8.726562 82.105469 " fill-opacity="1" fill-rule="nonzero"/></g><path fill="#000000" d="M 16.402344 82.578125 C 15.730469 83.050781 14.988281 83.320312 14.183594 83.320312 L 13.980469 83.320312 C 12.566406 83.25 11.488281 82.105469 11.488281 80.691406 L 16.402344 80.691406 C 16.402344 80.554688 16.402344 80.488281 16.402344 80.355469 C 16.335938 78.734375 14.921875 77.523438 13.375 77.589844 L 13.171875 77.589844 C 11.421875 77.65625 10.007812 79.074219 10.074219 80.824219 C 10.074219 82.710938 11.691406 84.195312 13.980469 84.195312 C 14.652344 84.195312 15.257812 84.058594 15.867188 83.859375 Z M 13.304688 78.464844 C 14.183594 78.398438 14.921875 79.007812 14.988281 79.882812 L 11.554688 79.882812 C 11.691406 79.007812 12.429688 78.398438 13.304688 78.464844 Z M 13.304688 78.464844 " fill-opacity="1" fill-rule="nonzero"/><g clip-path="url(#526544d3e5)"><path fill="#000000" d="M 23.609375 78.195312 L 23.945312 77.523438 L 19.839844 77.589844 C 18.425781 77.589844 16.941406 78.332031 16.941406 79.882812 C 17.011719 80.894531 17.75 81.769531 18.761719 81.972656 C 18.492188 82.105469 17.683594 82.308594 17.683594 82.710938 C 17.683594 83.25 18.15625 83.65625 18.695312 83.65625 L 19.636719 83.65625 C 20.445312 83.65625 22.398438 83.789062 22.398438 84.9375 C 22.398438 86.082031 20.917969 86.351562 19.972656 86.351562 C 19.097656 86.351562 17.75 86.148438 17.75 85.003906 C 17.75 84.667969 17.953125 84.398438 18.289062 84.398438 C 18.019531 84.261719 17.75 84.195312 17.550781 84.195312 C 16.875 84.195312 16.269531 84.53125 16.269531 85.273438 C 16.269531 86.417969 17.886719 87.226562 20.039062 87.226562 C 22.195312 87.226562 23.878906 86.351562 23.878906 84.871094 C 23.878906 83.519531 22.601562 82.847656 20.242188 82.847656 C 20.109375 82.847656 19.433594 82.847656 19.433594 82.578125 C 19.433594 82.308594 19.769531 82.242188 19.972656 82.242188 C 21.1875 82.105469 22.871094 81.632812 22.871094 80.085938 C 22.871094 79.410156 22.53125 78.734375 21.925781 78.398438 C 22.398438 78.464844 22.871094 78.535156 23.339844 78.601562 C 23.476562 78.535156 23.542969 78.464844 23.609375 78.195312 Z M 21.386719 80.015625 C 21.320312 80.757812 20.714844 81.363281 19.972656 81.296875 C 19.097656 81.296875 18.355469 80.554688 18.289062 79.679688 L 18.289062 79.546875 C 18.355469 78.871094 18.964844 78.398438 19.636719 78.464844 L 19.703125 78.464844 C 20.578125 78.464844 21.320312 79.140625 21.320312 79.949219 L 21.320312 80.015625 Z M 21.386719 80.015625 " fill-opacity="1" fill-rule="nonzero"/></g><path fill="#000000" d="M 26.371094 76.109375 C 26.371094 75.636719 26.035156 75.300781 25.5625 75.300781 C 25.089844 75.300781 24.6875 75.636719 24.6875 76.109375 C 24.6875 76.578125 25.089844 76.984375 25.5625 76.984375 C 26.035156 76.917969 26.371094 76.511719 26.371094 76.109375 Z M 26.371094 76.109375 " fill-opacity="1" fill-rule="nonzero"/><path fill="#000000" d="M 26.238281 82.511719 L 26.238281 77.523438 L 26.167969 77.523438 C 25.898438 77.726562 25.628906 77.792969 25.292969 77.726562 L 24.484375 77.726562 L 24.484375 77.792969 C 25.089844 78.128906 25.023438 78.601562 25.023438 79.277344 L 25.023438 82.511719 C 25.023438 83.117188 25.089844 83.65625 24.484375 83.992188 L 24.484375 84.058594 L 26.773438 84.058594 L 26.773438 83.992188 C 26.167969 83.65625 26.238281 83.117188 26.238281 82.511719 Z M 26.238281 82.511719 " fill-opacity="1" fill-rule="nonzero"/><path fill="#000000" d="M 30.679688 77.589844 L 30.410156 77.589844 C 28.527344 77.589844 27.042969 79.074219 27.042969 80.960938 L 27.042969 81.027344 C 27.113281 82.847656 28.660156 84.261719 30.480469 84.195312 L 30.546875 84.195312 C 32.433594 84.195312 33.980469 82.710938 34.046875 80.824219 L 34.046875 80.757812 C 33.980469 78.9375 32.433594 77.523438 30.679688 77.589844 Z M 32.703125 81.09375 L 32.703125 81.230469 C 32.703125 82.375 31.757812 83.320312 30.613281 83.320312 C 29.199219 83.320312 28.457031 81.972656 28.457031 80.691406 L 28.457031 80.554688 C 28.457031 79.410156 29.402344 78.464844 30.546875 78.464844 C 32.027344 78.464844 32.703125 79.746094 32.703125 81.09375 Z M 32.703125 81.09375 " fill-opacity="1" fill-rule="nonzero"/><path fill="#000000" d="M 40.3125 82.511719 L 40.3125 80.554688 C 40.378906 79.882812 40.242188 79.140625 39.976562 78.535156 C 39.503906 77.925781 38.695312 77.589844 37.886719 77.589844 C 37.078125 77.589844 36.40625 77.996094 35.933594 78.601562 L 35.933594 77.589844 L 35.867188 77.589844 C 35.597656 77.726562 35.261719 77.792969 34.925781 77.792969 L 34.117188 77.792969 L 34.117188 77.859375 C 34.722656 78.195312 34.65625 78.667969 34.65625 79.34375 L 34.65625 82.578125 C 34.65625 83.183594 34.722656 83.722656 34.117188 84.058594 L 34.117188 84.128906 L 36.40625 84.128906 L 36.40625 84.058594 C 35.800781 83.722656 35.867188 83.25 35.867188 82.578125 L 35.867188 80.085938 C 35.867188 79.277344 36.070312 78.464844 37.28125 78.464844 C 38.492188 78.464844 38.898438 79.207031 38.898438 80.691406 L 38.898438 82.511719 C 38.898438 83.117188 38.964844 83.65625 38.359375 83.992188 L 38.359375 84.058594 L 40.648438 84.058594 L 40.648438 83.992188 C 40.242188 83.65625 40.3125 83.117188 40.3125 82.511719 Z M 40.3125 82.511719 " fill-opacity="1" fill-rule="nonzero"/><path fill="#000000" d="M 47.316406 77.589844 L 47.046875 77.589844 C 45.160156 77.589844 43.679688 79.074219 43.679688 80.960938 L 43.679688 81.027344 C 43.746094 82.847656 45.292969 84.261719 47.113281 84.195312 L 47.179688 84.195312 C 49.066406 84.195312 50.613281 82.710938 50.683594 80.824219 L 50.683594 80.757812 C 50.613281 78.9375 49.132812 77.523438 47.316406 77.589844 Z M 49.335938 81.09375 L 49.335938 81.230469 C 49.335938 82.375 48.394531 83.320312 47.246094 83.320312 C 45.832031 83.320312 45.09375 81.972656 45.09375 80.691406 L 45.09375 80.554688 C 45.09375 79.410156 46.035156 78.464844 47.179688 78.464844 C 48.660156 78.464844 49.335938 79.746094 49.335938 81.09375 Z M 49.335938 81.09375 " fill-opacity="1" fill-rule="nonzero"/><path fill="#000000" d="M 54.117188 75.636719 C 54.386719 75.636719 54.589844 75.703125 54.789062 75.839844 L 55.734375 74.761719 L 54.789062 74.691406 C 53.914062 74.625 53.039062 74.960938 52.367188 75.570312 C 51.960938 76.039062 51.761719 76.714844 51.828125 77.386719 L 51.828125 77.726562 L 51.152344 78.601562 L 51.828125 78.601562 L 51.828125 82.441406 C 51.828125 83.050781 51.894531 83.589844 51.289062 83.925781 L 51.289062 83.992188 L 53.710938 83.992188 L 53.710938 83.925781 C 53.039062 83.589844 53.105469 82.644531 53.105469 81.972656 L 53.105469 78.535156 L 54.453125 78.535156 C 54.65625 78.535156 54.859375 78.601562 54.992188 78.734375 L 55.058594 78.734375 L 55.058594 77.523438 L 54.992188 77.523438 L 54.789062 77.589844 L 53.242188 77.589844 L 53.242188 76.714844 C 53.175781 76.039062 53.308594 75.636719 54.117188 75.636719 Z M 54.117188 75.636719 " fill-opacity="1" fill-rule="nonzero"/><path fill="#000000" d="M 68.867188 75.03125 C 69.875 75.433594 69.472656 76.511719 69.203125 77.320312 L 67.652344 82.242188 L 65.765625 76.378906 C 65.566406 75.972656 65.496094 75.5 65.566406 75.03125 L 63.679688 75.03125 L 63.679688 75.097656 C 64.421875 75.5 64.152344 76.378906 63.882812 77.1875 L 62.265625 82.375 L 60.246094 76.039062 C 60.109375 75.703125 60.042969 75.367188 60.109375 75.03125 L 58.089844 75.03125 L 58.089844 75.097656 C 58.761719 75.570312 58.964844 76.445312 59.234375 77.1875 L 60.851562 82.242188 C 61.324219 83.65625 61.457031 83.519531 62.667969 84.464844 L 64.824219 77.589844 L 66.304688 82.308594 C 66.777344 83.722656 66.84375 83.65625 68.125 84.464844 L 71.019531 75.097656 Z M 68.867188 75.03125 " fill-opacity="1" fill-rule="nonzero"/><path fill="#000000" d="M 75.195312 81.632812 L 75.195312 79.613281 C 75.195312 77.996094 74.050781 77.523438 72.570312 77.523438 L 71.695312 77.589844 L 70.75 78.9375 C 71.289062 78.601562 71.964844 78.398438 72.570312 78.398438 C 73.109375 78.398438 73.847656 78.601562 73.847656 79.277344 C 73.847656 80.757812 69.808594 79.613281 69.808594 82.105469 L 69.808594 82.171875 C 69.941406 83.320312 70.953125 84.195312 72.097656 84.128906 C 72.300781 84.128906 72.570312 84.128906 72.769531 84.058594 L 73.578125 83.050781 C 73.242188 83.183594 72.90625 83.25 72.570312 83.25 C 71.828125 83.25 71.085938 82.980469 71.085938 82.105469 C 71.085938 81.296875 71.828125 81.09375 72.5 80.960938 C 72.972656 80.894531 73.378906 80.757812 73.78125 80.554688 L 73.78125 82.710938 C 73.78125 83.789062 74.65625 84.058594 75.601562 84.128906 L 76.207031 83.25 C 75.195312 83.117188 75.195312 82.710938 75.195312 81.632812 Z M 75.195312 81.632812 " fill-opacity="1" fill-rule="nonzero"/><path fill="#000000" d="M 79.640625 77.726562 L 78.359375 77.726562 L 78.359375 75.703125 L 77.820312 75.703125 C 77.820312 76.984375 77.484375 77.925781 76.207031 78.128906 L 76.207031 78.601562 L 77.148438 78.601562 L 77.148438 81.433594 C 77.148438 81.972656 76.945312 84.128906 79.035156 84.128906 C 79.167969 84.128906 79.304688 84.128906 79.4375 84.058594 L 80.179688 83.117188 C 79.976562 83.183594 79.84375 83.25 79.640625 83.25 C 78.160156 83.25 78.359375 81.835938 78.359375 81.363281 L 78.359375 78.667969 L 79.167969 78.667969 C 79.503906 78.667969 79.910156 78.667969 80.179688 78.9375 L 80.246094 78.9375 L 80.246094 77.726562 L 80.179688 77.726562 C 79.976562 77.726562 79.773438 77.792969 79.640625 77.726562 Z M 79.640625 77.726562 " fill-opacity="1" fill-rule="nonzero"/><path fill="#000000" d="M 84.488281 83.320312 L 84.285156 83.320312 C 82.871094 83.25 81.796875 82.105469 81.796875 80.691406 L 86.710938 80.691406 C 86.710938 80.554688 86.710938 80.488281 86.710938 80.355469 C 86.644531 78.734375 85.230469 77.523438 83.679688 77.589844 L 83.410156 77.589844 C 81.660156 77.65625 80.246094 79.074219 80.3125 80.824219 C 80.3125 82.710938 81.929688 84.195312 84.21875 84.195312 C 84.894531 84.195312 85.5 84.058594 86.105469 83.859375 L 86.777344 82.578125 L 86.710938 82.578125 C 86.105469 83.050781 85.296875 83.320312 84.488281 83.320312 Z M 83.613281 78.464844 C 84.488281 78.398438 85.296875 79.007812 85.363281 79.882812 L 81.863281 79.882812 C 81.996094 79.007812 82.738281 78.398438 83.613281 78.464844 Z M 83.613281 78.464844 " fill-opacity="1" fill-rule="nonzero"/><path fill="#000000" d="M 89.070312 78.601562 L 89.070312 77.589844 L 89 77.589844 C 88.730469 77.726562 88.460938 77.792969 88.191406 77.792969 L 87.316406 77.792969 L 87.316406 77.859375 C 87.921875 78.195312 87.855469 78.667969 87.855469 79.34375 L 87.855469 82.578125 C 87.855469 83.183594 87.921875 83.722656 87.316406 84.058594 L 87.316406 84.128906 L 89.605469 84.128906 L 89.605469 84.058594 C 89 83.722656 89.070312 83.25 89.070312 82.578125 L 89.070312 80.691406 C 89.070312 79.277344 89.472656 78.734375 90.550781 78.734375 C 90.753906 78.734375 91.019531 78.804688 91.15625 78.9375 L 91.15625 77.65625 L 90.683594 77.589844 C 90.011719 77.589844 89.335938 77.996094 89.070312 78.601562 Z M 89.070312 78.601562 " fill-opacity="1" fill-rule="nonzero"/><path fill="#000000" d="M 93.3125 82.511719 L 93.3125 74.828125 L 93.242188 74.828125 C 92.972656 75.03125 92.703125 75.097656 92.367188 75.03125 L 91.558594 75.03125 L 91.558594 75.097656 C 92.167969 75.433594 92.03125 75.90625 92.03125 76.578125 L 92.03125 82.511719 C 92.03125 83.117188 92.097656 83.65625 91.558594 83.992188 L 91.558594 84.058594 L 93.78125 84.058594 L 93.78125 83.992188 C 93.242188 83.65625 93.3125 83.117188 93.3125 82.511719 Z M 93.3125 82.511719 " fill-opacity="1" fill-rule="nonzero"/><path fill="#000000" d="M 97.824219 77.589844 L 97.554688 77.589844 C 95.667969 77.589844 94.1875 79.074219 94.1875 80.960938 L 94.1875 81.027344 C 94.253906 82.847656 95.804688 84.261719 97.621094 84.195312 L 97.6875 84.195312 C 99.574219 84.195312 101.121094 82.710938 101.191406 80.824219 L 101.191406 80.757812 C 101.121094 78.9375 99.574219 77.523438 97.824219 77.589844 Z M 99.777344 81.09375 L 99.777344 81.230469 C 99.777344 82.375 98.832031 83.320312 97.6875 83.320312 C 96.273438 83.320312 95.535156 81.972656 95.535156 80.691406 L 95.535156 80.554688 C 95.535156 79.410156 96.476562 78.464844 97.621094 78.464844 C 99.171875 78.464844 99.84375 79.746094 99.777344 81.09375 Z M 99.777344 81.09375 " fill-opacity="1" fill-rule="nonzero"/><path fill="#000000" d="M 105.433594 77.589844 L 105.164062 77.589844 C 103.277344 77.589844 101.796875 79.074219 101.796875 80.960938 L 101.796875 81.027344 C 101.863281 82.847656 103.414062 84.261719 105.230469 84.195312 L 105.296875 84.195312 C 107.183594 84.195312 108.734375 82.710938 108.800781 80.824219 L 108.800781 80.757812 C 108.734375 78.9375 107.183594 77.523438 105.433594 77.589844 Z M 107.453125 81.09375 L 107.453125 81.230469 C 107.453125 82.375 106.511719 83.320312 105.367188 83.320312 C 103.953125 83.320312 103.210938 81.972656 103.210938 80.691406 L 103.210938 80.554688 C 103.210938 79.410156 104.152344 78.464844 105.296875 78.464844 C 106.710938 78.464844 107.453125 79.746094 107.453125 81.09375 Z M 107.453125 81.09375 " fill-opacity="1" fill-rule="nonzero"/><g clip-path="url(#718b4d73cb)"><path fill="#ffffff" d="M 103.546875 21.382812 C 107.050781 18.484375 109.273438 18.148438 109.273438 18.148438 L 95.464844 17.945312 C 95.464844 17.945312 89.40625 17.945312 87.585938 18.148438 C 85.433594 18.351562 83.277344 18.824219 81.1875 19.429688 C 79.910156 19.835938 78.292969 20.710938 76.945312 21.113281 C 75.9375 21.453125 74.859375 21.519531 73.78125 21.316406 C 72.90625 21.113281 71.558594 20.777344 71.761719 15.117188 L 71.894531 7.570312 C 71.894531 7.570312 66.914062 10.265625 62.601562 8.109375 C 60.851562 7.230469 59.503906 5.546875 58.292969 2.851562 C 57.011719 -0.25 56.203125 -3.484375 56.003906 -6.855469 C 55.734375 -3.484375 54.925781 -0.25 53.578125 2.851562 C 52.367188 5.546875 51.019531 7.230469 49.269531 8.109375 C 44.957031 10.265625 39.976562 7.570312 39.976562 7.570312 L 40.109375 15.117188 C 40.3125 20.777344 38.964844 21.183594 38.089844 21.316406 C 37.011719 21.519531 35.933594 21.453125 34.925781 21.113281 C 33.578125 20.710938 31.960938 19.835938 30.679688 19.429688 C 28.59375 18.824219 26.4375 18.351562 24.214844 18.148438 C 22.398438 17.945312 16.335938 17.945312 16.335938 17.945312 L 2.53125 18.015625 C 2.53125 18.015625 4.753906 18.351562 8.253906 21.25 C 9.0625 21.921875 12.902344 25.226562 13.980469 26.167969 C 16.742188 28.59375 19.769531 31.492188 22.464844 34.324219 C 29.804688 41.9375 37.484375 51.507812 42.398438 57.84375 C 43.679688 59.527344 44.757812 60.945312 45.632812 62.089844 C 46.304688 63.035156 47.046875 63.910156 47.855469 64.785156 C 48.660156 65.527344 49.941406 65.527344 50.75 64.71875 C 51.019531 64.449219 51.222656 64.179688 51.421875 63.84375 C 52.164062 62.628906 53.511719 60.742188 55.933594 57.101562 C 58.292969 60.742188 59.640625 62.628906 60.378906 63.84375 C 60.582031 64.179688 60.785156 64.449219 61.054688 64.785156 C 61.863281 65.59375 63.140625 65.660156 64.015625 64.851562 C 64.421875 64.449219 64.890625 63.976562 65.230469 63.503906 C 66.105469 62.292969 67.585938 60.335938 69.402344 57.980469 C 74.320312 51.644531 81.996094 42.074219 89.269531 34.457031 C 92.03125 31.628906 94.996094 28.796875 97.753906 26.304688 C 98.902344 25.359375 102.738281 21.992188 103.546875 21.382812 Z M 85.703125 35.132812 C 79.101562 42.140625 72.097656 50.902344 67.652344 56.765625 C 65.96875 58.988281 64.621094 60.742188 63.8125 61.886719 C 63.679688 62.089844 63.546875 62.226562 63.34375 62.359375 C 62.871094 62.695312 62.265625 62.5625 61.929688 62.15625 C 61.726562 61.886719 61.523438 61.617188 61.324219 61.28125 C 60.582031 60.066406 58.628906 56.96875 56.136719 53.058594 L 56.003906 52.789062 L 55.734375 52.992188 C 53.242188 56.902344 51.289062 60 50.546875 61.214844 C 50.34375 61.484375 50.144531 61.820312 49.941406 62.089844 C 49.605469 62.496094 49 62.628906 48.527344 62.292969 C 48.324219 62.15625 48.191406 62.023438 48.054688 61.886719 C 47.246094 60.742188 45.902344 58.988281 44.21875 56.765625 C 39.773438 50.96875 32.835938 42.140625 26.238281 35.132812 C 21.792969 30.414062 17.210938 25.628906 13.980469 22.933594 C 10.746094 20.238281 10.207031 20.238281 10.207031 20.238281 L 21.65625 20.238281 C 25.898438 20.105469 29.941406 22.867188 32.363281 24.886719 C 33.847656 26.238281 35.191406 27.652344 36.40625 29.269531 C 40.984375 35.199219 52.5 51.039062 52.5 51.039062 C 52.835938 50.429688 53.242188 49.824219 53.644531 49.21875 C 51.492188 45.914062 49.132812 42.476562 46.777344 39.175781 C 43.542969 34.457031 40.109375 29.941406 36.40625 25.5625 C 35.597656 24.617188 34.65625 23.675781 33.710938 22.867188 C 33.710938 22.867188 36.269531 24.550781 38.558594 24.347656 C 39.367188 24.28125 42.804688 24.214844 42.535156 19.699219 L 42.535156 10.9375 C 42.535156 10.9375 52.972656 16.464844 56.003906 1.433594 C 56.003906 1.367188 56.003906 1.234375 56.003906 1.164062 C 56.003906 1.234375 56.003906 1.367188 56.003906 1.433594 C 59.03125 16.464844 69.472656 10.871094 69.472656 10.871094 L 69.472656 19.632812 C 69.203125 24.148438 72.636719 24.214844 73.445312 24.28125 C 75.734375 24.484375 78.292969 22.800781 78.292969 22.800781 C 77.351562 23.609375 76.40625 24.550781 75.601562 25.496094 C 71.828125 29.808594 68.257812 34.390625 64.960938 39.109375 C 62.667969 42.410156 60.246094 45.847656 58.089844 49.152344 C 58.496094 49.757812 58.898438 50.363281 59.234375 50.96875 C 59.234375 50.96875 70.75 35.132812 75.332031 29.203125 C 76.542969 27.652344 77.890625 26.167969 79.371094 24.820312 C 81.796875 22.800781 85.835938 20.035156 90.011719 20.105469 L 101.460938 20.105469 C 101.460938 20.105469 100.855469 20.105469 97.6875 22.800781 C 94.523438 25.496094 90.078125 30.414062 85.703125 35.132812 Z M 85.703125 35.132812 " fill-opacity="1" fill-rule="nonzero"/></g><path fill="#006ab4" d="M 101.660156 20.238281 L 90.214844 20.238281 C 86.039062 20.105469 81.996094 22.867188 79.574219 24.957031 C 78.089844 26.304688 76.746094 27.71875 75.53125 29.335938 C 70.953125 35.265625 59.4375 51.105469 59.4375 51.105469 C 59.101562 50.5 58.695312 49.890625 58.292969 49.285156 C 60.445312 46.050781 62.804688 42.546875 65.160156 39.242188 C 68.460938 34.527344 71.964844 29.941406 75.800781 25.628906 C 76.609375 24.6875 77.550781 23.742188 78.496094 22.933594 C 78.496094 22.933594 75.9375 24.617188 73.648438 24.417969 C 72.839844 24.347656 69.402344 24.28125 69.671875 19.765625 L 69.671875 11.003906 C 69.671875 11.003906 59.234375 16.597656 56.203125 1.570312 C 53.175781 16.597656 42.734375 11.074219 42.734375 11.074219 L 42.734375 19.835938 C 43.003906 24.347656 39.570312 24.417969 38.761719 24.484375 C 36.472656 24.6875 33.914062 23 33.914062 23 C 34.855469 23.808594 35.800781 24.753906 36.609375 25.699219 C 40.3125 30.011719 43.8125 34.59375 46.976562 39.3125 C 49.335938 42.613281 51.691406 46.050781 53.847656 49.351562 C 53.445312 49.960938 53.105469 50.566406 52.703125 51.171875 C 52.703125 51.171875 41.1875 35.335938 36.609375 29.402344 C 35.394531 27.855469 34.046875 26.371094 32.566406 25.023438 C 30.140625 23 26.101562 20.238281 21.859375 20.375 L 10.410156 20.375 C 10.410156 20.375 10.949219 20.375 14.183594 23.070312 C 17.414062 25.765625 21.992188 30.550781 26.4375 35.265625 C 32.835938 42.140625 39.773438 50.96875 44.21875 56.832031 C 45.902344 59.058594 47.246094 60.808594 48.054688 61.957031 C 48.191406 62.15625 48.324219 62.292969 48.527344 62.359375 C 49 62.695312 49.605469 62.5625 49.941406 62.15625 C 50.144531 61.886719 50.34375 61.617188 50.546875 61.28125 C 51.289062 60.066406 53.242188 56.96875 55.734375 53.058594 L 55.867188 52.789062 L 56.003906 53.058594 C 58.496094 56.96875 60.445312 60.066406 61.1875 61.28125 C 61.390625 61.550781 61.59375 61.886719 61.792969 62.15625 C 62.128906 62.5625 62.738281 62.695312 63.207031 62.359375 C 63.410156 62.226562 63.546875 62.089844 63.679688 61.886719 C 64.488281 60.808594 65.835938 58.988281 67.519531 56.765625 C 71.964844 50.902344 78.96875 42.074219 85.566406 35.132812 C 90.011719 30.414062 94.65625 25.5625 97.824219 22.933594 C 100.988281 20.304688 101.660156 20.238281 101.660156 20.238281 Z M 41.996094 26.976562 C 43.207031 26.777344 44.554688 25.5625 45.160156 24.214844 C 45.765625 23 45.765625 21.183594 45.832031 19.699219 C 45.902344 18.890625 45.832031 14.847656 45.832031 14.847656 C 51.761719 16.398438 54.722656 11.410156 56.003906 9.117188 C 57.28125 11.410156 60.246094 16.398438 66.171875 14.847656 C 66.171875 14.847656 66.105469 18.890625 66.171875 19.699219 C 66.238281 21.25 66.238281 23 66.84375 24.214844 C 67.449219 25.5625 68.796875 26.777344 70.011719 26.976562 C 69.808594 27.179688 61.929688 36.953125 56.003906 45.714844 C 49.941406 36.882812 41.996094 26.976562 41.996094 26.976562 Z M 41.996094 26.976562 " fill-opacity="1" fill-rule="nonzero"/><path fill="#efe12c" d="M 56.003906 45.714844 C 61.929688 36.953125 69.875 27.179688 70.011719 26.976562 C 68.867188 26.777344 67.519531 25.496094 66.84375 24.214844 C 66.238281 23 66.238281 21.183594 66.171875 19.699219 C 66.105469 18.890625 66.171875 14.847656 66.171875 14.847656 C 60.246094 16.398438 57.28125 11.410156 56.003906 9.117188 C 54.722656 11.410156 51.761719 16.398438 45.832031 14.847656 C 45.832031 14.847656 45.902344 18.890625 45.832031 19.699219 C 45.765625 21.25 45.765625 23 45.160156 24.214844 C 44.554688 25.5625 43.207031 26.777344 41.996094 26.976562 C 41.996094 26.976562 49.941406 36.882812 56.003906 45.714844 Z M 46.238281 28.125 C 46.238281 28.125 46.84375 27.246094 47.113281 26.84375 C 49.671875 30.011719 52.027344 33.3125 54.117188 36.75 L 53.710938 35.941406 C 52.230469 32.101562 50.546875 28.324219 48.660156 24.6875 L 49.808594 23.070312 C 51.691406 26.84375 53.242188 30.75 54.589844 34.726562 L 54.859375 35.402344 L 54.65625 34.59375 C 52.230469 24.078125 51.152344 21.113281 51.152344 21.113281 L 51.222656 21.046875 L 52.5 19.160156 L 55.394531 32.03125 C 55.394531 32.03125 55.464844 27.921875 55.058594 15.722656 C 55.328125 15.320312 55.867188 14.511719 56.070312 14.171875 C 56.203125 14.511719 56.8125 15.320312 57.078125 15.722656 C 56.675781 27.921875 56.742188 32.03125 56.742188 32.03125 L 59.640625 19.09375 L 60.917969 20.980469 L 60.984375 21.046875 C 60.984375 21.046875 59.910156 24.078125 57.484375 34.527344 L 57.28125 35.335938 L 57.550781 34.660156 C 58.898438 30.683594 60.445312 26.777344 62.332031 23 L 63.476562 24.617188 C 61.59375 28.324219 59.839844 32.101562 58.359375 35.941406 L 58.023438 36.75 C 60.179688 33.3125 62.46875 30.011719 65.027344 26.84375 L 65.902344 28.054688 C 65.363281 28.730469 60.3125 34.996094 56.136719 41.128906 C 51.761719 34.996094 46.777344 28.796875 46.238281 28.125 Z M 46.238281 28.125 " fill-opacity="1" fill-rule="nonzero"/><g clip-path="url(#1a7f932259)"><g clip-path="url(#97bdd4b687)"><path fill="url(#93b95fe89f)" d="M 70.011719 9.117188 L 41.996094 9.117188 L 41.996094 45.714844 L 70.011719 45.714844 Z M 70.011719 9.117188 " fill-rule="nonzero"/></g></g><path fill="#ffffff" d="M 64.890625 26.84375 C 62.332031 30.011719 59.976562 33.3125 57.886719 36.75 L 58.226562 35.941406 C 59.707031 32.101562 61.457031 28.257812 63.34375 24.617188 L 62.199219 23 C 60.3125 26.777344 58.761719 30.683594 57.417969 34.660156 L 57.148438 35.335938 L 57.347656 34.527344 C 59.773438 24.078125 60.851562 21.046875 60.851562 21.046875 L 60.785156 20.980469 L 59.503906 19.09375 L 56.609375 32.03125 C 56.609375 32.03125 56.609375 27.921875 56.945312 15.722656 C 56.675781 15.320312 56.136719 14.511719 55.933594 14.171875 C 55.800781 14.511719 55.195312 15.320312 54.925781 15.722656 C 55.328125 27.921875 55.261719 32.03125 55.261719 32.03125 L 52.367188 19.160156 L 51.085938 21.046875 L 51.019531 21.113281 C 51.019531 21.113281 52.097656 24.078125 54.519531 34.59375 L 54.722656 35.402344 L 54.453125 34.726562 C 53.105469 30.75 51.558594 26.84375 49.671875 23.070312 L 48.527344 24.6875 C 50.414062 28.324219 52.097656 32.101562 53.578125 35.941406 L 53.914062 36.75 C 51.828125 33.3125 49.46875 30.011719 46.910156 26.84375 C 46.640625 27.246094 46.035156 28.125 46.035156 28.125 C 46.574219 28.796875 51.625 35.066406 55.800781 41.199219 C 59.976562 34.996094 65.027344 28.796875 65.566406 28.125 Z M 64.890625 26.84375 " fill-opacity="1" fill-rule="nonzero"/></svg>