<svg xmlns="http://www.w3.org/2000/svg" xmlns:xlink="http://www.w3.org/1999/xlink" width="576" zoomAndPan="magnify" viewBox="0 0 432 287.999989" height="384" preserveAspectRatio="xMidYMid meet" version="1.0"><defs><clipPath id="81c86599c8"><path d="M 130.015625 85 L 237 85 L 237 200.371094 L 130.015625 200.371094 Z M 130.015625 85 " clip-rule="nonzero"/></clipPath><clipPath id="1bfae85b23"><path d="M 222 113 L 297.265625 113 L 297.265625 200.371094 L 222 200.371094 Z M 222 113 " clip-rule="nonzero"/></clipPath></defs><rect x="-43.2" width="518.4" fill="#ffffff" y="-28.799999" height="345.599986" fill-opacity="1"/><rect x="-43.2" width="518.4" fill="#053b60" y="-28.799999" height="345.599986" fill-opacity="1"/><g clip-path="url(#81c86599c8)"><path fill="#2266aa" d="M 226.210938 153.71875 C 224.171875 149.640625 222.996094 145.105469 222.996094 140.269531 C 222.996094 129.917969 228.25 120.773438 236.179688 115.34375 L 199.4375 86.722656 C 197.101562 84.914062 193.847656 84.914062 191.507812 86.722656 L 167.214844 105.640625 L 167.214844 97.867188 C 167.214844 95.933594 165.632812 94.351562 163.699219 94.351562 L 157.160156 94.351562 C 155.226562 94.351562 153.644531 95.933594 153.644531 97.867188 L 153.644531 116.222656 L 132.898438 132.394531 C 131.070312 133.820312 130.015625 136.015625 130.015625 138.355469 L 130.015625 141.183594 C 130.015625 143.75 132.054688 145.789062 134.621094 145.789062 L 145.609375 145.789062 L 145.609375 195.453125 C 145.609375 197.984375 147.648438 200.023438 150.179688 200.023438 L 211.214844 200.023438 C 210.882812 198.773438 210.6875 197.457031 210.6875 196.101562 L 210.6875 182.320312 C 210.6875 170.085938 216.171875 160.101562 226.210938 153.71875 Z M 226.210938 153.71875 " fill-opacity="1" fill-rule="nonzero"/></g><path fill="#2266aa" d="M 253.109375 159.046875 C 263.480469 159.046875 271.882812 150.640625 271.882812 140.269531 C 271.882812 129.898438 263.480469 121.496094 253.109375 121.496094 C 242.734375 121.496094 234.332031 129.898438 234.332031 140.269531 C 234.332031 150.640625 242.734375 159.046875 253.109375 159.046875 Z M 253.109375 159.046875 " fill-opacity="1" fill-rule="nonzero"/><g clip-path="url(#1bfae85b23)"><path fill="#2266aa" d="M 289.636719 113.390625 C 285.136719 113.164062 281.429688 116.730469 281.429688 121.179688 L 281.429688 125.960938 C 281.710938 142.695312 278.085938 154.667969 270.949219 160.59375 C 270.019531 161.367188 269.085938 162.085938 268.15625 162.773438 C 263.847656 165.671875 258.679688 167.359375 253.109375 167.359375 C 246.621094 167.359375 240.660156 165.058594 235.984375 161.242188 C 228.199219 164.792969 222.007812 171.351562 222.007812 182.320312 L 222.007812 196.101562 C 222.007812 198.265625 223.769531 200.023438 225.929688 200.023438 L 280.269531 200.023438 C 282.429688 200.023438 284.1875 198.265625 284.1875 196.101562 L 284.1875 182.320312 C 284.1875 181.632812 284.171875 180.964844 284.117188 180.316406 C 283.714844 174.761719 284.925781 169.242188 288.019531 164.601562 C 294.261719 155.265625 297.265625 142.273438 296.984375 125.835938 L 296.984375 121.617188 C 297.003906 117.398438 293.839844 113.621094 289.636719 113.390625 Z M 289.636719 113.390625 " fill-opacity="1" fill-rule="nonzero"/></g></svg>