<svg xmlns="http://www.w3.org/2000/svg" xmlns:xlink="http://www.w3.org/1999/xlink" width="576" zoomAndPan="magnify" viewBox="0 0 432 287.999989" height="384" preserveAspectRatio="xMidYMid meet" version="1.0"><defs><g/><clipPath id="7f3c84d9dc"><path d="M 0 0 L 69.054688 0 L 69.054688 288 L 0 288 Z M 0 0 " clip-rule="nonzero"/></clipPath><clipPath id="e27ac6319c"><path d="M 163.21875 98 L 334.84375 98 L 334.84375 214.40625 L 163.21875 214.40625 Z M 163.21875 98 " clip-rule="nonzero"/></clipPath><clipPath id="fb9cb27425"><path d="M 184 73.582031 L 234 73.582031 L 234 145 L 184 145 Z M 184 73.582031 " clip-rule="nonzero"/></clipPath></defs><rect x="-43.2" width="518.4" fill="#ffffff" y="-28.799999" height="345.599986" fill-opacity="1"/><rect x="-43.2" width="518.4" fill="#053b60" y="-28.799999" height="345.599986" fill-opacity="1"/><g clip-path="url(#7f3c84d9dc)"><path fill="#ccaa55" d="M 0 0 L 69.054688 0 L 69.054688 288.089844 L 0 288.089844 Z M 0 0 " fill-opacity="1" fill-rule="nonzero"/></g><path fill="#ffffff" d="M 275.722656 127.9375 L 276.074219 131.351562 C 277.203125 131.242188 278.371094 131.183594 279.546875 131.183594 C 280.519531 131.183594 281.523438 131.222656 282.527344 131.300781 L 282.800781 127.878906 C 281.703125 127.796875 280.613281 127.753906 279.546875 127.753906 C 278.253906 127.753906 276.96875 127.816406 275.722656 127.9375 " fill-opacity="1" fill-rule="nonzero"/><path fill="#ffffff" d="M 262.210938 132.183594 L 263.984375 135.144531 C 265.824219 134.09375 267.785156 133.242188 269.804688 132.609375 L 268.738281 129.339844 C 266.46875 130.050781 264.273438 131.003906 262.210938 132.183594 " fill-opacity="1" fill-rule="nonzero"/><path fill="#ffffff" d="M 215.246094 179.027344 C 217.5625 178.566406 219.84375 177.921875 222.023438 177.105469 L 220.769531 173.902344 C 218.769531 174.648438 216.675781 175.242188 214.546875 175.664062 L 215.246094 179.027344 " fill-opacity="1" fill-rule="nonzero"/><path fill="#ffffff" d="M 251.664062 141.359375 L 254.425781 143.476562 C 255.808594 141.765625 257.289062 140.207031 258.828125 138.851562 L 256.472656 136.304688 C 254.785156 137.789062 253.167969 139.488281 251.664062 141.359375 " fill-opacity="1" fill-rule="nonzero"/><path fill="#ffffff" d="M 201.5625 176.300781 L 201.25 179.71875 C 202.816406 179.855469 204.390625 179.925781 205.917969 179.925781 C 206.703125 179.925781 207.488281 179.90625 208.261719 179.871094 L 208.09375 176.441406 C 207.378906 176.476562 206.644531 176.492188 205.917969 176.492188 C 204.492188 176.492188 203.027344 176.429688 201.5625 176.300781 " fill-opacity="1" fill-rule="nonzero"/><path fill="#ffffff" d="M 231.929688 167.527344 C 230.230469 168.886719 228.4375 170.109375 226.605469 171.160156 L 228.382812 174.117188 C 230.375 172.976562 232.316406 171.652344 234.15625 170.179688 L 231.929688 167.527344 " fill-opacity="1" fill-rule="nonzero"/><path fill="#ffffff" d="M 240.832031 158.195312 C 239.511719 159.96875 238.113281 161.636719 236.671875 163.152344 L 239.253906 165.484375 C 240.785156 163.867188 242.273438 162.09375 243.675781 160.214844 L 240.832031 158.195312 " fill-opacity="1" fill-rule="nonzero"/><path fill="#ffffff" d="M 187.613281 176.933594 C 189.855469 177.644531 192.117188 178.238281 194.339844 178.695312 L 195.070312 175.339844 C 192.964844 174.90625 190.824219 174.34375 188.703125 173.671875 L 187.613281 176.933594 " fill-opacity="1" fill-rule="nonzero"/><path fill="#ffffff" d="M 301.449219 136.433594 C 303.402344 137.296875 305.402344 138.273438 307.394531 139.339844 L 309.082031 136.328125 C 307.011719 135.222656 304.929688 134.207031 302.898438 133.308594 L 301.449219 136.433594 " fill-opacity="1" fill-rule="nonzero"/><path fill="#ffffff" d="M 288.972656 132.261719 C 291.023438 132.710938 293.152344 133.304688 295.300781 134.03125 L 296.453125 130.789062 C 294.179688 130.019531 291.921875 129.390625 289.742188 128.914062 L 288.972656 132.261719 " fill-opacity="1" fill-rule="nonzero"/><g clip-path="url(#e27ac6319c)"><path fill="#ffffff" d="M 290.867188 165.582031 L 288.988281 165.699219 L 287.601562 166.976562 L 264.214844 188.550781 L 242.488281 123.171875 L 265.605469 103.449219 L 298.113281 104.664062 L 315.222656 139.878906 C 315.15625 139.835938 315.089844 139.796875 315.023438 139.753906 L 313.140625 142.652344 C 314.835938 143.703125 316.527344 144.816406 318.179688 145.96875 L 326.609375 163.316406 Z M 301.496094 99.476562 L 263.738281 98.066406 L 238.503906 119.59375 L 232.269531 118.492188 C 231.453125 120.082031 230.5625 121.722656 229.597656 123.414062 L 237.433594 124.796875 L 245.902344 150.269531 C 245.425781 151.132812 244.9375 151.984375 244.445312 152.804688 L 247.28125 154.429688 L 259.277344 190.527344 L 222.984375 188.867188 L 221.414062 188.792969 L 220.058594 189.589844 L 191.242188 206.445312 L 181.234375 174.253906 L 182.527344 171.375 C 181.574219 170.96875 180.722656 170.574219 179.984375 170.21875 L 169.484375 136.453125 L 189.121094 123.773438 C 188.199219 122.167969 187.347656 120.613281 186.5625 119.105469 L 163.21875 134.179688 L 188.15625 214.40625 L 222.742188 194.171875 L 263.910156 196.054688 L 291.203125 170.878906 L 334.84375 168.117188 L 301.496094 99.476562 " fill-opacity="1" fill-rule="nonzero"/></g><g clip-path="url(#fb9cb27425)"><path fill="#ffffff" d="M 195.964844 96.449219 C 195.964844 89.105469 201.917969 83.15625 209.257812 83.15625 C 216.597656 83.15625 222.550781 89.105469 222.550781 96.449219 C 222.550781 103.789062 216.597656 109.742188 209.257812 109.742188 C 201.917969 109.742188 195.964844 103.789062 195.964844 96.449219 Z M 233.652344 97.972656 C 233.652344 84.5 222.730469 73.582031 209.257812 73.582031 C 195.785156 73.582031 184.863281 84.5 184.863281 97.972656 C 184.863281 113.710938 209.257812 144.472656 209.257812 144.472656 C 209.257812 144.472656 233.652344 113.710938 233.652344 97.972656 " fill-opacity="1" fill-rule="nonzero"/></g><g fill="#053b60" fill-opacity="1"><g transform="translate(42.775761, 179.417916)"><g><path d="M -17.546875 -21.421875 L 0 -21.421875 L 0 -17.15625 L -10.53125 -17.15625 L 0 -13.21875 L 0 -9.78125 L -10.546875 -5.828125 L 0 -5.828125 L 0 -1.546875 L -17.546875 -1.546875 L -17.546875 -6.59375 L -5.40625 -11.53125 L -17.546875 -16.40625 Z M -17.546875 -21.421875 "/></g></g></g><g fill="#053b60" fill-opacity="1"><g transform="translate(42.775761, 156.471552)"><g><path d="M -7 -0.703125 C -8.4375 -0.703125 -9.695312 -0.972656 -10.78125 -1.515625 C -11.863281 -2.054688 -12.695312 -2.789062 -13.28125 -3.71875 C -13.863281 -4.65625 -14.15625 -5.695312 -14.15625 -6.84375 C -14.15625 -7.832031 -13.953125 -8.695312 -13.546875 -9.4375 C -13.148438 -10.175781 -12.625 -10.75 -11.96875 -11.15625 L -13.953125 -11.15625 L -13.953125 -15.421875 L 0 -15.421875 L 0 -11.15625 L -1.96875 -11.15625 C -1.320312 -10.738281 -0.796875 -10.15625 -0.390625 -9.40625 C 0.00390625 -8.664062 0.203125 -7.804688 0.203125 -6.828125 C 0.203125 -5.691406 -0.09375 -4.65625 -0.6875 -3.71875 C -1.28125 -2.789062 -2.117188 -2.054688 -3.203125 -1.515625 C -4.296875 -0.972656 -5.5625 -0.703125 -7 -0.703125 Z M -6.96875 -11.15625 C -8.039062 -11.15625 -8.882812 -10.859375 -9.5 -10.265625 C -10.113281 -9.671875 -10.421875 -8.945312 -10.421875 -8.09375 C -10.421875 -7.25 -10.113281 -6.53125 -9.5 -5.9375 C -8.894531 -5.34375 -8.0625 -5.046875 -7 -5.046875 C -5.9375 -5.046875 -5.09375 -5.34375 -4.46875 -5.9375 C -3.84375 -6.53125 -3.53125 -7.25 -3.53125 -8.09375 C -3.53125 -8.945312 -3.835938 -9.671875 -4.453125 -10.265625 C -5.066406 -10.859375 -5.90625 -11.15625 -6.96875 -11.15625 Z M -6.96875 -11.15625 "/></g></g></g><g fill="#053b60" fill-opacity="1"><g transform="translate(42.775761, 139.499245)"><g><path d="M -11.96875 -5.828125 C -12.625 -6.242188 -13.148438 -6.816406 -13.546875 -7.546875 C -13.953125 -8.285156 -14.15625 -9.144531 -14.15625 -10.125 C -14.15625 -11.269531 -13.863281 -12.3125 -13.28125 -13.25 C -12.695312 -14.1875 -11.863281 -14.925781 -10.78125 -15.46875 C -9.695312 -16.007812 -8.4375 -16.28125 -7 -16.28125 C -5.5625 -16.28125 -4.296875 -16.007812 -3.203125 -15.46875 C -2.117188 -14.925781 -1.28125 -14.1875 -0.6875 -13.25 C -0.09375 -12.3125 0.203125 -11.269531 0.203125 -10.125 C 0.203125 -9.15625 0.00390625 -8.300781 -0.390625 -7.5625 C -0.796875 -6.820312 -1.316406 -6.242188 -1.953125 -5.828125 L 6.65625 -5.828125 L 6.65625 -1.546875 L -13.953125 -1.546875 L -13.953125 -5.828125 Z M -7 -11.921875 C -8.0625 -11.921875 -8.894531 -11.625 -9.5 -11.03125 C -10.113281 -10.445312 -10.421875 -9.71875 -10.421875 -8.84375 C -10.421875 -8 -10.113281 -7.28125 -9.5 -6.6875 C -8.882812 -6.09375 -8.039062 -5.796875 -6.96875 -5.796875 C -5.90625 -5.796875 -5.066406 -6.09375 -4.453125 -6.6875 C -3.835938 -7.28125 -3.53125 -8 -3.53125 -8.84375 C -3.53125 -9.695312 -3.84375 -10.421875 -4.46875 -11.015625 C -5.09375 -11.617188 -5.9375 -11.921875 -7 -11.921875 Z M -7 -11.921875 "/></g></g></g><g fill="#053b60" fill-opacity="1"><g transform="translate(42.775761, 122.526937)"><g><path d="M 0.203125 -7.21875 C 0.203125 -6.007812 -0.00390625 -4.925781 -0.421875 -3.96875 C -0.835938 -3.019531 -1.40625 -2.269531 -2.125 -1.71875 C -2.851562 -1.175781 -3.671875 -0.867188 -4.578125 -0.796875 L -4.578125 -5.03125 C -4.085938 -5.070312 -3.691406 -5.289062 -3.390625 -5.6875 C -3.097656 -6.09375 -2.953125 -6.585938 -2.953125 -7.171875 C -2.953125 -7.703125 -3.054688 -8.113281 -3.265625 -8.40625 C -3.472656 -8.695312 -3.742188 -8.84375 -4.078125 -8.84375 C -4.472656 -8.84375 -4.765625 -8.632812 -4.953125 -8.21875 C -5.148438 -7.800781 -5.363281 -7.128906 -5.59375 -6.203125 C -5.832031 -5.203125 -6.078125 -4.367188 -6.328125 -3.703125 C -6.585938 -3.035156 -7 -2.457031 -7.5625 -1.96875 C -8.125 -1.488281 -8.878906 -1.25 -9.828125 -1.25 C -10.628906 -1.25 -11.359375 -1.46875 -12.015625 -1.90625 C -12.671875 -2.351562 -13.191406 -3.003906 -13.578125 -3.859375 C -13.960938 -4.722656 -14.15625 -5.742188 -14.15625 -6.921875 C -14.15625 -8.671875 -13.71875 -10.050781 -12.84375 -11.0625 C -11.976562 -12.070312 -10.832031 -12.648438 -9.40625 -12.796875 L -9.40625 -8.84375 C -9.882812 -8.78125 -10.265625 -8.566406 -10.546875 -8.203125 C -10.828125 -7.847656 -10.96875 -7.378906 -10.96875 -6.796875 C -10.96875 -6.296875 -10.875 -5.910156 -10.6875 -5.640625 C -10.5 -5.378906 -10.238281 -5.25 -9.90625 -5.25 C -9.5 -5.25 -9.195312 -5.460938 -9 -5.890625 C -8.800781 -6.316406 -8.601562 -6.976562 -8.40625 -7.875 C -8.132812 -8.90625 -7.867188 -9.742188 -7.609375 -10.390625 C -7.347656 -11.046875 -6.929688 -11.617188 -6.359375 -12.109375 C -5.785156 -12.597656 -5.015625 -12.851562 -4.046875 -12.875 C -3.234375 -12.875 -2.503906 -12.644531 -1.859375 -12.1875 C -1.222656 -11.726562 -0.71875 -11.066406 -0.34375 -10.203125 C 0.0195312 -9.347656 0.203125 -8.351562 0.203125 -7.21875 Z M 0.203125 -7.21875 "/></g></g></g></svg>