<svg xmlns="http://www.w3.org/2000/svg" xmlns:xlink="http://www.w3.org/1999/xlink" width="576" zoomAndPan="magnify" viewBox="0 0 432 287.999989" height="384" preserveAspectRatio="xMidYMid meet" version="1.0"><defs><g/><clipPath id="e70bbc5764"><path d="M 0 0 L 69.054688 0 L 69.054688 288 L 0 288 Z M 0 0 " clip-rule="nonzero"/></clipPath><clipPath id="769413c3e8"><path d="M 188.976562 86.398438 L 304.476562 86.398438 L 304.476562 201.898438 L 188.976562 201.898438 Z M 188.976562 86.398438 " clip-rule="nonzero"/></clipPath></defs><rect x="-43.2" width="518.4" fill="#ffffff" y="-28.799999" height="345.599986" fill-opacity="1"/><rect x="-43.2" width="518.4" fill="#053b60" y="-28.799999" height="345.599986" fill-opacity="1"/><g clip-path="url(#e70bbc5764)"><path fill="#0079c1" d="M 0 0 L 69.054688 0 L 69.054688 288.089844 L 0 288.089844 Z M 0 0 " fill-opacity="1" fill-rule="nonzero"/></g><path fill="#ffffff" d="M 196.65625 94.078125 L 200.496094 94.078125 L 200.496094 97.917969 L 196.65625 97.917969 Z M 196.65625 94.078125 " fill-opacity="1" fill-rule="nonzero"/><path fill="#ffffff" d="M 204.335938 94.078125 L 208.175781 94.078125 L 208.175781 97.917969 L 204.335938 97.917969 Z M 204.335938 94.078125 " fill-opacity="1" fill-rule="nonzero"/><path fill="#ffffff" d="M 212.015625 94.078125 L 215.855469 94.078125 L 215.855469 97.917969 L 212.015625 97.917969 Z M 212.015625 94.078125 " fill-opacity="1" fill-rule="nonzero"/><g clip-path="url(#769413c3e8)"><path fill="#ffffff" d="M 298.414062 86.398438 L 194.738281 86.398438 C 191.570312 86.398438 188.976562 88.992188 188.976562 92.160156 L 188.976562 195.835938 C 188.976562 199.003906 191.570312 201.59375 194.738281 201.59375 L 298.414062 201.59375 C 301.582031 201.59375 304.171875 199.003906 304.171875 195.835938 L 304.171875 92.160156 C 304.171875 88.992188 301.582031 86.398438 298.414062 86.398438 Z M 300.332031 94.078125 L 219.695312 94.078125 L 219.695312 97.917969 L 300.332031 97.917969 L 300.332031 195.835938 C 300.332031 196.890625 299.46875 197.753906 298.414062 197.753906 L 194.738281 197.753906 C 193.679688 197.753906 192.816406 196.890625 192.816406 195.835938 L 192.816406 92.160156 C 192.816406 91.105469 193.679688 90.238281 194.738281 90.238281 L 298.414062 90.238281 C 299.46875 90.238281 300.332031 91.105469 300.332031 92.160156 Z M 300.332031 94.078125 " fill-opacity="1" fill-rule="nonzero"/></g><path fill="#ffffff" d="M 225.457031 105.597656 L 267.695312 105.597656 L 267.695312 109.4375 L 225.457031 109.4375 Z M 225.457031 105.597656 " fill-opacity="1" fill-rule="nonzero"/><path fill="#ffffff" d="M 200.496094 122.878906 L 200.496094 134.398438 C 200.496094 135.453125 201.359375 136.316406 202.417969 136.316406 L 260.015625 136.316406 L 260.015625 132.476562 L 204.335938 132.476562 L 204.335938 124.796875 L 288.8125 124.796875 L 288.8125 132.476562 L 283.054688 132.476562 L 283.054688 136.316406 L 290.734375 136.316406 C 291.789062 136.316406 292.652344 135.453125 292.652344 134.398438 L 292.652344 122.878906 C 292.652344 121.824219 291.789062 120.957031 290.734375 120.957031 L 202.417969 120.957031 C 201.359375 120.957031 200.496094 121.824219 200.496094 122.878906 Z M 200.496094 122.878906 " fill-opacity="1" fill-rule="nonzero"/><path fill="#ffffff" d="M 200.496094 113.277344 L 217.777344 113.277344 L 217.777344 117.117188 L 200.496094 117.117188 Z M 200.496094 113.277344 " fill-opacity="1" fill-rule="nonzero"/><path fill="#ffffff" d="M 200.496094 142.078125 L 227.375 142.078125 L 227.375 145.917969 L 200.496094 145.917969 Z M 200.496094 142.078125 " fill-opacity="1" fill-rule="nonzero"/><path fill="#ffffff" d="M 290.734375 149.757812 L 284.972656 149.757812 L 284.972656 153.597656 L 288.8125 153.597656 L 288.8125 161.277344 L 278.832031 161.277344 L 281.132812 160.4375 C 282.117188 160.078125 282.644531 158.972656 282.285156 157.964844 L 277.847656 145.84375 L 283.269531 145.269531 C 284.0625 145.171875 284.710938 144.621094 284.925781 143.855469 C 285.140625 143.085938 284.855469 142.269531 284.207031 141.8125 L 267.429688 129.574219 C 266.902344 129.191406 266.230469 129.09375 265.628906 129.335938 C 265.03125 129.550781 264.574219 130.054688 264.429688 130.679688 L 259.582031 150.863281 C 259.390625 151.628906 259.703125 152.445312 260.351562 152.902344 C 261 153.355469 261.863281 153.355469 262.511719 152.902344 L 267.023438 149.828125 L 271.222656 161.277344 L 204.335938 161.277344 L 204.335938 153.597656 L 256.175781 153.597656 L 256.175781 149.757812 L 202.417969 149.757812 C 201.359375 149.757812 200.496094 150.621094 200.496094 151.675781 L 200.496094 163.195312 C 200.496094 164.253906 201.359375 165.117188 202.417969 165.117188 L 290.734375 165.117188 C 291.789062 165.117188 292.652344 164.253906 292.652344 163.195312 L 292.652344 151.675781 C 292.652344 150.621094 291.789062 149.757812 290.734375 149.757812 Z M 268.558594 145.03125 C 268.367188 144.957031 268.175781 144.933594 267.984375 144.933594 C 267.597656 144.933594 267.214844 145.054688 266.902344 145.269531 L 264.453125 146.925781 L 267.480469 134.375 L 277.917969 142.003906 L 274.992188 142.316406 C 274.390625 142.390625 273.886719 142.703125 273.574219 143.207031 C 273.261719 143.710938 273.191406 144.332031 273.40625 144.886719 L 278.039062 157.507812 L 274.4375 158.828125 L 269.804688 146.207031 C 269.566406 145.652344 269.132812 145.222656 268.558594 145.03125 Z M 268.558594 145.03125 " fill-opacity="1" fill-rule="nonzero"/><path fill="#ffffff" d="M 200.496094 170.875 L 227.375 170.875 L 227.375 174.714844 L 200.496094 174.714844 Z M 200.496094 170.875 " fill-opacity="1" fill-rule="nonzero"/><path fill="#ffffff" d="M 290.734375 178.554688 L 202.417969 178.554688 C 201.359375 178.554688 200.496094 179.421875 200.496094 180.476562 L 200.496094 191.996094 C 200.496094 193.050781 201.359375 193.914062 202.417969 193.914062 L 290.734375 193.914062 C 291.789062 193.914062 292.652344 193.050781 292.652344 191.996094 L 292.652344 180.476562 C 292.652344 179.421875 291.789062 178.554688 290.734375 178.554688 Z M 288.8125 190.074219 L 204.335938 190.074219 L 204.335938 182.394531 L 288.8125 182.394531 Z M 288.8125 190.074219 " fill-opacity="1" fill-rule="nonzero"/><g fill="#ffffff" fill-opacity="1"><g transform="translate(45.662231, 215.240255)"><g><path d="M 0 -13.171875 L -4.25 -11.875 L -4.25 -5.375 L 0 -4.078125 L 0 0 L -17.921875 -6.296875 L -17.921875 -10.921875 L 0 -17.25 Z M -7.421875 -10.96875 L -11.578125 -9.6875 C -11.847656 -9.601562 -12.203125 -9.492188 -12.640625 -9.359375 C -13.078125 -9.222656 -13.519531 -9.085938 -13.96875 -8.953125 C -14.425781 -8.816406 -14.820312 -8.707031 -15.15625 -8.625 C -14.820312 -8.550781 -14.40625 -8.441406 -13.90625 -8.296875 C -13.414062 -8.148438 -12.953125 -8.007812 -12.515625 -7.875 C -12.078125 -7.75 -11.765625 -7.660156 -11.578125 -7.609375 L -7.421875 -6.328125 Z M -7.421875 -10.96875 "/></g></g></g><g fill="#ffffff" fill-opacity="1"><g transform="translate(45.662231, 197.99441)"><g><path d="M -13.90625 -9.546875 C -13.90625 -11.085938 -13.304688 -12.332031 -12.109375 -13.28125 C -10.910156 -14.226562 -9.15625 -14.703125 -6.84375 -14.703125 C -5.300781 -14.703125 -4.003906 -14.476562 -2.953125 -14.03125 C -1.898438 -13.582031 -1.101562 -12.960938 -0.5625 -12.171875 C -0.0195312 -11.378906 0.25 -10.472656 0.25 -9.453125 C 0.25 -8.785156 0.164062 -8.21875 0 -7.75 C -0.164062 -7.28125 -0.378906 -6.878906 -0.640625 -6.546875 C -0.910156 -6.210938 -1.195312 -5.921875 -1.5 -5.671875 L -1.5 -5.484375 C -1.175781 -5.546875 -0.84375 -5.59375 -0.5 -5.625 C -0.15625 -5.65625 0.175781 -5.671875 0.5 -5.671875 L 6 -5.671875 L 6 -1.953125 L -13.640625 -1.953125 L -13.640625 -4.984375 L -11.875 -5.5 L -11.875 -5.671875 C -12.238281 -5.921875 -12.578125 -6.21875 -12.890625 -6.5625 C -13.203125 -6.914062 -13.445312 -7.335938 -13.625 -7.828125 C -13.8125 -8.316406 -13.90625 -8.890625 -13.90625 -9.546875 Z M -10.921875 -8.34375 C -10.921875 -7.695312 -10.785156 -7.179688 -10.515625 -6.796875 C -10.253906 -6.410156 -9.851562 -6.128906 -9.3125 -5.953125 C -8.78125 -5.785156 -8.101562 -5.691406 -7.28125 -5.671875 L -6.875 -5.671875 C -5.988281 -5.671875 -5.238281 -5.753906 -4.625 -5.921875 C -4.019531 -6.085938 -3.554688 -6.367188 -3.234375 -6.765625 C -2.921875 -7.160156 -2.765625 -7.707031 -2.765625 -8.40625 C -2.765625 -8.96875 -2.921875 -9.429688 -3.234375 -9.796875 C -3.554688 -10.171875 -4.023438 -10.445312 -4.640625 -10.625 C -5.253906 -10.8125 -6.003906 -10.90625 -6.890625 -10.90625 C -8.234375 -10.90625 -9.238281 -10.695312 -9.90625 -10.28125 C -10.582031 -9.863281 -10.921875 -9.21875 -10.921875 -8.34375 Z M -10.921875 -8.34375 "/></g></g></g><g fill="#ffffff" fill-opacity="1"><g transform="translate(45.662231, 182.176571)"><g><path d="M -13.90625 -9.546875 C -13.90625 -11.085938 -13.304688 -12.332031 -12.109375 -13.28125 C -10.910156 -14.226562 -9.15625 -14.703125 -6.84375 -14.703125 C -5.300781 -14.703125 -4.003906 -14.476562 -2.953125 -14.03125 C -1.898438 -13.582031 -1.101562 -12.960938 -0.5625 -12.171875 C -0.0195312 -11.378906 0.25 -10.472656 0.25 -9.453125 C 0.25 -8.785156 0.164062 -8.21875 0 -7.75 C -0.164062 -7.28125 -0.378906 -6.878906 -0.640625 -6.546875 C -0.910156 -6.210938 -1.195312 -5.921875 -1.5 -5.671875 L -1.5 -5.484375 C -1.175781 -5.546875 -0.84375 -5.59375 -0.5 -5.625 C -0.15625 -5.65625 0.175781 -5.671875 0.5 -5.671875 L 6 -5.671875 L 6 -1.953125 L -13.640625 -1.953125 L -13.640625 -4.984375 L -11.875 -5.5 L -11.875 -5.671875 C -12.238281 -5.921875 -12.578125 -6.21875 -12.890625 -6.5625 C -13.203125 -6.914062 -13.445312 -7.335938 -13.625 -7.828125 C -13.8125 -8.316406 -13.90625 -8.890625 -13.90625 -9.546875 Z M -10.921875 -8.34375 C -10.921875 -7.695312 -10.785156 -7.179688 -10.515625 -6.796875 C -10.253906 -6.410156 -9.851562 -6.128906 -9.3125 -5.953125 C -8.78125 -5.785156 -8.101562 -5.691406 -7.28125 -5.671875 L -6.875 -5.671875 C -5.988281 -5.671875 -5.238281 -5.753906 -4.625 -5.921875 C -4.019531 -6.085938 -3.554688 -6.367188 -3.234375 -6.765625 C -2.921875 -7.160156 -2.765625 -7.707031 -2.765625 -8.40625 C -2.765625 -8.96875 -2.921875 -9.429688 -3.234375 -9.796875 C -3.554688 -10.171875 -4.023438 -10.445312 -4.640625 -10.625 C -5.253906 -10.8125 -6.003906 -10.90625 -6.890625 -10.90625 C -8.234375 -10.90625 -9.238281 -10.695312 -9.90625 -10.28125 C -10.582031 -9.863281 -10.921875 -9.21875 -10.921875 -8.34375 Z M -10.921875 -8.34375 "/></g></g></g><g fill="#ffffff" fill-opacity="1"><g transform="translate(45.662231, 166.358732)"><g><path d="M 0 -5.671875 L 0 -1.953125 L -19 -1.953125 L -19 -5.671875 Z M 0 -5.671875 "/></g></g></g><g fill="#ffffff" fill-opacity="1"><g transform="translate(45.662231, 158.730524)"><g><path d="M -13.640625 -5.671875 L 0 -5.671875 L 0 -1.953125 L -13.640625 -1.953125 Z M -19 -3.828125 C -19 -4.378906 -18.867188 -4.851562 -18.609375 -5.25 C -18.347656 -5.644531 -17.867188 -5.84375 -17.171875 -5.84375 C -16.484375 -5.84375 -16.003906 -5.644531 -15.734375 -5.25 C -15.472656 -4.851562 -15.34375 -4.378906 -15.34375 -3.828125 C -15.34375 -3.265625 -15.472656 -2.785156 -15.734375 -2.390625 C -16.003906 -1.992188 -16.484375 -1.796875 -17.171875 -1.796875 C -17.867188 -1.796875 -18.347656 -1.992188 -18.609375 -2.390625 C -18.867188 -2.785156 -19 -3.265625 -19 -3.828125 Z M -19 -3.828125 "/></g></g></g><g fill="#ffffff" fill-opacity="1"><g transform="translate(45.662231, 151.102317)"><g><path d="M 0.25 -7.5 C 0.25 -6.144531 0.00390625 -4.988281 -0.484375 -4.03125 C -0.984375 -3.082031 -1.75 -2.359375 -2.78125 -1.859375 C -3.8125 -1.367188 -5.132812 -1.125 -6.75 -1.125 C -8.414062 -1.125 -9.773438 -1.40625 -10.828125 -1.96875 C -11.890625 -2.53125 -12.664062 -3.3125 -13.15625 -4.3125 C -13.65625 -5.320312 -13.90625 -6.492188 -13.90625 -7.828125 C -13.90625 -8.765625 -13.8125 -9.578125 -13.625 -10.265625 C -13.445312 -10.953125 -13.226562 -11.554688 -12.96875 -12.078125 L -10.09375 -10.96875 C -10.332031 -10.382812 -10.523438 -9.835938 -10.671875 -9.328125 C -10.828125 -8.828125 -10.90625 -8.328125 -10.90625 -7.828125 C -10.90625 -7.171875 -10.75 -6.625 -10.4375 -6.1875 C -10.132812 -5.757812 -9.675781 -5.441406 -9.0625 -5.234375 C -8.457031 -5.023438 -7.695312 -4.921875 -6.78125 -4.921875 C -5.875 -4.921875 -5.125 -5.035156 -4.53125 -5.265625 C -3.9375 -5.492188 -3.492188 -5.820312 -3.203125 -6.25 C -2.910156 -6.675781 -2.765625 -7.203125 -2.765625 -7.828125 C -2.765625 -8.597656 -2.867188 -9.285156 -3.078125 -9.890625 C -3.285156 -10.492188 -3.578125 -11.078125 -3.953125 -11.640625 L -0.765625 -11.640625 C -0.410156 -11.078125 -0.15625 -10.484375 0 -9.859375 C 0.164062 -9.234375 0.25 -8.445312 0.25 -7.5 Z M 0.25 -7.5 "/></g></g></g><g fill="#ffffff" fill-opacity="1"><g transform="translate(45.662231, 138.250317)"><g><path d="M -13.921875 -7.546875 C -13.921875 -9.378906 -13.519531 -10.78125 -12.71875 -11.75 C -11.925781 -12.726562 -10.71875 -13.21875 -9.09375 -13.21875 L 0 -13.21875 L 0 -10.625 L -1.859375 -9.90625 L -1.859375 -9.796875 C -1.367188 -9.410156 -0.96875 -9.015625 -0.65625 -8.609375 C -0.351562 -8.203125 -0.128906 -7.734375 0.015625 -7.203125 C 0.171875 -6.671875 0.25 -6.03125 0.25 -5.28125 C 0.25 -4.46875 0.09375 -3.742188 -0.21875 -3.109375 C -0.53125 -2.472656 -1.003906 -1.96875 -1.640625 -1.59375 C -2.273438 -1.226562 -3.085938 -1.046875 -4.078125 -1.046875 C -5.523438 -1.046875 -6.59375 -1.554688 -7.28125 -2.578125 C -7.96875 -3.597656 -8.347656 -5.125 -8.421875 -7.15625 L -8.5 -9.515625 L -9.09375 -9.515625 C -9.8125 -9.515625 -10.335938 -9.328125 -10.671875 -8.953125 C -11.003906 -8.585938 -11.171875 -8.066406 -11.171875 -7.390625 C -11.171875 -6.734375 -11.078125 -6.085938 -10.890625 -5.453125 C -10.703125 -4.816406 -10.46875 -4.179688 -10.1875 -3.546875 L -12.703125 -2.3125 C -13.078125 -3.039062 -13.375 -3.851562 -13.59375 -4.75 C -13.8125 -5.65625 -13.921875 -6.585938 -13.921875 -7.546875 Z M -6.328125 -9.515625 L -6.28125 -8.078125 C -6.238281 -6.878906 -6.019531 -6.046875 -5.625 -5.578125 C -5.226562 -5.109375 -4.703125 -4.875 -4.046875 -4.875 C -3.484375 -4.875 -3.082031 -5.039062 -2.84375 -5.375 C -2.601562 -5.707031 -2.484375 -6.140625 -2.484375 -6.671875 C -2.484375 -7.472656 -2.71875 -8.144531 -3.1875 -8.6875 C -3.65625 -9.238281 -4.328125 -9.515625 -5.203125 -9.515625 Z M -6.328125 -9.515625 "/></g></g></g><g fill="#ffffff" fill-opacity="1"><g transform="translate(45.662231, 123.152574)"><g><path d="M -2.71875 -7.703125 C -2.71875 -8.109375 -2.757812 -8.503906 -2.84375 -8.890625 C -2.925781 -9.273438 -3.03125 -9.660156 -3.15625 -10.046875 L -0.375 -10.046875 C -0.195312 -9.648438 -0.0507812 -9.15625 0.0625 -8.5625 C 0.1875 -7.96875 0.25 -7.320312 0.25 -6.625 C 0.25 -5.8125 0.117188 -5.082031 -0.140625 -4.4375 C -0.410156 -3.789062 -0.875 -3.28125 -1.53125 -2.90625 C -2.1875 -2.539062 -3.097656 -2.359375 -4.265625 -2.359375 L -10.859375 -2.359375 L -10.859375 -0.578125 L -12.421875 -0.578125 L -13.671875 -2.625 L -16.546875 -3.703125 L -16.546875 -6.078125 L -13.640625 -6.078125 L -13.640625 -9.90625 L -10.859375 -9.90625 L -10.859375 -6.078125 L -4.265625 -6.078125 C -3.742188 -6.078125 -3.351562 -6.222656 -3.09375 -6.515625 C -2.84375 -6.816406 -2.71875 -7.210938 -2.71875 -7.703125 Z M -2.71875 -7.703125 "/></g></g></g><g fill="#ffffff" fill-opacity="1"><g transform="translate(45.662231, 112.302214)"><g><path d="M -13.640625 -5.671875 L 0 -5.671875 L 0 -1.953125 L -13.640625 -1.953125 Z M -19 -3.828125 C -19 -4.378906 -18.867188 -4.851562 -18.609375 -5.25 C -18.347656 -5.644531 -17.867188 -5.84375 -17.171875 -5.84375 C -16.484375 -5.84375 -16.003906 -5.644531 -15.734375 -5.25 C -15.472656 -4.851562 -15.34375 -4.378906 -15.34375 -3.828125 C -15.34375 -3.265625 -15.472656 -2.785156 -15.734375 -2.390625 C -16.003906 -1.992188 -16.484375 -1.796875 -17.171875 -1.796875 C -17.867188 -1.796875 -18.347656 -1.992188 -18.609375 -2.390625 C -18.867188 -2.785156 -19 -3.265625 -19 -3.828125 Z M -19 -3.828125 "/></g></g></g><g fill="#ffffff" fill-opacity="1"><g transform="translate(45.662231, 104.674007)"><g><path d="M -6.84375 -14.359375 C -5.707031 -14.359375 -4.695312 -14.203125 -3.8125 -13.890625 C -2.9375 -13.585938 -2.195312 -13.144531 -1.59375 -12.5625 C -0.988281 -11.976562 -0.53125 -11.273438 -0.21875 -10.453125 C 0.09375 -9.640625 0.25 -8.722656 0.25 -7.703125 C 0.25 -6.742188 0.09375 -5.863281 -0.21875 -5.0625 C -0.53125 -4.257812 -0.988281 -3.5625 -1.59375 -2.96875 C -2.195312 -2.382812 -2.9375 -1.929688 -3.8125 -1.609375 C -4.695312 -1.285156 -5.707031 -1.125 -6.84375 -1.125 C -8.363281 -1.125 -9.644531 -1.390625 -10.6875 -1.921875 C -11.738281 -2.460938 -12.535156 -3.226562 -13.078125 -4.21875 C -13.628906 -5.21875 -13.90625 -6.40625 -13.90625 -7.78125 C -13.90625 -9.050781 -13.628906 -10.179688 -13.078125 -11.171875 C -12.535156 -12.160156 -11.738281 -12.9375 -10.6875 -13.5 C -9.644531 -14.070312 -8.363281 -14.359375 -6.84375 -14.359375 Z M -6.84375 -4.921875 C -5.945312 -4.921875 -5.191406 -5.015625 -4.578125 -5.203125 C -3.972656 -5.398438 -3.515625 -5.707031 -3.203125 -6.125 C -2.898438 -6.539062 -2.75 -7.082031 -2.75 -7.75 C -2.75 -8.40625 -2.898438 -8.9375 -3.203125 -9.34375 C -3.515625 -9.757812 -3.972656 -10.0625 -4.578125 -10.25 C -5.191406 -10.445312 -5.945312 -10.546875 -6.84375 -10.546875 C -7.75 -10.546875 -8.5 -10.445312 -9.09375 -10.25 C -9.695312 -10.0625 -10.148438 -9.757812 -10.453125 -9.34375 C -10.753906 -8.9375 -10.90625 -8.398438 -10.90625 -7.734375 C -10.90625 -6.742188 -10.566406 -6.023438 -9.890625 -5.578125 C -9.210938 -5.140625 -8.195312 -4.921875 -6.84375 -4.921875 Z M -6.84375 -4.921875 "/></g></g></g><g fill="#ffffff" fill-opacity="1"><g transform="translate(45.662231, 89.197911)"><g><path d="M -13.90625 -9.703125 C -13.90625 -11.160156 -13.507812 -12.332031 -12.71875 -13.21875 C -11.925781 -14.101562 -10.65625 -14.546875 -8.90625 -14.546875 L 0 -14.546875 L 0 -10.828125 L -7.96875 -10.828125 C -8.945312 -10.828125 -9.679688 -10.648438 -10.171875 -10.296875 C -10.671875 -9.941406 -10.921875 -9.382812 -10.921875 -8.625 C -10.921875 -7.488281 -10.535156 -6.710938 -9.765625 -6.296875 C -8.992188 -5.878906 -7.878906 -5.671875 -6.421875 -5.671875 L 0 -5.671875 L 0 -1.953125 L -13.640625 -1.953125 L -13.640625 -4.796875 L -11.90625 -5.296875 L -11.90625 -5.5 C -12.375 -5.789062 -12.753906 -6.15625 -13.046875 -6.59375 C -13.335938 -7.03125 -13.550781 -7.515625 -13.6875 -8.046875 C -13.832031 -8.578125 -13.90625 -9.128906 -13.90625 -9.703125 Z M -13.90625 -9.703125 "/></g></g></g></svg>