<svg xmlns="http://www.w3.org/2000/svg" xmlns:xlink="http://www.w3.org/1999/xlink" width="576" zoomAndPan="magnify" viewBox="0 0 432 287.999989" height="384" preserveAspectRatio="xMidYMid meet" version="1.0"><defs><g/><clipPath id="c1a0703b32"><path d="M 0 0 L 69.054688 0 L 69.054688 288 L 0 288 Z M 0 0 " clip-rule="nonzero"/></clipPath><clipPath id="316777c3b3"><path d="M 181.15625 73.582031 L 322 73.582031 L 322 214.582031 L 181.15625 214.582031 Z M 181.15625 73.582031 " clip-rule="nonzero"/></clipPath></defs><rect x="-43.2" width="518.4" fill="#ffffff" y="-28.799999" height="345.599986" fill-opacity="1"/><rect x="-43.2" width="518.4" fill="#053b60" y="-28.799999" height="345.599986" fill-opacity="1"/><g clip-path="url(#c1a0703b32)"><path fill="#ccaa55" d="M 0 0 L 69.054688 0 L 69.054688 288.089844 L 0 288.089844 Z M 0 0 " fill-opacity="1" fill-rule="nonzero"/></g><g fill="#053b60" fill-opacity="1"><g transform="translate(42.775761, 177.390572)"><g><path d="M -17.546875 -12.96875 L -14.125 -12.96875 L -14.125 -5.828125 L -10.421875 -5.828125 L -10.421875 -11.171875 L -7.09375 -11.171875 L -7.09375 -5.828125 L 0 -5.828125 L 0 -1.546875 L -17.546875 -1.546875 Z M -17.546875 -12.96875 "/></g></g></g><g fill="#053b60" fill-opacity="1"><g transform="translate(42.775761, 163.717734)"><g><path d="M 0.203125 -7.90625 C 0.203125 -6.53125 -0.0859375 -5.296875 -0.671875 -4.203125 C -1.253906 -3.117188 -2.085938 -2.265625 -3.171875 -1.640625 C -4.253906 -1.015625 -5.519531 -0.703125 -6.96875 -0.703125 C -8.40625 -0.703125 -9.671875 -1.015625 -10.765625 -1.640625 C -11.859375 -2.273438 -12.695312 -3.144531 -13.28125 -4.25 C -13.863281 -5.351562 -14.15625 -6.585938 -14.15625 -7.953125 C -14.15625 -9.316406 -13.863281 -10.546875 -13.28125 -11.640625 C -12.695312 -12.742188 -11.859375 -13.613281 -10.765625 -14.25 C -9.671875 -14.882812 -8.40625 -15.203125 -6.96875 -15.203125 C -5.539062 -15.203125 -4.28125 -14.878906 -3.1875 -14.234375 C -2.09375 -13.597656 -1.253906 -12.722656 -0.671875 -11.609375 C -0.0859375 -10.503906 0.203125 -9.269531 0.203125 -7.90625 Z M -3.5 -7.90625 C -3.5 -8.71875 -3.796875 -9.410156 -4.390625 -9.984375 C -4.992188 -10.554688 -5.851562 -10.84375 -6.96875 -10.84375 C -8.09375 -10.84375 -8.953125 -10.5625 -9.546875 -10 C -10.148438 -9.445312 -10.453125 -8.765625 -10.453125 -7.953125 C -10.453125 -7.117188 -10.15625 -6.425781 -9.5625 -5.875 C -8.96875 -5.320312 -8.101562 -5.046875 -6.96875 -5.046875 C -5.851562 -5.046875 -4.992188 -5.316406 -4.390625 -5.859375 C -3.796875 -6.398438 -3.5 -7.082031 -3.5 -7.90625 Z M -3.5 -7.90625 "/></g></g></g><g fill="#053b60" fill-opacity="1"><g transform="translate(42.775761, 147.795261)"><g><path d="M -11.625 -5.828125 C -12.394531 -6.328125 -13 -6.953125 -13.4375 -7.703125 C -13.875 -8.453125 -14.09375 -9.285156 -14.09375 -10.203125 L -9.578125 -10.203125 L -9.578125 -9.03125 C -9.578125 -7.957031 -9.347656 -7.15625 -8.890625 -6.625 C -8.429688 -6.09375 -7.625 -5.828125 -6.46875 -5.828125 L 0 -5.828125 L 0 -1.546875 L -13.953125 -1.546875 L -13.953125 -5.828125 Z M -11.625 -5.828125 "/></g></g></g><g fill="#053b60" fill-opacity="1"><g transform="translate(42.775761, 137.096959)"><g><path d="M -14.09375 -19.34375 C -14.09375 -21.082031 -13.566406 -22.460938 -12.515625 -23.484375 C -11.472656 -24.515625 -10.019531 -25.03125 -8.15625 -25.03125 L 0 -25.03125 L 0 -20.78125 L -7.578125 -20.78125 C -8.472656 -20.78125 -9.164062 -20.539062 -9.65625 -20.0625 C -10.15625 -19.582031 -10.40625 -18.925781 -10.40625 -18.09375 C -10.40625 -17.257812 -10.15625 -16.601562 -9.65625 -16.125 C -9.164062 -15.65625 -8.472656 -15.421875 -7.578125 -15.421875 L 0 -15.421875 L 0 -11.171875 L -7.578125 -11.171875 C -8.472656 -11.171875 -9.164062 -10.929688 -9.65625 -10.453125 C -10.15625 -9.984375 -10.40625 -9.332031 -10.40625 -8.5 C -10.40625 -7.664062 -10.15625 -7.007812 -9.65625 -6.53125 C -9.164062 -6.0625 -8.472656 -5.828125 -7.578125 -5.828125 L 0 -5.828125 L 0 -1.546875 L -13.953125 -1.546875 L -13.953125 -5.828125 L -12.203125 -5.828125 C -12.785156 -6.253906 -13.242188 -6.816406 -13.578125 -7.515625 C -13.921875 -8.222656 -14.09375 -9.019531 -14.09375 -9.90625 C -14.09375 -10.945312 -13.867188 -11.878906 -13.421875 -12.703125 C -12.972656 -13.535156 -12.332031 -14.1875 -11.5 -14.65625 C -12.269531 -15.132812 -12.894531 -15.789062 -13.375 -16.625 C -13.851562 -17.457031 -14.09375 -18.363281 -14.09375 -19.34375 Z M -14.09375 -19.34375 "/></g></g></g><path fill="#ffffff" d="M 190.542969 82.972656 L 195.238281 82.972656 L 195.238281 87.664062 L 190.542969 87.664062 Z M 190.542969 82.972656 " fill-opacity="1" fill-rule="nonzero"/><path fill="#ffffff" d="M 199.933594 82.972656 L 204.628906 82.972656 L 204.628906 87.664062 L 199.933594 87.664062 Z M 199.933594 82.972656 " fill-opacity="1" fill-rule="nonzero"/><path fill="#ffffff" d="M 209.324219 82.972656 L 214.015625 82.972656 L 214.015625 87.664062 L 209.324219 87.664062 Z M 209.324219 82.972656 " fill-opacity="1" fill-rule="nonzero"/><g clip-path="url(#316777c3b3)"><path fill="#ffffff" d="M 314.949219 73.582031 L 188.199219 73.582031 C 184.324219 73.582031 181.15625 76.75 181.15625 80.625 L 181.15625 207.375 C 181.15625 211.25 184.324219 214.417969 188.199219 214.417969 L 314.949219 214.417969 C 318.824219 214.417969 321.992188 211.25 321.992188 207.375 L 321.992188 80.625 C 321.992188 76.75 318.824219 73.582031 314.949219 73.582031 Z M 317.296875 82.972656 L 218.710938 82.972656 L 218.710938 87.664062 L 317.296875 87.664062 L 317.296875 207.375 C 317.296875 208.667969 316.242188 209.722656 314.949219 209.722656 L 188.199219 209.722656 C 186.90625 209.722656 185.851562 208.667969 185.851562 207.375 L 185.851562 80.625 C 185.851562 79.332031 186.90625 78.277344 188.199219 78.277344 L 314.949219 78.277344 C 316.242188 78.277344 317.296875 79.332031 317.296875 80.625 Z M 317.296875 82.972656 " fill-opacity="1" fill-rule="nonzero"/></g><path fill="#ffffff" d="M 225.753906 97.054688 L 277.394531 97.054688 L 277.394531 101.75 L 225.753906 101.75 Z M 225.753906 97.054688 " fill-opacity="1" fill-rule="nonzero"/><path fill="#ffffff" d="M 195.238281 118.179688 L 195.238281 132.261719 C 195.238281 133.554688 196.296875 134.609375 197.585938 134.609375 L 268.003906 134.609375 L 268.003906 129.917969 L 199.933594 129.917969 L 199.933594 120.527344 L 303.214844 120.527344 L 303.214844 129.917969 L 296.171875 129.917969 L 296.171875 134.609375 L 305.5625 134.609375 C 306.851562 134.609375 307.90625 133.554688 307.90625 132.261719 L 307.90625 118.179688 C 307.90625 116.890625 306.851562 115.832031 305.5625 115.832031 L 197.585938 115.832031 C 196.296875 115.832031 195.238281 116.890625 195.238281 118.179688 Z M 195.238281 118.179688 " fill-opacity="1" fill-rule="nonzero"/><path fill="#ffffff" d="M 195.238281 106.445312 L 216.363281 106.445312 L 216.363281 111.136719 L 195.238281 111.136719 Z M 195.238281 106.445312 " fill-opacity="1" fill-rule="nonzero"/><path fill="#ffffff" d="M 195.238281 141.652344 L 228.101562 141.652344 L 228.101562 146.347656 L 195.238281 146.347656 Z M 195.238281 141.652344 " fill-opacity="1" fill-rule="nonzero"/><path fill="#ffffff" d="M 305.5625 151.042969 L 298.519531 151.042969 L 298.519531 155.734375 L 303.214844 155.734375 L 303.214844 165.125 L 291.007812 165.125 L 293.824219 164.097656 C 295.027344 163.65625 295.671875 162.308594 295.234375 161.074219 L 289.804688 146.257812 L 296.4375 145.554688 C 297.402344 145.4375 298.195312 144.761719 298.460938 143.824219 C 298.722656 142.886719 298.371094 141.886719 297.578125 141.328125 L 277.070312 126.367188 C 276.425781 125.894531 275.605469 125.777344 274.871094 126.074219 C 274.136719 126.335938 273.578125 126.953125 273.402344 127.714844 L 267.476562 152.390625 C 267.242188 153.332031 267.621094 154.328125 268.414062 154.886719 C 269.207031 155.441406 270.261719 155.441406 271.054688 154.886719 L 276.570312 151.128906 L 281.707031 165.125 L 199.933594 165.125 L 199.933594 155.734375 L 263.308594 155.734375 L 263.308594 151.042969 L 197.585938 151.042969 C 196.296875 151.042969 195.238281 152.097656 195.238281 153.390625 L 195.238281 167.472656 C 195.238281 168.761719 196.296875 169.820312 197.585938 169.820312 L 305.5625 169.820312 C 306.851562 169.820312 307.90625 168.761719 307.90625 167.472656 L 307.90625 153.390625 C 307.90625 152.097656 306.851562 151.042969 305.5625 151.042969 Z M 278.449219 145.261719 C 278.214844 145.171875 277.980469 145.144531 277.746094 145.144531 C 277.277344 145.144531 276.804688 145.289062 276.425781 145.554688 L 273.433594 147.578125 L 277.128906 132.234375 L 289.894531 141.5625 L 286.3125 141.945312 C 285.578125 142.035156 284.964844 142.414062 284.582031 143.03125 C 284.199219 143.648438 284.113281 144.410156 284.375 145.085938 L 290.039062 160.519531 L 285.636719 162.132812 L 279.976562 146.699219 C 279.683594 146.023438 279.152344 145.496094 278.449219 145.261719 Z M 278.449219 145.261719 " fill-opacity="1" fill-rule="nonzero"/><path fill="#ffffff" d="M 195.238281 176.863281 L 228.101562 176.863281 L 228.101562 181.554688 L 195.238281 181.554688 Z M 195.238281 176.863281 " fill-opacity="1" fill-rule="nonzero"/><path fill="#ffffff" d="M 305.5625 186.25 L 197.585938 186.25 C 196.296875 186.25 195.238281 187.308594 195.238281 188.597656 L 195.238281 202.679688 C 195.238281 203.972656 196.296875 205.027344 197.585938 205.027344 L 305.5625 205.027344 C 306.851562 205.027344 307.90625 203.972656 307.90625 202.679688 L 307.90625 188.597656 C 307.90625 187.308594 306.851562 186.25 305.5625 186.25 Z M 303.214844 200.335938 L 199.933594 200.335938 L 199.933594 190.945312 L 303.214844 190.945312 Z M 303.214844 200.335938 " fill-opacity="1" fill-rule="nonzero"/></svg>