<svg xmlns="http://www.w3.org/2000/svg" xmlns:xlink="http://www.w3.org/1999/xlink" width="576" zoomAndPan="magnify" viewBox="0 0 432 287.999989" height="384" preserveAspectRatio="xMidYMid meet" version="1.0"><defs><g/><clipPath id="c43996d5f6"><path d="M 0 0 L 69.054688 0 L 69.054688 288 L 0 288 Z M 0 0 " clip-rule="nonzero"/></clipPath><clipPath id="8c794acda3"><path d="M 176.890625 73.582031 L 317.890625 73.582031 L 317.890625 214.582031 L 176.890625 214.582031 Z M 176.890625 73.582031 " clip-rule="nonzero"/></clipPath></defs><rect x="-43.2" width="518.4" fill="#ffffff" y="-28.799999" height="345.599986" fill-opacity="1"/><rect x="-43.2" width="518.4" fill="#053b60" y="-28.799999" height="345.599986" fill-opacity="1"/><g clip-path="url(#c43996d5f6)"><path fill="#ccaa55" d="M 0 0 L 69.054688 0 L 69.054688 288.089844 L 0 288.089844 Z M 0 0 " fill-opacity="1" fill-rule="nonzero"/></g><g fill="#053b60" fill-opacity="1"><g transform="translate(42.775761, 177.390572)"><g><path d="M -17.546875 -12.96875 L -14.125 -12.96875 L -14.125 -5.828125 L -10.421875 -5.828125 L -10.421875 -11.171875 L -7.09375 -11.171875 L -7.09375 -5.828125 L 0 -5.828125 L 0 -1.546875 L -17.546875 -1.546875 Z M -17.546875 -12.96875 "/></g></g></g><g fill="#053b60" fill-opacity="1"><g transform="translate(42.775761, 163.717734)"><g><path d="M 0.203125 -7.90625 C 0.203125 -6.53125 -0.0859375 -5.296875 -0.671875 -4.203125 C -1.253906 -3.117188 -2.085938 -2.265625 -3.171875 -1.640625 C -4.253906 -1.015625 -5.519531 -0.703125 -6.96875 -0.703125 C -8.40625 -0.703125 -9.671875 -1.015625 -10.765625 -1.640625 C -11.859375 -2.273438 -12.695312 -3.144531 -13.28125 -4.25 C -13.863281 -5.351562 -14.15625 -6.585938 -14.15625 -7.953125 C -14.15625 -9.316406 -13.863281 -10.546875 -13.28125 -11.640625 C -12.695312 -12.742188 -11.859375 -13.613281 -10.765625 -14.25 C -9.671875 -14.882812 -8.40625 -15.203125 -6.96875 -15.203125 C -5.539062 -15.203125 -4.28125 -14.878906 -3.1875 -14.234375 C -2.09375 -13.597656 -1.253906 -12.722656 -0.671875 -11.609375 C -0.0859375 -10.503906 0.203125 -9.269531 0.203125 -7.90625 Z M -3.5 -7.90625 C -3.5 -8.71875 -3.796875 -9.410156 -4.390625 -9.984375 C -4.992188 -10.554688 -5.851562 -10.84375 -6.96875 -10.84375 C -8.09375 -10.84375 -8.953125 -10.5625 -9.546875 -10 C -10.148438 -9.445312 -10.453125 -8.765625 -10.453125 -7.953125 C -10.453125 -7.117188 -10.15625 -6.425781 -9.5625 -5.875 C -8.96875 -5.320312 -8.101562 -5.046875 -6.96875 -5.046875 C -5.851562 -5.046875 -4.992188 -5.316406 -4.390625 -5.859375 C -3.796875 -6.398438 -3.5 -7.082031 -3.5 -7.90625 Z M -3.5 -7.90625 "/></g></g></g><g fill="#053b60" fill-opacity="1"><g transform="translate(42.775761, 147.795261)"><g><path d="M -11.625 -5.828125 C -12.394531 -6.328125 -13 -6.953125 -13.4375 -7.703125 C -13.875 -8.453125 -14.09375 -9.285156 -14.09375 -10.203125 L -9.578125 -10.203125 L -9.578125 -9.03125 C -9.578125 -7.957031 -9.347656 -7.15625 -8.890625 -6.625 C -8.429688 -6.09375 -7.625 -5.828125 -6.46875 -5.828125 L 0 -5.828125 L 0 -1.546875 L -13.953125 -1.546875 L -13.953125 -5.828125 Z M -11.625 -5.828125 "/></g></g></g><g fill="#053b60" fill-opacity="1"><g transform="translate(42.775761, 137.096959)"><g><path d="M -14.09375 -19.34375 C -14.09375 -21.082031 -13.566406 -22.460938 -12.515625 -23.484375 C -11.472656 -24.515625 -10.019531 -25.03125 -8.15625 -25.03125 L 0 -25.03125 L 0 -20.78125 L -7.578125 -20.78125 C -8.472656 -20.78125 -9.164062 -20.539062 -9.65625 -20.0625 C -10.15625 -19.582031 -10.40625 -18.925781 -10.40625 -18.09375 C -10.40625 -17.257812 -10.15625 -16.601562 -9.65625 -16.125 C -9.164062 -15.65625 -8.472656 -15.421875 -7.578125 -15.421875 L 0 -15.421875 L 0 -11.171875 L -7.578125 -11.171875 C -8.472656 -11.171875 -9.164062 -10.929688 -9.65625 -10.453125 C -10.15625 -9.984375 -10.40625 -9.332031 -10.40625 -8.5 C -10.40625 -7.664062 -10.15625 -7.007812 -9.65625 -6.53125 C -9.164062 -6.0625 -8.472656 -5.828125 -7.578125 -5.828125 L 0 -5.828125 L 0 -1.546875 L -13.953125 -1.546875 L -13.953125 -5.828125 L -12.203125 -5.828125 C -12.785156 -6.253906 -13.242188 -6.816406 -13.578125 -7.515625 C -13.921875 -8.222656 -14.09375 -9.019531 -14.09375 -9.90625 C -14.09375 -10.945312 -13.867188 -11.878906 -13.421875 -12.703125 C -12.972656 -13.535156 -12.332031 -14.1875 -11.5 -14.65625 C -12.269531 -15.132812 -12.894531 -15.789062 -13.375 -16.625 C -13.851562 -17.457031 -14.09375 -18.363281 -14.09375 -19.34375 Z M -14.09375 -19.34375 "/></g></g></g><path fill="#ffffff" d="M 186.277344 82.972656 L 190.972656 82.972656 L 190.972656 87.664062 L 186.277344 87.664062 Z M 186.277344 82.972656 " fill-opacity="1" fill-rule="nonzero"/><path fill="#ffffff" d="M 195.667969 82.972656 L 200.363281 82.972656 L 200.363281 87.664062 L 195.667969 87.664062 Z M 195.667969 82.972656 " fill-opacity="1" fill-rule="nonzero"/><path fill="#ffffff" d="M 205.054688 82.972656 L 209.75 82.972656 L 209.75 87.664062 L 205.054688 87.664062 Z M 205.054688 82.972656 " fill-opacity="1" fill-rule="nonzero"/><g clip-path="url(#8c794acda3)"><path fill="#ffffff" d="M 310.683594 73.582031 L 183.929688 73.582031 C 180.058594 73.582031 176.890625 76.75 176.890625 80.625 L 176.890625 207.375 C 176.890625 211.25 180.058594 214.417969 183.929688 214.417969 L 310.683594 214.417969 C 314.554688 214.417969 317.726562 211.25 317.726562 207.375 L 317.726562 80.625 C 317.726562 76.75 314.554688 73.582031 310.683594 73.582031 Z M 313.03125 82.972656 L 214.445312 82.972656 L 214.445312 87.664062 L 313.03125 87.664062 L 313.03125 207.375 C 313.03125 208.667969 311.972656 209.722656 310.683594 209.722656 L 183.929688 209.722656 C 182.640625 209.722656 181.582031 208.667969 181.582031 207.375 L 181.582031 80.625 C 181.582031 79.332031 182.640625 78.277344 183.929688 78.277344 L 310.683594 78.277344 C 311.972656 78.277344 313.03125 79.332031 313.03125 80.625 Z M 313.03125 82.972656 " fill-opacity="1" fill-rule="nonzero"/></g><path fill="#ffffff" d="M 221.488281 97.054688 L 273.125 97.054688 L 273.125 101.75 L 221.488281 101.75 Z M 221.488281 97.054688 " fill-opacity="1" fill-rule="nonzero"/><path fill="#ffffff" d="M 190.972656 118.179688 L 190.972656 132.261719 C 190.972656 133.554688 192.027344 134.609375 193.320312 134.609375 L 263.738281 134.609375 L 263.738281 129.917969 L 195.667969 129.917969 L 195.667969 120.527344 L 298.945312 120.527344 L 298.945312 129.917969 L 291.90625 129.917969 L 291.90625 134.609375 L 301.292969 134.609375 C 302.585938 134.609375 303.640625 133.554688 303.640625 132.261719 L 303.640625 118.179688 C 303.640625 116.890625 302.585938 115.832031 301.292969 115.832031 L 193.320312 115.832031 C 192.027344 115.832031 190.972656 116.890625 190.972656 118.179688 Z M 190.972656 118.179688 " fill-opacity="1" fill-rule="nonzero"/><path fill="#ffffff" d="M 190.972656 106.445312 L 212.097656 106.445312 L 212.097656 111.136719 L 190.972656 111.136719 Z M 190.972656 106.445312 " fill-opacity="1" fill-rule="nonzero"/><path fill="#ffffff" d="M 190.972656 141.652344 L 223.835938 141.652344 L 223.835938 146.347656 L 190.972656 146.347656 Z M 190.972656 141.652344 " fill-opacity="1" fill-rule="nonzero"/><path fill="#ffffff" d="M 301.292969 151.042969 L 294.253906 151.042969 L 294.253906 155.734375 L 298.945312 155.734375 L 298.945312 165.125 L 286.742188 165.125 L 289.558594 164.097656 C 290.761719 163.65625 291.40625 162.308594 290.964844 161.074219 L 285.539062 146.257812 L 292.167969 145.554688 C 293.136719 145.4375 293.929688 144.761719 294.195312 143.824219 C 294.457031 142.886719 294.105469 141.886719 293.3125 141.328125 L 272.804688 126.367188 C 272.160156 125.894531 271.335938 125.777344 270.601562 126.074219 C 269.871094 126.335938 269.3125 126.953125 269.136719 127.714844 L 263.210938 152.390625 C 262.976562 153.332031 263.355469 154.328125 264.148438 154.886719 C 264.941406 155.441406 265.996094 155.441406 266.789062 154.886719 L 272.304688 151.128906 L 277.441406 165.125 L 195.667969 165.125 L 195.667969 155.734375 L 259.042969 155.734375 L 259.042969 151.042969 L 193.320312 151.042969 C 192.027344 151.042969 190.972656 152.097656 190.972656 153.390625 L 190.972656 167.472656 C 190.972656 168.761719 192.027344 169.820312 193.320312 169.820312 L 301.292969 169.820312 C 302.585938 169.820312 303.640625 168.761719 303.640625 167.472656 L 303.640625 153.390625 C 303.640625 152.097656 302.585938 151.042969 301.292969 151.042969 Z M 274.183594 145.261719 C 273.949219 145.171875 273.714844 145.144531 273.480469 145.144531 C 273.007812 145.144531 272.539062 145.289062 272.160156 145.554688 L 269.164062 147.578125 L 272.863281 132.234375 L 285.625 141.5625 L 282.046875 141.945312 C 281.3125 142.035156 280.695312 142.414062 280.316406 143.03125 C 279.933594 143.648438 279.847656 144.410156 280.109375 145.085938 L 285.773438 160.519531 L 281.371094 162.132812 L 275.707031 146.699219 C 275.414062 146.023438 274.886719 145.496094 274.183594 145.261719 Z M 274.183594 145.261719 " fill-opacity="1" fill-rule="nonzero"/><path fill="#ffffff" d="M 190.972656 176.863281 L 223.835938 176.863281 L 223.835938 181.554688 L 190.972656 181.554688 Z M 190.972656 176.863281 " fill-opacity="1" fill-rule="nonzero"/><path fill="#ffffff" d="M 301.292969 186.25 L 193.320312 186.25 C 192.027344 186.25 190.972656 187.308594 190.972656 188.597656 L 190.972656 202.679688 C 190.972656 203.972656 192.027344 205.027344 193.320312 205.027344 L 301.292969 205.027344 C 302.585938 205.027344 303.640625 203.972656 303.640625 202.679688 L 303.640625 188.597656 C 303.640625 187.308594 302.585938 186.25 301.292969 186.25 Z M 298.945312 200.335938 L 195.667969 200.335938 L 195.667969 190.945312 L 298.945312 190.945312 Z M 298.945312 200.335938 " fill-opacity="1" fill-rule="nonzero"/></svg>