<svg xmlns="http://www.w3.org/2000/svg" xmlns:xlink="http://www.w3.org/1999/xlink" width="150" zoomAndPan="magnify" viewBox="0 0 112.5 112.499997" height="150" preserveAspectRatio="xMidYMid meet" version="1.0"><defs><clipPath id="7344473d4d"><path d="M 49 45.003906 L 73 45.003906 L 73 68 L 49 68 Z M 49 45.003906 " clip-rule="nonzero"/></clipPath><clipPath id="030bd8d671"><path d="M 50 45.003906 L 73 45.003906 L 73 67 L 50 67 Z M 50 45.003906 " clip-rule="nonzero"/></clipPath><clipPath id="6ccecde66b"><path d="M 26 69 L 42 69 L 42 84.578125 L 26 84.578125 Z M 26 69 " clip-rule="nonzero"/></clipPath><clipPath id="0b6bd39714"><path d="M 50 69 L 65 69 L 65 84.578125 L 50 84.578125 Z M 50 69 " clip-rule="nonzero"/></clipPath><clipPath id="6cae46c037"><path d="M 78 69 L 94 69 L 94 84.578125 L 78 84.578125 Z M 78 69 " clip-rule="nonzero"/></clipPath><clipPath id="5f8d525e5c"><path d="M 94 69 L 109.761719 69 L 109.761719 84.578125 L 94 84.578125 Z M 94 69 " clip-rule="nonzero"/></clipPath><clipPath id="6ccda23b23"><path d="M 3.730469 57 L 7 57 L 7 63 L 3.730469 63 Z M 3.730469 57 " clip-rule="nonzero"/></clipPath></defs><g clip-path="url(#7344473d4d)"><path fill="#fec057" d="M 49.90625 45.121094 L 72.675781 45.121094 L 72.675781 67.640625 L 49.90625 67.640625 Z M 49.90625 45.121094 " fill-opacity="1" fill-rule="nonzero"/></g><g clip-path="url(#030bd8d671)"><path fill="#ffffff" d="M 50.578125 45.824219 L 72.03125 45.824219 L 72.03125 66.964844 L 50.578125 66.964844 Z M 50.578125 45.824219 " fill-opacity="1" fill-rule="nonzero"/></g><path fill="#000000" d="M 4.027344 65.265625 L 8.878906 65.265625 L 11.398438 77.441406 L 14.164062 65.265625 L 17.8125 65.265625 L 20.546875 77.496094 L 23.09375 65.265625 L 27.890625 65.265625 L 22.957031 84 L 18.773438 84 L 15.929688 71.851562 L 13.140625 84 L 8.851562 84 L 4.027344 65.265625 " fill-opacity="1" fill-rule="nonzero"/><g clip-path="url(#6ccecde66b)"><path fill="#000000" d="M 41.542969 69.90625 L 37.359375 69.90625 L 37.359375 71.394531 C 36.792969 70.53125 35.507812 69.421875 33.203125 69.421875 C 29.449219 69.421875 26.148438 72.285156 26.148438 76.929688 C 26.148438 80.976562 28.75 84.460938 33.203125 84.460938 C 34.835938 84.460938 36.582031 83.839844 37.359375 82.464844 L 37.359375 83.972656 L 41.542969 83.972656 L 41.542969 69.90625 M 30.359375 77.007812 C 30.359375 75.390625 31.433594 73.363281 33.820312 73.363281 C 34.152344 73.347656 34.476562 73.378906 34.800781 73.460938 C 35.121094 73.546875 35.421875 73.675781 35.707031 73.851562 C 35.988281 74.027344 36.238281 74.242188 36.457031 74.496094 C 36.675781 74.746094 36.851562 75.027344 36.984375 75.335938 C 37.257812 75.925781 37.375 76.550781 37.332031 77.203125 C 37.289062 77.855469 37.089844 78.457031 36.742188 79.007812 C 36.433594 79.519531 36.019531 79.921875 35.496094 80.207031 C 34.972656 80.492188 34.414062 80.621094 33.816406 80.601562 C 31.324219 80.574219 30.359375 78.304688 30.359375 77.007812 Z M 30.359375 77.007812 " fill-opacity="1" fill-rule="nonzero"/></g><path fill="#000000" d="M 44.382812 73.121094 L 42.292969 73.121094 L 42.292969 69.90625 L 44.382812 69.90625 L 44.382812 65.238281 L 48.566406 65.238281 L 48.566406 69.90625 L 50.578125 69.90625 L 50.578125 73.121094 L 48.566406 73.121094 L 48.566406 84 L 44.382812 84 L 44.382812 73.121094 " fill-opacity="1" fill-rule="nonzero"/><g clip-path="url(#0b6bd39714)"><path fill="#000000" d="M 60.125 80.304688 C 58.726562 81.195312 56.773438 80.980469 55.832031 79.816406 L 64.628906 74.253906 C 63.527344 71.878906 61.890625 70.257812 59.398438 69.613281 C 58.433594 69.359375 57.457031 69.316406 56.472656 69.480469 C 55.488281 69.644531 54.578125 70.003906 53.742188 70.554688 C 50.121094 72.820312 49.453125 77.546875 51.519531 80.867188 C 51.777344 81.28125 52.074219 81.664062 52.410156 82.019531 C 52.746094 82.375 53.113281 82.691406 53.507812 82.976562 C 53.90625 83.257812 54.328125 83.5 54.769531 83.699219 C 55.214844 83.894531 55.675781 84.050781 56.148438 84.15625 C 56.625 84.265625 57.105469 84.324219 57.589844 84.339844 C 58.074219 84.351562 58.558594 84.316406 59.039062 84.230469 C 59.515625 84.148438 59.984375 84.019531 60.4375 83.84375 C 60.890625 83.667969 61.324219 83.449219 61.734375 83.1875 C 62.3125 82.835938 62.820312 82.402344 63.265625 81.890625 L 63.265625 77.492188 C 62.390625 78.621094 61.34375 79.558594 60.125 80.300781 M 54.171875 77.0625 C 53.902344 76.46875 53.824219 74.6875 55.644531 73.527344 C 57.46875 72.367188 59.023438 73.230469 59.453125 73.714844 Z M 54.171875 77.0625 " fill-opacity="1" fill-rule="nonzero"/></g><path fill="#000000" d="M 65.273438 69.90625 L 69.214844 69.90625 L 69.214844 71.472656 C 69.617188 70.71875 70.34375 69.421875 72.753906 69.421875 L 72.753906 73.632812 L 72.59375 73.632812 C 70.449219 73.632812 69.457031 74.414062 69.457031 76.414062 L 69.457031 83.976562 L 65.273438 83.976562 L 65.273438 69.90625 " fill-opacity="1" fill-rule="nonzero"/><path fill="#000000" d="M 73.933594 65.265625 L 78.117188 65.265625 L 78.117188 84 L 73.933594 84 Z M 73.933594 65.265625 " fill-opacity="1" fill-rule="nonzero"/><g clip-path="url(#6cae46c037)"><path fill="#000000" d="M 78.84375 76.929688 C 78.851562 77.421875 78.90625 77.90625 79.011719 78.386719 C 79.113281 78.871094 79.261719 79.335938 79.453125 79.789062 C 79.648438 80.242188 79.882812 80.667969 80.160156 81.074219 C 80.4375 81.480469 80.75 81.859375 81.097656 82.203125 C 81.445312 82.546875 81.824219 82.855469 82.234375 83.125 C 82.640625 83.398438 83.074219 83.625 83.523438 83.8125 C 83.976562 83.996094 84.445312 84.136719 84.925781 84.234375 C 85.402344 84.328125 85.886719 84.375 86.378906 84.375 C 86.867188 84.375 87.351562 84.328125 87.832031 84.234375 C 88.308594 84.136719 88.777344 83.996094 89.230469 83.8125 C 89.679688 83.625 90.113281 83.398438 90.519531 83.125 C 90.929688 82.855469 91.308594 82.546875 91.65625 82.203125 C 92.003906 81.859375 92.316406 81.480469 92.59375 81.074219 C 92.871094 80.667969 93.105469 80.242188 93.300781 79.789062 C 93.492188 79.335938 93.640625 78.871094 93.742188 78.386719 C 93.847656 77.90625 93.902344 77.421875 93.910156 76.929688 C 93.910156 73.472656 91.472656 69.476562 86.375 69.476562 C 85.882812 69.460938 85.394531 69.492188 84.910156 69.574219 C 84.421875 69.65625 83.949219 69.789062 83.492188 69.96875 C 83.03125 70.148438 82.59375 70.371094 82.179688 70.640625 C 81.765625 70.910156 81.382812 71.21875 81.03125 71.566406 C 80.679688 71.910156 80.363281 72.289062 80.089844 72.703125 C 79.8125 73.113281 79.582031 73.546875 79.390625 74.007812 C 79.203125 74.464844 79.0625 74.9375 78.972656 75.425781 C 78.878906 75.914062 78.835938 76.40625 78.84375 76.902344 L 78.84375 76.929688 M 83.023438 76.902344 C 83.027344 76.59375 83.066406 76.289062 83.148438 75.992188 C 83.226562 75.691406 83.34375 75.410156 83.5 75.140625 C 83.652344 74.875 83.839844 74.632812 84.058594 74.414062 C 84.277344 74.195312 84.519531 74.011719 84.785156 73.855469 C 85.050781 73.703125 85.332031 73.585938 85.628906 73.507812 C 85.925781 73.425781 86.226562 73.386719 86.535156 73.386719 C 86.839844 73.390625 87.144531 73.429688 87.441406 73.511719 C 87.734375 73.589844 88.015625 73.707031 88.28125 73.863281 C 88.546875 74.019531 88.789062 74.203125 89.007812 74.421875 C 89.222656 74.640625 89.410156 74.886719 89.5625 75.152344 C 89.714844 75.421875 89.832031 75.703125 89.910156 76.003906 C 89.992188 76.300781 90.03125 76.605469 90.03125 76.914062 C 90.03125 77.222656 89.992188 77.527344 89.910156 77.828125 C 89.832031 78.125 89.714844 78.410156 89.5625 78.675781 C 89.410156 78.945312 89.222656 79.1875 89.007812 79.40625 C 88.789062 79.625 88.546875 79.8125 88.28125 79.96875 C 88.015625 80.121094 87.734375 80.238281 87.441406 80.320312 C 87.144531 80.402344 86.839844 80.441406 86.535156 80.441406 C 86.226562 80.441406 85.925781 80.402344 85.628906 80.324219 C 85.332031 80.246094 85.050781 80.128906 84.785156 79.972656 C 84.519531 79.820312 84.277344 79.632812 84.058594 79.417969 C 83.839844 79.199219 83.652344 78.957031 83.5 78.6875 C 83.34375 78.421875 83.226562 78.136719 83.148438 77.839844 C 83.066406 77.542969 83.027344 77.238281 83.023438 76.929688 Z M 83.023438 76.902344 " fill-opacity="1" fill-rule="nonzero"/></g><g clip-path="url(#5f8d525e5c)"><path fill="#000000" d="M 94.691406 76.929688 C 94.699219 77.421875 94.753906 77.90625 94.859375 78.386719 C 94.960938 78.871094 95.109375 79.335938 95.300781 79.789062 C 95.496094 80.242188 95.730469 80.667969 96.007812 81.074219 C 96.285156 81.480469 96.597656 81.859375 96.945312 82.203125 C 97.292969 82.546875 97.671875 82.855469 98.082031 83.125 C 98.488281 83.398438 98.921875 83.625 99.371094 83.8125 C 99.824219 83.996094 100.292969 84.136719 100.769531 84.234375 C 101.25 84.328125 101.734375 84.375 102.222656 84.375 C 102.714844 84.375 103.199219 84.328125 103.679688 84.234375 C 104.15625 84.136719 104.625 83.996094 105.078125 83.8125 C 105.527344 83.625 105.960938 83.398438 106.367188 83.125 C 106.777344 82.855469 107.15625 82.546875 107.503906 82.203125 C 107.851562 81.859375 108.164062 81.480469 108.441406 81.074219 C 108.71875 80.667969 108.953125 80.242188 109.148438 79.789062 C 109.339844 79.335938 109.488281 78.871094 109.589844 78.386719 C 109.695312 77.90625 109.75 77.421875 109.757812 76.929688 C 109.757812 73.472656 107.320312 69.476562 102.222656 69.476562 C 101.730469 69.460938 101.242188 69.496094 100.757812 69.578125 C 100.273438 69.660156 99.800781 69.792969 99.339844 69.972656 C 98.882812 70.152344 98.445312 70.378906 98.03125 70.644531 C 97.617188 70.914062 97.234375 71.222656 96.882812 71.570312 C 96.53125 71.917969 96.21875 72.296875 95.941406 72.707031 C 95.664062 73.117188 95.433594 73.550781 95.246094 74.011719 C 95.054688 74.46875 94.914062 74.941406 94.820312 75.425781 C 94.726562 75.914062 94.683594 76.40625 94.691406 76.902344 L 94.691406 76.929688 M 98.871094 76.902344 C 98.875 76.59375 98.914062 76.289062 98.996094 75.992188 C 99.074219 75.691406 99.191406 75.410156 99.347656 75.140625 C 99.5 74.875 99.6875 74.632812 99.90625 74.414062 C 100.125 74.195312 100.367188 74.011719 100.632812 73.855469 C 100.898438 73.703125 101.179688 73.585938 101.476562 73.507812 C 101.773438 73.425781 102.074219 73.386719 102.382812 73.386719 C 102.6875 73.390625 102.992188 73.429688 103.289062 73.511719 C 103.582031 73.589844 103.863281 73.707031 104.128906 73.863281 C 104.394531 74.019531 104.636719 74.203125 104.855469 74.421875 C 105.070312 74.640625 105.257812 74.886719 105.410156 75.152344 C 105.5625 75.421875 105.679688 75.703125 105.757812 76.003906 C 105.839844 76.300781 105.878906 76.605469 105.878906 76.914062 C 105.878906 77.222656 105.839844 77.527344 105.757812 77.828125 C 105.679688 78.125 105.5625 78.410156 105.410156 78.675781 C 105.257812 78.945312 105.070312 79.1875 104.855469 79.40625 C 104.636719 79.625 104.394531 79.8125 104.128906 79.96875 C 103.863281 80.121094 103.582031 80.238281 103.289062 80.320312 C 102.992188 80.402344 102.6875 80.441406 102.382812 80.441406 C 102.074219 80.441406 101.773438 80.402344 101.476562 80.324219 C 101.179688 80.246094 100.898438 80.128906 100.632812 79.972656 C 100.367188 79.820312 100.125 79.632812 99.90625 79.417969 C 99.6875 79.199219 99.5 78.957031 99.347656 78.6875 C 99.191406 78.421875 99.074219 78.136719 98.996094 77.839844 C 98.914062 77.542969 98.875 77.238281 98.871094 76.929688 Z M 98.871094 76.902344 " fill-opacity="1" fill-rule="nonzero"/></g><path fill="#000000" d="M 52.132812 47.363281 L 70.476562 47.363281 L 70.476562 65.480469 L 52.132812 65.480469 Z M 52.132812 47.363281 " fill-opacity="1" fill-rule="nonzero"/><path fill="#fec057" d="M 52.132812 48.957031 L 70.476562 48.957031 L 70.476562 49.386719 L 52.132812 49.386719 Z M 52.132812 48.957031 " fill-opacity="1" fill-rule="nonzero"/><path fill="#fec057" d="M 52.132812 50.710938 L 70.476562 50.710938 L 70.476562 51.144531 L 52.132812 51.144531 Z M 52.132812 50.710938 " fill-opacity="1" fill-rule="nonzero"/><path fill="#fec057" d="M 52.132812 52.304688 L 70.476562 52.304688 L 70.476562 52.738281 L 52.132812 52.738281 Z M 52.132812 52.304688 " fill-opacity="1" fill-rule="nonzero"/><path fill="#fec057" d="M 52.132812 53.898438 L 70.476562 53.898438 L 70.476562 54.328125 L 52.132812 54.328125 Z M 52.132812 53.898438 " fill-opacity="1" fill-rule="nonzero"/><path fill="#fec057" d="M 52.132812 55.597656 L 70.476562 55.597656 L 70.476562 56.03125 L 52.132812 56.03125 Z M 52.132812 55.597656 " fill-opacity="1" fill-rule="nonzero"/><path fill="#fec057" d="M 52.132812 57.191406 L 70.476562 57.191406 L 70.476562 57.621094 L 52.132812 57.621094 Z M 52.132812 57.191406 " fill-opacity="1" fill-rule="nonzero"/><path fill="#fec057" d="M 52.132812 58.867188 L 70.476562 58.867188 L 70.476562 59.296875 L 52.132812 59.296875 Z M 52.132812 58.867188 " fill-opacity="1" fill-rule="nonzero"/><path fill="#fec057" d="M 52.132812 60.457031 L 70.476562 60.457031 L 70.476562 60.917969 L 52.132812 60.917969 Z M 52.132812 60.457031 " fill-opacity="1" fill-rule="nonzero"/><path fill="#fec057" d="M 52.132812 62.160156 L 70.476562 62.160156 L 70.476562 62.589844 L 52.132812 62.589844 Z M 52.132812 62.160156 " fill-opacity="1" fill-rule="nonzero"/><path fill="#fec057" d="M 52.132812 63.804688 L 70.476562 63.804688 L 70.476562 64.238281 L 52.132812 64.238281 Z M 52.132812 63.804688 " fill-opacity="1" fill-rule="nonzero"/><path fill="#ffffff" d="M 51.945312 51.496094 L 55.515625 57.246094 L 58.734375 52.601562 L 61.761719 57.300781 C 64.847656 52.144531 67.179688 48.847656 70.691406 47.984375 L 70.691406 51.578125 C 68.117188 52.089844 63.878906 58.785156 61.761719 62.429688 L 58.730469 57.566406 L 55.40625 62.507812 L 51.917969 57.351562 L 51.945312 51.492188 " fill-opacity="1" fill-rule="nonzero"/><g clip-path="url(#6ccda23b23)"><path fill="#000000" d="M 4.910156 58.515625 L 3.730469 58.515625 L 3.730469 57.785156 L 6.84375 57.785156 L 6.84375 58.515625 L 5.6875 58.515625 L 5.6875 62.890625 L 4.914062 62.890625 L 4.914062 58.515625 " fill-opacity="1" fill-rule="nonzero"/></g><path fill="#000000" d="M 7.726562 62.890625 L 7.726562 57.785156 L 8.53125 57.785156 L 8.53125 59.945312 L 10.703125 59.945312 L 10.703125 57.785156 L 11.507812 57.785156 L 11.507812 62.890625 L 10.703125 62.890625 L 10.703125 60.648438 L 8.53125 60.648438 L 8.53125 62.890625 L 7.726562 62.890625 " fill-opacity="1" fill-rule="nonzero"/><path fill="#000000" d="M 12.820312 57.785156 L 15.636719 57.785156 L 15.636719 58.515625 L 13.625 58.515625 L 13.625 59.972656 L 15.609375 59.972656 L 15.609375 60.675781 L 13.625 60.675781 L 13.625 62.160156 L 15.636719 62.160156 L 15.636719 62.890625 L 12.820312 62.890625 L 12.820312 57.785156 " fill-opacity="1" fill-rule="nonzero"/><path fill="#000000" d="M 23.976562 61.320312 C 23.789062 61.820312 23.476562 62.222656 23.039062 62.523438 C 22.601562 62.824219 22.121094 62.972656 21.589844 62.96875 C 21.273438 62.96875 20.964844 62.914062 20.664062 62.804688 C 20.367188 62.691406 20.097656 62.53125 19.859375 62.320312 C 19.621094 62.109375 19.425781 61.863281 19.273438 61.578125 C 19.125 61.296875 19.027344 60.996094 18.988281 60.679688 C 18.945312 60.363281 18.960938 60.046875 19.035156 59.734375 C 19.105469 59.421875 19.230469 59.132812 19.410156 58.867188 C 19.585938 58.601562 19.804688 58.375 20.0625 58.191406 C 20.324219 58.003906 20.605469 57.871094 20.914062 57.789062 C 21.222656 57.707031 21.535156 57.683594 21.851562 57.71875 C 22.167969 57.75 22.46875 57.839844 22.75 57.984375 C 23.035156 58.125 23.285156 58.316406 23.5 58.550781 C 23.71875 58.789062 23.882812 59.054688 24.003906 59.351562 L 23.144531 59.351562 C 22.992188 59.0625 22.777344 58.832031 22.496094 58.660156 C 22.21875 58.492188 21.917969 58.40625 21.589844 58.40625 C 21.34375 58.417969 21.109375 58.472656 20.886719 58.574219 C 20.660156 58.675781 20.464844 58.816406 20.292969 58.996094 C 20.121094 59.171875 19.992188 59.378906 19.898438 59.605469 C 19.808594 59.835938 19.761719 60.074219 19.761719 60.324219 C 19.761719 60.570312 19.808594 60.808594 19.898438 61.039062 C 19.992188 61.269531 20.121094 61.472656 20.292969 61.652344 C 20.464844 61.832031 20.660156 61.972656 20.886719 62.074219 C 21.109375 62.175781 21.34375 62.230469 21.589844 62.242188 C 21.910156 62.238281 22.210938 62.152344 22.488281 61.988281 C 22.765625 61.824219 22.984375 61.601562 23.144531 61.320312 L 23.976562 61.320312 " fill-opacity="1" fill-rule="nonzero"/><path fill="#000000" d="M 25.050781 57.785156 L 25.855469 57.785156 L 25.855469 62.859375 L 25.050781 62.859375 Z M 25.050781 57.785156 " fill-opacity="1" fill-rule="nonzero"/><path fill="#000000" d="M 27.890625 58.515625 L 26.738281 58.515625 L 26.738281 57.785156 L 29.851562 57.785156 L 29.851562 58.515625 L 28.695312 58.515625 L 28.695312 62.890625 L 27.890625 62.890625 L 27.890625 58.515625 " fill-opacity="1" fill-rule="nonzero"/><path fill="#000000" d="M 31.914062 61.078125 L 30.332031 57.785156 L 31.21875 57.785156 L 32.316406 60.324219 L 33.441406 57.785156 L 34.300781 57.785156 L 32.71875 61.078125 L 32.71875 62.890625 L 31.914062 62.890625 L 31.914062 61.078125 " fill-opacity="1" fill-rule="nonzero"/><path fill="#000000" d="M 37.332031 60.378906 C 37.328125 60.730469 37.394531 61.070312 37.527344 61.394531 C 37.660156 61.722656 37.847656 62.011719 38.09375 62.261719 C 38.34375 62.511719 38.625 62.707031 38.949219 62.84375 C 39.273438 62.980469 39.609375 63.050781 39.960938 63.050781 C 40.308594 63.050781 40.648438 62.988281 40.972656 62.851562 C 41.296875 62.71875 41.582031 62.527344 41.832031 62.28125 C 42.082031 62.03125 42.273438 61.746094 42.410156 61.421875 C 42.542969 61.097656 42.613281 60.757812 42.613281 60.402344 C 42.617188 60.050781 42.550781 59.710938 42.417969 59.386719 C 42.285156 59.058594 42.097656 58.769531 41.851562 58.519531 C 41.601562 58.269531 41.320312 58.074219 40.996094 57.9375 C 40.671875 57.800781 40.335938 57.734375 39.984375 57.730469 C 39.632812 57.71875 39.292969 57.777344 38.960938 57.910156 C 38.632812 58.039062 38.34375 58.226562 38.09375 58.480469 C 37.839844 58.730469 37.648438 59.019531 37.515625 59.347656 C 37.386719 59.679688 37.324219 60.023438 37.332031 60.378906 M 38.136719 60.324219 C 38.128906 60.074219 38.171875 59.832031 38.261719 59.601562 C 38.351562 59.367188 38.484375 59.160156 38.660156 58.984375 C 38.835938 58.804688 39.039062 58.667969 39.265625 58.574219 C 39.496094 58.476562 39.738281 58.433594 39.984375 58.433594 C 40.234375 58.4375 40.476562 58.488281 40.703125 58.585938 C 40.933594 58.683594 41.136719 58.824219 41.308594 59.003906 C 41.484375 59.183594 41.617188 59.390625 41.707031 59.625 C 41.796875 59.859375 41.839844 60.101562 41.835938 60.351562 C 41.84375 60.601562 41.804688 60.84375 41.714844 61.078125 C 41.628906 61.308594 41.496094 61.515625 41.324219 61.699219 C 41.152344 61.878906 40.953125 62.019531 40.726562 62.117188 C 40.5 62.214844 40.261719 62.265625 40.011719 62.269531 C 39.757812 62.269531 39.515625 62.21875 39.28125 62.121094 C 39.046875 62.023438 38.84375 61.878906 38.664062 61.695312 C 38.488281 61.515625 38.355469 61.304688 38.261719 61.066406 C 38.171875 60.828125 38.128906 60.582031 38.136719 60.324219 Z M 38.136719 60.324219 " fill-opacity="1" fill-rule="nonzero"/><path fill="#000000" d="M 43.6875 57.785156 L 46.316406 57.785156 L 46.316406 58.515625 L 44.492188 58.515625 L 44.492188 60 L 46.289062 60 L 46.289062 60.703125 L 44.492188 60.703125 L 44.492188 62.890625 L 43.6875 62.890625 L 43.6875 57.785156 " fill-opacity="1" fill-rule="nonzero"/></svg>